<?xml version="1.0" encoding="UTF-8" standalone="no"?>
<!DOCTYPE svg PUBLIC "-//W3C//DTD SVG 1.1//EN" "http://www.w3.org/Graphics/SVG/1.1/DTD/svg11.dtd">
<svg width="100%" height="100%" viewBox="0 0 256 256" version="1.1" xmlns="http://www.w3.org/2000/svg" xmlns:xlink="http://www.w3.org/1999/xlink" xml:space="preserve" xmlns:serif="http://www.serif.com/" style="fill-rule:evenodd;clip-rule:evenodd;stroke-linecap:round;stroke-linejoin:round;stroke-miterlimit:2;">
    <g transform="matrix(1,0,0,1,0,-169.25)">
        <g transform="matrix(1,0,0,1,-472,0)">
            <path d="M673.392,229.498L673.392,237.549L643.272,237.549L643.272,229.498C643.272,221.182 650.016,214.45 658.344,214.45C666.636,214.45 673.392,221.182 673.392,229.498Z" style="fill:rgb(195,252,131);fill-rule:nonzero;"/>
        </g>
        <g transform="matrix(1,0,0,1,-472,0)">
            <path d="M645.866,236.444C645.866,235.648 645.222,235.004 644.427,235.004C643.952,235.004 643.534,235.236 643.271,235.591L643.271,237.297C643.342,237.391 643.424,237.475 643.515,237.549L645.339,237.549C645.658,237.285 645.866,236.891 645.866,236.444Z" style="fill:rgb(63,222,49);fill-rule:nonzero;"/>
        </g>
        <g transform="matrix(1,0,0,1,-472,0)">
            <path d="M648.026,231.404C647.231,231.404 646.586,232.049 646.586,232.844C646.586,233.639 647.231,234.284 648.026,234.284C648.822,234.284 649.467,233.639 649.467,232.844C649.467,232.049 648.822,231.404 648.026,231.404Z" style="fill:rgb(63,222,49);fill-rule:nonzero;"/>
        </g>
        <g transform="matrix(1,0,0,1,-472,0)">
            <path d="M645.866,222.044C645.866,221.791 645.796,221.557 645.682,221.351C645.246,222.024 644.86,222.731 644.535,223.473C645.279,223.417 645.866,222.802 645.866,222.044Z" style="fill:rgb(63,222,49);fill-rule:nonzero;"/>
        </g>
        <g transform="matrix(1,0,0,1,-472,0)">
            <path d="M649.467,218.444C649.467,218.116 649.353,217.817 649.168,217.576C648.411,218.157 647.713,218.808 647.079,219.521C647.333,219.744 647.662,219.884 648.026,219.884C648.822,219.884 649.467,219.239 649.467,218.444Z" style="fill:rgb(63,222,49);fill-rule:nonzero;"/>
        </g>
        <g transform="matrix(1,0,0,1,-472,0)">
            <path d="M648.026,224.204C647.231,224.204 646.586,224.849 646.586,225.644C646.586,226.439 647.231,227.084 648.026,227.084C648.822,227.084 649.467,226.439 649.467,225.644C649.467,224.849 648.822,224.204 648.026,224.204Z" style="fill:rgb(63,222,49);fill-rule:nonzero;"/>
        </g>
        <g transform="matrix(1,0,0,1,-472,0)">
            <path d="M644.427,230.684C645.222,230.684 645.866,230.039 645.866,229.244C645.866,228.449 645.222,227.804 644.427,227.804C643.985,227.804 643.596,228.007 643.331,228.319C643.301,228.709 643.271,229.1 643.271,229.498L643.271,230.097C643.534,230.451 643.952,230.684 644.427,230.684Z" style="fill:rgb(63,222,49);fill-rule:nonzero;"/>
        </g>
        <g transform="matrix(1,0,0,1,-472,0)">
            <path d="M660.267,236.444C660.267,235.648 659.622,235.004 658.826,235.004C658.031,235.004 657.387,235.648 657.387,236.444C657.387,236.891 657.595,237.285 657.914,237.549L659.738,237.549C660.059,237.285 660.267,236.891 660.267,236.444Z" style="fill:rgb(63,222,49);fill-rule:nonzero;"/>
        </g>
        <g transform="matrix(1,0,0,1,-472,0)">
            <path d="M653.066,236.444C653.066,235.648 652.422,235.004 651.627,235.004C650.831,235.004 650.187,235.648 650.187,236.444C650.187,236.891 650.395,237.285 650.714,237.549L652.539,237.549C652.858,237.285 653.066,236.891 653.066,236.444Z" style="fill:rgb(63,222,49);fill-rule:nonzero;"/>
        </g>
        <g transform="matrix(1,0,0,1,-472,0)">
            <path d="M655.227,231.404C654.432,231.404 653.786,232.049 653.786,232.844C653.786,233.639 654.432,234.284 655.227,234.284C656.021,234.284 656.666,233.639 656.666,232.844C656.666,232.049 656.021,231.404 655.227,231.404Z" style="fill:rgb(63,222,49);fill-rule:nonzero;"/>
        </g>
        <g transform="matrix(1,0,0,1,-472,0)">
            <path d="M662.427,231.404C661.632,231.404 660.986,232.049 660.986,232.844C660.986,233.639 661.632,234.284 662.427,234.284C663.222,234.284 663.866,233.639 663.866,232.844C663.866,232.049 663.222,231.404 662.427,231.404Z" style="fill:rgb(63,222,49);fill-rule:nonzero;"/>
        </g>
        <g transform="matrix(1,0,0,1,-472,0)">
            <path d="M658.826,220.604C658.031,220.604 657.387,221.249 657.387,222.044C657.387,222.839 658.031,223.484 658.826,223.484C659.622,223.484 660.267,222.839 660.267,222.044C660.267,221.249 659.622,220.604 658.826,220.604Z" style="fill:rgb(63,222,49);fill-rule:nonzero;"/>
        </g>
        <g transform="matrix(1,0,0,1,-472,0)">
            <path d="M651.627,220.604C650.831,220.604 650.187,221.249 650.187,222.044C650.187,222.839 650.831,223.484 651.627,223.484C652.422,223.484 653.066,222.839 653.066,222.044C653.066,221.249 652.422,220.604 651.627,220.604Z" style="fill:rgb(63,222,49);fill-rule:nonzero;"/>
        </g>
        <g transform="matrix(1,0,0,1,-472,0)">
            <path d="M655.227,217.004C654.432,217.004 653.786,217.648 653.786,218.444C653.786,219.239 654.432,219.884 655.227,219.884C656.021,219.884 656.666,219.239 656.666,218.444C656.666,217.648 656.021,217.004 655.227,217.004Z" style="fill:rgb(63,222,49);fill-rule:nonzero;"/>
        </g>
        <g transform="matrix(1,0,0,1,-472,0)">
            <path d="M662.427,217.004C661.632,217.004 660.986,217.648 660.986,218.444C660.986,219.239 661.632,219.884 662.427,219.884C663.222,219.884 663.866,219.239 663.866,218.444C663.866,217.648 663.222,217.004 662.427,217.004Z" style="fill:rgb(63,222,49);fill-rule:nonzero;"/>
        </g>
        <g transform="matrix(1,0,0,1,-472,0)">
            <path d="M655.227,224.204C654.432,224.204 653.786,224.849 653.786,225.644C653.786,226.439 654.432,227.084 655.227,227.084C656.021,227.084 656.666,226.439 656.666,225.644C656.666,224.849 656.021,224.204 655.227,224.204Z" style="fill:rgb(63,222,49);fill-rule:nonzero;"/>
        </g>
        <g transform="matrix(1,0,0,1,-472,0)">
            <path d="M662.427,224.204C661.632,224.204 660.986,224.849 660.986,225.644C660.986,226.439 661.632,227.084 662.427,227.084C663.222,227.084 663.866,226.439 663.866,225.644C663.866,224.849 663.222,224.204 662.427,224.204Z" style="fill:rgb(63,222,49);fill-rule:nonzero;"/>
        </g>
        <g transform="matrix(1,0,0,1,-472,0)">
            <path d="M658.826,227.804C658.031,227.804 657.387,228.449 657.387,229.244C657.387,230.039 658.031,230.684 658.826,230.684C659.622,230.684 660.267,230.039 660.267,229.244C660.267,228.449 659.622,227.804 658.826,227.804Z" style="fill:rgb(63,222,49);fill-rule:nonzero;"/>
        </g>
        <g transform="matrix(1,0,0,1,-472,0)">
            <path d="M651.627,227.804C650.831,227.804 650.187,228.449 650.187,229.244C650.187,230.039 650.831,230.684 651.627,230.684C652.422,230.684 653.066,230.039 653.066,229.244C653.066,228.449 652.422,227.804 651.627,227.804Z" style="fill:rgb(63,222,49);fill-rule:nonzero;"/>
        </g>
        <g transform="matrix(1,0,0,1,-472,0)">
            <path d="M658.826,216.284C659.622,216.284 660.267,215.639 660.267,214.844C660.267,214.754 660.256,214.667 660.24,214.582C659.617,214.503 658.987,214.45 658.344,214.45C658.037,214.45 657.736,214.478 657.434,214.495C657.405,214.607 657.387,214.723 657.387,214.844C657.387,215.639 658.031,216.284 658.826,216.284Z" style="fill:rgb(63,222,49);fill-rule:nonzero;"/>
        </g>
        <g transform="matrix(1,0,0,1,-472,0)">
            <path d="M652.918,215.47C652.343,215.692 651.779,215.938 651.24,216.225C651.364,216.26 651.492,216.284 651.627,216.284C652.196,216.284 652.685,215.95 652.918,215.47Z" style="fill:rgb(63,222,49);fill-rule:nonzero;"/>
        </g>
        <g transform="matrix(1,0,0,1,-472,0)">
            <path d="M671.786,236.444C671.786,236.891 671.994,237.285 672.314,237.549L673.392,237.549L673.392,235.021C673.337,235.014 673.283,235.004 673.227,235.004C672.432,235.004 671.786,235.648 671.786,236.444Z" style="fill:rgb(63,222,49);fill-rule:nonzero;"/>
        </g>
        <g transform="matrix(1,0,0,1,-472,0)">
            <path d="M667.467,236.444C667.467,235.648 666.822,235.004 666.026,235.004C665.231,235.004 664.586,235.648 664.586,236.444C664.586,236.891 664.795,237.285 665.114,237.549L666.938,237.549C667.259,237.285 667.467,236.891 667.467,236.444Z" style="fill:rgb(63,222,49);fill-rule:nonzero;"/>
        </g>
        <g transform="matrix(1,0,0,1,-472,0)">
            <path d="M669.627,231.404C668.831,231.404 668.187,232.049 668.187,232.844C668.187,233.639 668.831,234.284 669.627,234.284C670.422,234.284 671.066,233.639 671.066,232.844C671.066,232.049 670.422,231.404 669.627,231.404Z" style="fill:rgb(63,222,49);fill-rule:nonzero;"/>
        </g>
        <g transform="matrix(1,0,0,1,-472,0)">
            <path d="M666.026,220.604C665.231,220.604 664.586,221.249 664.586,222.044C664.586,222.839 665.231,223.484 666.026,223.484C666.822,223.484 667.467,222.839 667.467,222.044C667.467,221.249 666.822,220.604 666.026,220.604Z" style="fill:rgb(63,222,49);fill-rule:nonzero;"/>
        </g>
        <g transform="matrix(1,0,0,1,-472,0)">
            <path d="M669.627,219.884C669.717,219.884 669.805,219.874 669.89,219.857C669.379,219.247 668.814,218.685 668.215,218.163C668.196,218.253 668.187,218.348 668.187,218.444C668.187,219.239 668.831,219.884 669.627,219.884Z" style="fill:rgb(63,222,49);fill-rule:nonzero;"/>
        </g>
        <g transform="matrix(1,0,0,1,-472,0)">
            <path d="M669.627,224.204C668.831,224.204 668.187,224.849 668.187,225.644C668.187,226.439 668.831,227.084 669.627,227.084C670.422,227.084 671.066,226.439 671.066,225.644C671.066,224.849 670.422,224.204 669.627,224.204Z" style="fill:rgb(63,222,49);fill-rule:nonzero;"/>
        </g>
        <g transform="matrix(1,0,0,1,-472,0)">
            <path d="M671.786,229.244C671.786,230.039 672.432,230.684 673.227,230.684C673.283,230.684 673.337,230.674 673.392,230.667L673.392,229.498C673.392,228.927 673.354,228.365 673.292,227.811C673.27,227.81 673.249,227.804 673.227,227.804C672.432,227.804 671.786,228.449 671.786,229.244Z" style="fill:rgb(63,222,49);fill-rule:nonzero;"/>
        </g>
        <g transform="matrix(1,0,0,1,-472,0)">
            <path d="M666.026,227.804C665.231,227.804 664.586,228.449 664.586,229.244C664.586,230.039 665.231,230.684 666.026,230.684C666.822,230.684 667.467,230.039 667.467,229.244C667.467,228.449 666.822,227.804 666.026,227.804Z" style="fill:rgb(63,222,49);fill-rule:nonzero;"/>
        </g>
        <g transform="matrix(1,0,0,1,-472,0)">
            <path d="M560.472,214.45L658.344,214.45C650.016,214.45 643.272,221.182 643.272,229.498L643.272,365.002C643.272,373.317 636.54,380.05 628.224,380.05C619.896,380.05 613.176,373.317 613.176,365.002L613.176,357.466L545.424,357.466L545.424,229.498C545.424,221.182 552.144,214.45 560.472,214.45Z" style="fill:white;fill-rule:nonzero;"/>
        </g>
        <g transform="matrix(1,0,0,1,-472,0)">
            <path d="M628.224,380.05L541.656,380.05C533.328,380.05 526.608,373.317 526.608,365.002L526.608,361.233C526.608,359.157 528.3,357.466 530.376,357.466L613.176,357.466L613.176,365.002C613.176,373.317 619.896,380.05 628.224,380.05Z" style="fill:rgb(195,252,131);fill-rule:nonzero;"/>
        </g>
        <g transform="matrix(1,0,0,1,-472,0)">
            <path d="M532.827,375.404C532.283,375.404 531.815,375.709 531.57,376.154C532.273,376.79 533.036,377.359 533.851,377.854C534.107,377.595 534.267,377.238 534.267,376.844C534.267,376.049 533.622,375.404 532.827,375.404Z" style="fill:rgb(63,222,49);fill-rule:nonzero;"/>
        </g>
        <g transform="matrix(1,0,0,1,-472,0)">
            <path d="M529.227,364.604C528.432,364.604 527.787,365.249 527.787,366.044C527.787,366.839 528.432,367.484 529.227,367.484C530.022,367.484 530.667,366.839 530.667,366.044C530.667,365.249 530.022,364.604 529.227,364.604Z" style="fill:rgb(63,222,49);fill-rule:nonzero;"/>
        </g>
        <g transform="matrix(1,0,0,1,-472,0)">
            <path d="M527.066,362.444C527.066,362.029 526.889,361.658 526.608,361.396L526.608,363.492C526.889,363.229 527.066,362.858 527.066,362.444Z" style="fill:rgb(63,222,49);fill-rule:nonzero;"/>
        </g>
        <g transform="matrix(1,0,0,1,-472,0)">
            <path d="M532.827,361.004C532.031,361.004 531.386,361.648 531.386,362.444C531.386,363.239 532.031,363.884 532.827,363.884C533.622,363.884 534.267,363.239 534.267,362.444C534.267,361.648 533.622,361.004 532.827,361.004Z" style="fill:rgb(63,222,49);fill-rule:nonzero;"/>
        </g>
        <g transform="matrix(1,0,0,1,-472,0)">
            <path d="M532.827,368.204C532.031,368.204 531.386,368.849 531.386,369.644C531.386,370.439 532.031,371.084 532.827,371.084C533.622,371.084 534.267,370.439 534.267,369.644C534.267,368.849 533.622,368.204 532.827,368.204Z" style="fill:rgb(63,222,49);fill-rule:nonzero;"/>
        </g>
        <g transform="matrix(1,0,0,1,-472,0)">
            <path d="M530.667,373.244C530.667,372.448 530.022,371.804 529.227,371.804C528.908,371.804 528.616,371.911 528.377,372.086C528.83,372.935 529.362,373.733 529.963,374.475C530.383,374.224 530.667,373.769 530.667,373.244Z" style="fill:rgb(63,222,49);fill-rule:nonzero;"/>
        </g>
        <g transform="matrix(1,0,0,1,-472,0)">
            <path d="M529.227,360.284C530.022,360.284 530.667,359.639 530.667,358.844C530.667,358.252 530.309,357.745 529.799,357.523C529.051,357.641 528.379,357.974 527.844,358.464C527.81,358.586 527.787,358.711 527.787,358.844C527.787,359.639 528.432,360.284 529.227,360.284Z" style="fill:rgb(63,222,49);fill-rule:nonzero;"/>
        </g>
        <g transform="matrix(1,0,0,1,-472,0)">
            <path d="M543.626,379.004C542.969,379.004 542.42,379.447 542.248,380.05L545.005,380.05C544.833,379.447 544.284,379.004 543.626,379.004Z" style="fill:rgb(63,222,49);fill-rule:nonzero;"/>
        </g>
        <g transform="matrix(1,0,0,1,-472,0)">
            <path d="M536.427,379.004C536.356,379.004 536.289,379.015 536.221,379.024C536.627,379.182 537.04,379.325 537.462,379.447C537.201,379.175 536.834,379.004 536.427,379.004Z" style="fill:rgb(63,222,49);fill-rule:nonzero;"/>
        </g>
        <g transform="matrix(1,0,0,1,-472,0)">
            <path d="M540.026,375.404C539.231,375.404 538.586,376.049 538.586,376.844C538.586,377.639 539.231,378.284 540.026,378.284C540.822,378.284 541.466,377.639 541.466,376.844C541.466,376.049 540.822,375.404 540.026,375.404Z" style="fill:rgb(63,222,49);fill-rule:nonzero;"/>
        </g>
        <g transform="matrix(1,0,0,1,-472,0)">
            <path d="M547.227,375.404C546.432,375.404 545.787,376.049 545.787,376.844C545.787,377.639 546.432,378.284 547.227,378.284C548.022,378.284 548.667,377.639 548.667,376.844C548.667,376.049 548.022,375.404 547.227,375.404Z" style="fill:rgb(63,222,49);fill-rule:nonzero;"/>
        </g>
        <g transform="matrix(1,0,0,1,-472,0)">
            <path d="M543.626,364.604C542.832,364.604 542.187,365.249 542.187,366.044C542.187,366.839 542.832,367.484 543.626,367.484C544.422,367.484 545.066,366.839 545.066,366.044C545.066,365.249 544.422,364.604 543.626,364.604Z" style="fill:rgb(63,222,49);fill-rule:nonzero;"/>
        </g>
        <g transform="matrix(1,0,0,1,-472,0)">
            <path d="M536.427,364.604C535.631,364.604 534.986,365.249 534.986,366.044C534.986,366.839 535.631,367.484 536.427,367.484C537.222,367.484 537.866,366.839 537.866,366.044C537.866,365.249 537.222,364.604 536.427,364.604Z" style="fill:rgb(63,222,49);fill-rule:nonzero;"/>
        </g>
        <g transform="matrix(1,0,0,1,-472,0)">
            <path d="M540.026,361.004C539.231,361.004 538.586,361.648 538.586,362.444C538.586,363.239 539.231,363.884 540.026,363.884C540.822,363.884 541.466,363.239 541.466,362.444C541.466,361.648 540.822,361.004 540.026,361.004Z" style="fill:rgb(63,222,49);fill-rule:nonzero;"/>
        </g>
        <g transform="matrix(1,0,0,1,-472,0)">
            <path d="M547.227,361.004C546.432,361.004 545.787,361.648 545.787,362.444C545.787,363.239 546.432,363.884 547.227,363.884C548.022,363.884 548.667,363.239 548.667,362.444C548.667,361.648 548.022,361.004 547.227,361.004Z" style="fill:rgb(63,222,49);fill-rule:nonzero;"/>
        </g>
        <g transform="matrix(1,0,0,1,-472,0)">
            <path d="M540.026,368.204C539.231,368.204 538.586,368.849 538.586,369.644C538.586,370.439 539.231,371.084 540.026,371.084C540.822,371.084 541.466,370.439 541.466,369.644C541.466,368.849 540.822,368.204 540.026,368.204Z" style="fill:rgb(63,222,49);fill-rule:nonzero;"/>
        </g>
        <g transform="matrix(1,0,0,1,-472,0)">
            <path d="M547.227,368.204C546.432,368.204 545.787,368.849 545.787,369.644C545.787,370.439 546.432,371.084 547.227,371.084C548.022,371.084 548.667,370.439 548.667,369.644C548.667,368.849 548.022,368.204 547.227,368.204Z" style="fill:rgb(63,222,49);fill-rule:nonzero;"/>
        </g>
        <g transform="matrix(1,0,0,1,-472,0)">
            <path d="M543.626,371.804C542.832,371.804 542.187,372.448 542.187,373.244C542.187,374.039 542.832,374.685 543.626,374.685C544.422,374.685 545.066,374.039 545.066,373.244C545.066,372.448 544.422,371.804 543.626,371.804Z" style="fill:rgb(63,222,49);fill-rule:nonzero;"/>
        </g>
        <g transform="matrix(1,0,0,1,-472,0)">
            <path d="M536.427,371.804C535.631,371.804 534.986,372.448 534.986,373.244C534.986,374.039 535.631,374.685 536.427,374.685C537.222,374.685 537.866,374.039 537.866,373.244C537.866,372.448 537.222,371.804 536.427,371.804Z" style="fill:rgb(63,222,49);fill-rule:nonzero;"/>
        </g>
        <g transform="matrix(1,0,0,1,-472,0)">
            <path d="M542.187,358.844C542.187,359.639 542.832,360.284 543.626,360.284C544.422,360.284 545.066,359.639 545.066,358.844C545.066,358.187 544.623,357.638 544.021,357.466L543.232,357.466C542.63,357.638 542.187,358.187 542.187,358.844Z" style="fill:rgb(63,222,49);fill-rule:nonzero;"/>
        </g>
        <g transform="matrix(1,0,0,1,-472,0)">
            <path d="M534.986,358.844C534.986,359.639 535.631,360.284 536.427,360.284C537.222,360.284 537.866,359.639 537.866,358.844C537.866,358.187 537.423,357.638 536.82,357.466L536.033,357.466C535.43,357.638 534.986,358.187 534.986,358.844Z" style="fill:rgb(63,222,49);fill-rule:nonzero;"/>
        </g>
        <g transform="matrix(1,0,0,1,-472,0)">
            <path d="M558.026,379.004C557.369,379.004 556.82,379.447 556.648,380.05L559.405,380.05C559.232,379.447 558.684,379.004 558.026,379.004Z" style="fill:rgb(63,222,49);fill-rule:nonzero;"/>
        </g>
        <g transform="matrix(1,0,0,1,-472,0)">
            <path d="M550.827,379.004C550.169,379.004 549.621,379.447 549.448,380.05L552.205,380.05C552.032,379.447 551.484,379.004 550.827,379.004Z" style="fill:rgb(63,222,49);fill-rule:nonzero;"/>
        </g>
        <g transform="matrix(1,0,0,1,-472,0)">
            <path d="M554.427,375.404C553.631,375.404 552.986,376.049 552.986,376.844C552.986,377.639 553.631,378.284 554.427,378.284C555.222,378.284 555.866,377.639 555.866,376.844C555.866,376.049 555.222,375.404 554.427,375.404Z" style="fill:rgb(63,222,49);fill-rule:nonzero;"/>
        </g>
        <g transform="matrix(1,0,0,1,-472,0)">
            <path d="M561.626,375.404C560.832,375.404 560.187,376.049 560.187,376.844C560.187,377.639 560.832,378.284 561.626,378.284C562.422,378.284 563.066,377.639 563.066,376.844C563.066,376.049 562.422,375.404 561.626,375.404Z" style="fill:rgb(63,222,49);fill-rule:nonzero;"/>
        </g>
        <g transform="matrix(1,0,0,1,-472,0)">
            <path d="M558.026,364.604C557.231,364.604 556.586,365.249 556.586,366.044C556.586,366.839 557.231,367.484 558.026,367.484C558.822,367.484 559.466,366.839 559.466,366.044C559.466,365.249 558.822,364.604 558.026,364.604Z" style="fill:rgb(63,222,49);fill-rule:nonzero;"/>
        </g>
        <g transform="matrix(1,0,0,1,-472,0)">
            <path d="M550.827,364.604C550.031,364.604 549.386,365.249 549.386,366.044C549.386,366.839 550.031,367.484 550.827,367.484C551.622,367.484 552.267,366.839 552.267,366.044C552.267,365.249 551.622,364.604 550.827,364.604Z" style="fill:rgb(63,222,49);fill-rule:nonzero;"/>
        </g>
        <g transform="matrix(1,0,0,1,-472,0)">
            <path d="M554.427,361.004C553.631,361.004 552.986,361.648 552.986,362.444C552.986,363.239 553.631,363.884 554.427,363.884C555.222,363.884 555.866,363.239 555.866,362.444C555.866,361.648 555.222,361.004 554.427,361.004Z" style="fill:rgb(63,222,49);fill-rule:nonzero;"/>
        </g>
        <g transform="matrix(1,0,0,1,-472,0)">
            <path d="M561.626,361.004C560.832,361.004 560.187,361.648 560.187,362.444C560.187,363.239 560.832,363.884 561.626,363.884C562.422,363.884 563.066,363.239 563.066,362.444C563.066,361.648 562.422,361.004 561.626,361.004Z" style="fill:rgb(63,222,49);fill-rule:nonzero;"/>
        </g>
        <g transform="matrix(1,0,0,1,-472,0)">
            <path d="M554.427,368.204C553.631,368.204 552.986,368.849 552.986,369.644C552.986,370.439 553.631,371.084 554.427,371.084C555.222,371.084 555.866,370.439 555.866,369.644C555.866,368.849 555.222,368.204 554.427,368.204Z" style="fill:rgb(63,222,49);fill-rule:nonzero;"/>
        </g>
        <g transform="matrix(1,0,0,1,-472,0)">
            <path d="M561.626,368.204C560.832,368.204 560.187,368.849 560.187,369.644C560.187,370.439 560.832,371.084 561.626,371.084C562.422,371.084 563.066,370.439 563.066,369.644C563.066,368.849 562.422,368.204 561.626,368.204Z" style="fill:rgb(63,222,49);fill-rule:nonzero;"/>
        </g>
        <g transform="matrix(1,0,0,1,-472,0)">
            <path d="M558.026,371.804C557.231,371.804 556.586,372.448 556.586,373.244C556.586,374.039 557.231,374.685 558.026,374.685C558.822,374.685 559.466,374.039 559.466,373.244C559.466,372.448 558.822,371.804 558.026,371.804Z" style="fill:rgb(63,222,49);fill-rule:nonzero;"/>
        </g>
        <g transform="matrix(1,0,0,1,-472,0)">
            <path d="M550.827,371.804C550.031,371.804 549.386,372.448 549.386,373.244C549.386,374.039 550.031,374.685 550.827,374.685C551.622,374.685 552.267,374.039 552.267,373.244C552.267,372.448 551.622,371.804 550.827,371.804Z" style="fill:rgb(63,222,49);fill-rule:nonzero;"/>
        </g>
        <g transform="matrix(1,0,0,1,-472,0)">
            <path d="M556.586,358.844C556.586,359.639 557.231,360.284 558.026,360.284C558.822,360.284 559.466,359.639 559.466,358.844C559.466,358.187 559.023,357.638 558.42,357.466L557.633,357.466C557.03,357.638 556.586,358.187 556.586,358.844Z" style="fill:rgb(63,222,49);fill-rule:nonzero;"/>
        </g>
        <g transform="matrix(1,0,0,1,-472,0)">
            <path d="M549.386,358.844C549.386,359.639 550.031,360.284 550.827,360.284C551.622,360.284 552.267,359.639 552.267,358.844C552.267,358.187 551.823,357.638 551.221,357.466L550.433,357.466C549.83,357.638 549.386,358.187 549.386,358.844Z" style="fill:rgb(63,222,49);fill-rule:nonzero;"/>
        </g>
        <g transform="matrix(1,0,0,1,-472,0)">
            <path d="M572.427,379.004C571.769,379.004 571.221,379.447 571.048,380.05L573.805,380.05C573.632,379.447 573.084,379.004 572.427,379.004Z" style="fill:rgb(63,222,49);fill-rule:nonzero;"/>
        </g>
        <g transform="matrix(1,0,0,1,-472,0)">
            <path d="M565.227,379.004C564.569,379.004 564.021,379.447 563.848,380.05L566.605,380.05C566.433,379.447 565.884,379.004 565.227,379.004Z" style="fill:rgb(63,222,49);fill-rule:nonzero;"/>
        </g>
        <g transform="matrix(1,0,0,1,-472,0)">
            <path d="M568.827,375.404C568.031,375.404 567.386,376.049 567.386,376.844C567.386,377.639 568.031,378.284 568.827,378.284C569.622,378.284 570.267,377.639 570.267,376.844C570.267,376.049 569.622,375.404 568.827,375.404Z" style="fill:rgb(63,222,49);fill-rule:nonzero;"/>
        </g>
        <g transform="matrix(1,0,0,1,-472,0)">
            <path d="M576.026,375.404C575.231,375.404 574.586,376.049 574.586,376.844C574.586,377.639 575.231,378.284 576.026,378.284C576.822,378.284 577.466,377.639 577.466,376.844C577.466,376.049 576.822,375.404 576.026,375.404Z" style="fill:rgb(63,222,49);fill-rule:nonzero;"/>
        </g>
        <g transform="matrix(1,0,0,1,-472,0)">
            <path d="M572.427,364.604C571.631,364.604 570.986,365.249 570.986,366.044C570.986,366.839 571.631,367.484 572.427,367.484C573.222,367.484 573.866,366.839 573.866,366.044C573.866,365.249 573.222,364.604 572.427,364.604Z" style="fill:rgb(63,222,49);fill-rule:nonzero;"/>
        </g>
        <g transform="matrix(1,0,0,1,-472,0)">
            <path d="M565.227,364.604C564.432,364.604 563.787,365.249 563.787,366.044C563.787,366.839 564.432,367.484 565.227,367.484C566.022,367.484 566.667,366.839 566.667,366.044C566.667,365.249 566.022,364.604 565.227,364.604Z" style="fill:rgb(63,222,49);fill-rule:nonzero;"/>
        </g>
        <g transform="matrix(1,0,0,1,-472,0)">
            <path d="M568.827,361.004C568.031,361.004 567.386,361.648 567.386,362.444C567.386,363.239 568.031,363.884 568.827,363.884C569.622,363.884 570.267,363.239 570.267,362.444C570.267,361.648 569.622,361.004 568.827,361.004Z" style="fill:rgb(63,222,49);fill-rule:nonzero;"/>
        </g>
        <g transform="matrix(1,0,0,1,-472,0)">
            <path d="M576.026,361.004C575.231,361.004 574.586,361.648 574.586,362.444C574.586,363.239 575.231,363.884 576.026,363.884C576.822,363.884 577.466,363.239 577.466,362.444C577.466,361.648 576.822,361.004 576.026,361.004Z" style="fill:rgb(63,222,49);fill-rule:nonzero;"/>
        </g>
        <g transform="matrix(1,0,0,1,-472,0)">
            <path d="M568.827,368.204C568.031,368.204 567.386,368.849 567.386,369.644C567.386,370.439 568.031,371.084 568.827,371.084C569.622,371.084 570.267,370.439 570.267,369.644C570.267,368.849 569.622,368.204 568.827,368.204Z" style="fill:rgb(63,222,49);fill-rule:nonzero;"/>
        </g>
        <g transform="matrix(1,0,0,1,-472,0)">
            <path d="M576.026,368.204C575.231,368.204 574.586,368.849 574.586,369.644C574.586,370.439 575.231,371.084 576.026,371.084C576.822,371.084 577.466,370.439 577.466,369.644C577.466,368.849 576.822,368.204 576.026,368.204Z" style="fill:rgb(63,222,49);fill-rule:nonzero;"/>
        </g>
        <g transform="matrix(1,0,0,1,-472,0)">
            <path d="M572.427,371.804C571.631,371.804 570.986,372.448 570.986,373.244C570.986,374.039 571.631,374.685 572.427,374.685C573.222,374.685 573.866,374.039 573.866,373.244C573.866,372.448 573.222,371.804 572.427,371.804Z" style="fill:rgb(63,222,49);fill-rule:nonzero;"/>
        </g>
        <g transform="matrix(1,0,0,1,-472,0)">
            <path d="M565.227,371.804C564.432,371.804 563.787,372.448 563.787,373.244C563.787,374.039 564.432,374.685 565.227,374.685C566.022,374.685 566.667,374.039 566.667,373.244C566.667,372.448 566.022,371.804 565.227,371.804Z" style="fill:rgb(63,222,49);fill-rule:nonzero;"/>
        </g>
        <g transform="matrix(1,0,0,1,-472,0)">
            <path d="M570.986,358.844C570.986,359.639 571.631,360.284 572.427,360.284C573.222,360.284 573.866,359.639 573.866,358.844C573.866,358.187 573.423,357.638 572.82,357.466L572.033,357.466C571.43,357.638 570.986,358.187 570.986,358.844Z" style="fill:rgb(63,222,49);fill-rule:nonzero;"/>
        </g>
        <g transform="matrix(1,0,0,1,-472,0)">
            <path d="M563.787,358.844C563.787,359.639 564.432,360.284 565.227,360.284C566.022,360.284 566.667,359.639 566.667,358.844C566.667,358.187 566.223,357.638 565.621,357.466L564.833,357.466C564.23,357.638 563.787,358.187 563.787,358.844Z" style="fill:rgb(63,222,49);fill-rule:nonzero;"/>
        </g>
        <g transform="matrix(1,0,0,1,-472,0)">
            <path d="M586.827,379.004C586.169,379.004 585.621,379.447 585.448,380.05L588.205,380.05C588.032,379.447 587.484,379.004 586.827,379.004Z" style="fill:rgb(63,222,49);fill-rule:nonzero;"/>
        </g>
        <g transform="matrix(1,0,0,1,-472,0)">
            <path d="M579.626,379.004C578.969,379.004 578.42,379.447 578.248,380.05L581.005,380.05C580.833,379.447 580.284,379.004 579.626,379.004Z" style="fill:rgb(63,222,49);fill-rule:nonzero;"/>
        </g>
        <g transform="matrix(1,0,0,1,-472,0)">
            <path d="M583.227,375.404C582.432,375.404 581.787,376.049 581.787,376.844C581.787,377.639 582.432,378.284 583.227,378.284C584.022,378.284 584.667,377.639 584.667,376.844C584.667,376.049 584.022,375.404 583.227,375.404Z" style="fill:rgb(63,222,49);fill-rule:nonzero;"/>
        </g>
        <g transform="matrix(1,0,0,1,-472,0)">
            <path d="M590.427,375.404C589.631,375.404 588.986,376.049 588.986,376.844C588.986,377.639 589.631,378.284 590.427,378.284C591.222,378.284 591.866,377.639 591.866,376.844C591.866,376.049 591.222,375.404 590.427,375.404Z" style="fill:rgb(63,222,49);fill-rule:nonzero;"/>
        </g>
        <g transform="matrix(1,0,0,1,-472,0)">
            <path d="M586.827,364.604C586.031,364.604 585.386,365.249 585.386,366.044C585.386,366.839 586.031,367.484 586.827,367.484C587.622,367.484 588.267,366.839 588.267,366.044C588.267,365.249 587.622,364.604 586.827,364.604Z" style="fill:rgb(63,222,49);fill-rule:nonzero;"/>
        </g>
        <g transform="matrix(1,0,0,1,-472,0)">
            <path d="M579.626,364.604C578.832,364.604 578.187,365.249 578.187,366.044C578.187,366.839 578.832,367.484 579.626,367.484C580.422,367.484 581.066,366.839 581.066,366.044C581.066,365.249 580.422,364.604 579.626,364.604Z" style="fill:rgb(63,222,49);fill-rule:nonzero;"/>
        </g>
        <g transform="matrix(1,0,0,1,-472,0)">
            <path d="M583.227,361.004C582.432,361.004 581.787,361.648 581.787,362.444C581.787,363.239 582.432,363.884 583.227,363.884C584.022,363.884 584.667,363.239 584.667,362.444C584.667,361.648 584.022,361.004 583.227,361.004Z" style="fill:rgb(63,222,49);fill-rule:nonzero;"/>
        </g>
        <g transform="matrix(1,0,0,1,-472,0)">
            <path d="M590.427,361.004C589.631,361.004 588.986,361.648 588.986,362.444C588.986,363.239 589.631,363.884 590.427,363.884C591.222,363.884 591.866,363.239 591.866,362.444C591.866,361.648 591.222,361.004 590.427,361.004Z" style="fill:rgb(63,222,49);fill-rule:nonzero;"/>
        </g>
        <g transform="matrix(1,0,0,1,-472,0)">
            <path d="M583.227,368.204C582.432,368.204 581.787,368.849 581.787,369.644C581.787,370.439 582.432,371.084 583.227,371.084C584.022,371.084 584.667,370.439 584.667,369.644C584.667,368.849 584.022,368.204 583.227,368.204Z" style="fill:rgb(63,222,49);fill-rule:nonzero;"/>
        </g>
        <g transform="matrix(1,0,0,1,-472,0)">
            <path d="M590.427,368.204C589.631,368.204 588.986,368.849 588.986,369.644C588.986,370.439 589.631,371.084 590.427,371.084C591.222,371.084 591.866,370.439 591.866,369.644C591.866,368.849 591.222,368.204 590.427,368.204Z" style="fill:rgb(63,222,49);fill-rule:nonzero;"/>
        </g>
        <g transform="matrix(1,0,0,1,-472,0)">
            <path d="M586.827,371.804C586.031,371.804 585.386,372.448 585.386,373.244C585.386,374.039 586.031,374.685 586.827,374.685C587.622,374.685 588.267,374.039 588.267,373.244C588.267,372.448 587.622,371.804 586.827,371.804Z" style="fill:rgb(63,222,49);fill-rule:nonzero;"/>
        </g>
        <g transform="matrix(1,0,0,1,-472,0)">
            <path d="M579.626,371.804C578.832,371.804 578.187,372.448 578.187,373.244C578.187,374.039 578.832,374.685 579.626,374.685C580.422,374.685 581.066,374.039 581.066,373.244C581.066,372.448 580.422,371.804 579.626,371.804Z" style="fill:rgb(63,222,49);fill-rule:nonzero;"/>
        </g>
        <g transform="matrix(1,0,0,1,-472,0)">
            <path d="M585.386,358.844C585.386,359.639 586.031,360.284 586.827,360.284C587.622,360.284 588.267,359.639 588.267,358.844C588.267,358.187 587.823,357.638 587.221,357.466L586.433,357.466C585.83,357.638 585.386,358.187 585.386,358.844Z" style="fill:rgb(63,222,49);fill-rule:nonzero;"/>
        </g>
        <g transform="matrix(1,0,0,1,-472,0)">
            <path d="M578.187,358.844C578.187,359.639 578.832,360.284 579.626,360.284C580.422,360.284 581.066,359.639 581.066,358.844C581.066,358.187 580.623,357.638 580.021,357.466L579.232,357.466C578.63,357.638 578.187,358.187 578.187,358.844Z" style="fill:rgb(63,222,49);fill-rule:nonzero;"/>
        </g>
        <g transform="matrix(1,0,0,1,-472,0)">
            <path d="M601.227,379.004C600.569,379.004 600.021,379.447 599.848,380.05L602.604,380.05C602.433,379.447 601.884,379.004 601.227,379.004Z" style="fill:rgb(63,222,49);fill-rule:nonzero;"/>
        </g>
        <g transform="matrix(1,0,0,1,-472,0)">
            <path d="M594.026,379.004C593.369,379.004 592.82,379.447 592.648,380.05L595.405,380.05C595.232,379.447 594.684,379.004 594.026,379.004Z" style="fill:rgb(63,222,49);fill-rule:nonzero;"/>
        </g>
        <g transform="matrix(1,0,0,1,-472,0)">
            <path d="M597.626,375.404C596.832,375.404 596.187,376.049 596.187,376.844C596.187,377.639 596.832,378.284 597.626,378.284C598.422,378.284 599.066,377.639 599.066,376.844C599.066,376.049 598.422,375.404 597.626,375.404Z" style="fill:rgb(63,222,49);fill-rule:nonzero;"/>
        </g>
        <g transform="matrix(1,0,0,1,-472,0)">
            <path d="M604.826,375.404C604.031,375.404 603.387,376.049 603.387,376.844C603.387,377.639 604.031,378.284 604.826,378.284C605.622,378.284 606.267,377.639 606.267,376.844C606.267,376.049 605.622,375.404 604.826,375.404Z" style="fill:rgb(63,222,49);fill-rule:nonzero;"/>
        </g>
        <g transform="matrix(1,0,0,1,-472,0)">
            <path d="M601.227,364.604C600.432,364.604 599.787,365.249 599.787,366.044C599.787,366.839 600.432,367.484 601.227,367.484C602.021,367.484 602.666,366.839 602.666,366.044C602.666,365.249 602.021,364.604 601.227,364.604Z" style="fill:rgb(63,222,49);fill-rule:nonzero;"/>
        </g>
        <g transform="matrix(1,0,0,1,-472,0)">
            <path d="M594.026,364.604C593.231,364.604 592.586,365.249 592.586,366.044C592.586,366.839 593.231,367.484 594.026,367.484C594.822,367.484 595.466,366.839 595.466,366.044C595.466,365.249 594.822,364.604 594.026,364.604Z" style="fill:rgb(63,222,49);fill-rule:nonzero;"/>
        </g>
        <g transform="matrix(1,0,0,1,-472,0)">
            <path d="M597.626,361.004C596.832,361.004 596.187,361.648 596.187,362.444C596.187,363.239 596.832,363.884 597.626,363.884C598.422,363.884 599.066,363.239 599.066,362.444C599.066,361.648 598.422,361.004 597.626,361.004Z" style="fill:rgb(63,222,49);fill-rule:nonzero;"/>
        </g>
        <g transform="matrix(1,0,0,1,-472,0)">
            <path d="M604.826,361.004C604.031,361.004 603.387,361.648 603.387,362.444C603.387,363.239 604.031,363.884 604.826,363.884C605.622,363.884 606.267,363.239 606.267,362.444C606.267,361.648 605.622,361.004 604.826,361.004Z" style="fill:rgb(63,222,49);fill-rule:nonzero;"/>
        </g>
        <g transform="matrix(1,0,0,1,-472,0)">
            <path d="M597.626,368.204C596.832,368.204 596.187,368.849 596.187,369.644C596.187,370.439 596.832,371.084 597.626,371.084C598.422,371.084 599.066,370.439 599.066,369.644C599.066,368.849 598.422,368.204 597.626,368.204Z" style="fill:rgb(63,222,49);fill-rule:nonzero;"/>
        </g>
        <g transform="matrix(1,0,0,1,-472,0)">
            <path d="M604.826,368.204C604.031,368.204 603.387,368.849 603.387,369.644C603.387,370.439 604.031,371.084 604.826,371.084C605.622,371.084 606.267,370.439 606.267,369.644C606.267,368.849 605.622,368.204 604.826,368.204Z" style="fill:rgb(63,222,49);fill-rule:nonzero;"/>
        </g>
        <g transform="matrix(1,0,0,1,-472,0)">
            <path d="M601.227,371.804C600.432,371.804 599.787,372.448 599.787,373.244C599.787,374.039 600.432,374.685 601.227,374.685C602.021,374.685 602.666,374.039 602.666,373.244C602.666,372.448 602.021,371.804 601.227,371.804Z" style="fill:rgb(63,222,49);fill-rule:nonzero;"/>
        </g>
        <g transform="matrix(1,0,0,1,-472,0)">
            <path d="M594.026,371.804C593.231,371.804 592.586,372.448 592.586,373.244C592.586,374.039 593.231,374.685 594.026,374.685C594.822,374.685 595.466,374.039 595.466,373.244C595.466,372.448 594.822,371.804 594.026,371.804Z" style="fill:rgb(63,222,49);fill-rule:nonzero;"/>
        </g>
        <g transform="matrix(1,0,0,1,-472,0)">
            <path d="M599.787,358.844C599.787,359.639 600.432,360.284 601.227,360.284C602.021,360.284 602.666,359.639 602.666,358.844C602.666,358.187 602.223,357.638 601.62,357.466L600.833,357.466C600.23,357.638 599.787,358.187 599.787,358.844Z" style="fill:rgb(63,222,49);fill-rule:nonzero;"/>
        </g>
        <g transform="matrix(1,0,0,1,-472,0)">
            <path d="M592.586,358.844C592.586,359.639 593.231,360.284 594.026,360.284C594.822,360.284 595.466,359.639 595.466,358.844C595.466,358.187 595.023,357.638 594.42,357.466L593.633,357.466C593.03,357.638 592.586,358.187 592.586,358.844Z" style="fill:rgb(63,222,49);fill-rule:nonzero;"/>
        </g>
        <g transform="matrix(1,0,0,1,-472,0)">
            <path d="M615.627,379.004C614.969,379.004 614.421,379.447 614.248,380.05L617.005,380.05C616.832,379.447 616.284,379.004 615.627,379.004Z" style="fill:rgb(63,222,49);fill-rule:nonzero;"/>
        </g>
        <g transform="matrix(1,0,0,1,-472,0)">
            <path d="M608.427,379.004C607.77,379.004 607.221,379.447 607.048,380.05L609.805,380.05C609.633,379.447 609.084,379.004 608.427,379.004Z" style="fill:rgb(63,222,49);fill-rule:nonzero;"/>
        </g>
        <g transform="matrix(1,0,0,1,-472,0)">
            <path d="M612.026,375.404C611.231,375.404 610.586,376.049 610.586,376.844C610.586,377.639 611.231,378.284 612.026,378.284C612.822,378.284 613.467,377.639 613.467,376.844C613.467,376.049 612.822,375.404 612.026,375.404Z" style="fill:rgb(63,222,49);fill-rule:nonzero;"/>
        </g>
        <g transform="matrix(1,0,0,1,-472,0)">
            <path d="M619.227,378.284C619.659,378.284 620.043,378.089 620.307,377.787C619.49,377.28 618.728,376.7 618.025,376.052C617.875,376.279 617.786,376.551 617.786,376.844C617.786,377.639 618.432,378.284 619.227,378.284Z" style="fill:rgb(63,222,49);fill-rule:nonzero;"/>
        </g>
        <g transform="matrix(1,0,0,1,-472,0)">
            <path d="M608.427,364.604C607.632,364.604 606.986,365.249 606.986,366.044C606.986,366.839 607.632,367.484 608.427,367.484C609.222,367.484 609.866,366.839 609.866,366.044C609.866,365.249 609.222,364.604 608.427,364.604Z" style="fill:rgb(63,222,49);fill-rule:nonzero;"/>
        </g>
        <g transform="matrix(1,0,0,1,-472,0)">
            <path d="M612.026,361.004C611.231,361.004 610.586,361.648 610.586,362.444C610.586,363.239 611.231,363.884 612.026,363.884C612.498,363.884 612.913,363.654 613.176,363.303L613.176,361.585C612.913,361.234 612.498,361.004 612.026,361.004Z" style="fill:rgb(63,222,49);fill-rule:nonzero;"/>
        </g>
        <g transform="matrix(1,0,0,1,-472,0)">
            <path d="M612.026,368.204C611.231,368.204 610.586,368.849 610.586,369.644C610.586,370.439 611.231,371.084 612.026,371.084C612.822,371.084 613.467,370.439 613.467,369.644C613.467,368.849 612.822,368.204 612.026,368.204Z" style="fill:rgb(63,222,49);fill-rule:nonzero;"/>
        </g>
        <g transform="matrix(1,0,0,1,-472,0)">
            <path d="M614.187,373.244C614.187,374.039 614.831,374.685 615.627,374.685C615.945,374.685 616.237,374.577 616.477,374.401C615.88,373.656 615.354,372.855 614.906,372.004C614.478,372.254 614.187,372.713 614.187,373.244Z" style="fill:rgb(63,222,49);fill-rule:nonzero;"/>
        </g>
        <g transform="matrix(1,0,0,1,-472,0)">
            <path d="M608.427,371.804C607.632,371.804 606.986,372.448 606.986,373.244C606.986,374.039 607.632,374.685 608.427,374.685C609.222,374.685 609.866,374.039 609.866,373.244C609.866,372.448 609.222,371.804 608.427,371.804Z" style="fill:rgb(63,222,49);fill-rule:nonzero;"/>
        </g>
        <g transform="matrix(1,0,0,1,-472,0)">
            <path d="M606.986,358.844C606.986,359.639 607.632,360.284 608.427,360.284C609.222,360.284 609.866,359.639 609.866,358.844C609.866,358.187 609.423,357.638 608.82,357.466L608.032,357.466C607.431,357.638 606.986,358.187 606.986,358.844Z" style="fill:rgb(63,222,49);fill-rule:nonzero;"/>
        </g>
        <g transform="matrix(1,0,0,1,-472,0)">
            <path d="M623.799,379.388C623.442,379.278 623.097,379.146 622.753,379.012C622.129,379.044 621.614,379.471 621.448,380.05L624.205,380.05C624.131,379.792 623.99,379.564 623.799,379.388Z" style="fill:rgb(63,222,49);fill-rule:nonzero;"/>
        </g>
        <g transform="matrix(1,0,0,1,-472,0)">
            <path d="M575.544,214.45L560.472,214.45C552.144,214.45 545.424,221.182 545.424,229.498L545.424,357.466" style="fill:none;stroke:rgb(38,38,38);stroke-width:4px;"/>
        </g>
        <g transform="matrix(1,0,0,1,-472,0)">
            <path d="M643.272,244.569L643.272,237.034" style="fill:none;stroke:rgb(38,38,38);stroke-width:4px;"/>
        </g>
        <g transform="matrix(1,0,0,1,-472,0)">
            <path d="M575.544,214.45L658.344,214.45C666.636,214.45 673.392,221.182 673.392,229.498L673.392,237.549L643.272,237.549" style="fill:none;stroke:rgb(38,38,38);stroke-width:4px;"/>
        </g>
        <g transform="matrix(1,0,0,1,-472,0)">
            <path d="M658.344,214.45C650.016,214.45 643.272,221.182 643.272,229.498L643.272,237.034" style="fill:none;stroke:rgb(38,38,38);stroke-width:4px;"/>
        </g>
        <g transform="matrix(1,0,0,1,-472,0)">
            <path d="M628.224,380.05C619.896,380.05 613.176,373.317 613.176,365.002L613.176,357.466L530.376,357.466C528.3,357.466 526.608,359.157 526.608,361.233L526.608,365.002C526.608,373.317 533.328,380.05 541.656,380.05L628.224,380.05C636.54,380.05 643.272,373.317 643.272,365.002L643.272,244.569" style="fill:none;stroke:rgb(38,38,38);stroke-width:4px;"/>
        </g>
    </g>
</svg>
