<?xml version="1.0" encoding="UTF-8" standalone="no"?>
<!DOCTYPE svg PUBLIC "-//W3C//DTD SVG 1.1//EN" "http://www.w3.org/Graphics/SVG/1.1/DTD/svg11.dtd">
<svg width="100%" height="100%" viewBox="0 0 256 256" version="1.1" xmlns="http://www.w3.org/2000/svg" xmlns:xlink="http://www.w3.org/1999/xlink" xml:space="preserve" xmlns:serif="http://www.serif.com/" style="fill-rule:evenodd;clip-rule:evenodd;stroke-linecap:round;stroke-linejoin:round;stroke-miterlimit:2;">
    <g transform="matrix(1,0,0,1,-2.99999,-7.2495)">
        <g transform="matrix(1,0,0,1,-101,-162)">
            <path d="M260.601,267.682L260.601,302.47C260.601,310.366 254.206,316.773 246.298,316.773C243.346,316.773 240.586,315.874 238.306,314.326L237.826,314.229C238.558,312.514 238.954,310.629 238.954,308.649C238.954,303.43 236.158,298.87 231.994,296.374L231.994,267.682C231.994,259.773 238.402,253.377 246.298,253.377C250.258,253.377 253.834,254.974 256.414,257.565C259.006,260.146 260.601,263.722 260.601,267.682Z" style="fill:rgb(255,193,177);fill-rule:nonzero;"/>
        </g>
        <g transform="matrix(1,0,0,1,-101,-162)">
            <path d="M240.014,308.444C240.014,307.746 239.517,307.164 238.856,307.033C238.917,307.564 238.954,308.102 238.954,308.649C238.954,309.053 238.927,309.45 238.895,309.845C239.535,309.699 240.014,309.128 240.014,308.444Z" style="fill:white;fill-rule:nonzero;"/>
        </g>
        <g transform="matrix(1,0,0,1,-101,-162)">
            <path d="M242.174,303.404C241.378,303.404 240.733,304.049 240.733,304.844C240.733,305.639 241.378,306.284 242.174,306.284C242.969,306.284 243.614,305.639 243.614,304.844C243.614,304.049 242.969,303.404 242.174,303.404Z" style="fill:white;fill-rule:nonzero;"/>
        </g>
        <g transform="matrix(1,0,0,1,-101,-162)">
            <path d="M242.174,310.604C241.378,310.604 240.733,311.249 240.733,312.044C240.733,312.839 241.378,313.484 242.174,313.484C242.969,313.484 243.614,312.839 243.614,312.044C243.614,311.249 242.969,310.604 242.174,310.604Z" style="fill:white;fill-rule:nonzero;"/>
        </g>
        <g transform="matrix(1,0,0,1,-101,-162)">
            <path d="M238.574,314.204C238.411,314.204 238.257,314.237 238.112,314.287L238.306,314.326C238.833,314.684 239.389,315.003 239.964,315.288C239.805,314.666 239.246,314.204 238.574,314.204Z" style="fill:white;fill-rule:nonzero;"/>
        </g>
        <g transform="matrix(1,0,0,1,-101,-162)">
            <path d="M238.574,292.604C237.778,292.604 237.134,293.249 237.134,294.044C237.134,294.839 237.778,295.484 238.574,295.484C239.369,295.484 240.014,294.839 240.014,294.044C240.014,293.249 239.369,292.604 238.574,292.604Z" style="fill:white;fill-rule:nonzero;"/>
        </g>
        <g transform="matrix(1,0,0,1,-101,-162)">
            <path d="M232.813,294.044C232.813,293.472 232.478,292.982 231.994,292.75L231.994,295.338C232.478,295.106 232.813,294.616 232.813,294.044Z" style="fill:white;fill-rule:nonzero;"/>
        </g>
        <g transform="matrix(1,0,0,1,-101,-162)">
            <path d="M234.974,289.004C234.179,289.004 233.534,289.648 233.534,290.444C233.534,291.239 234.179,291.884 234.974,291.884C235.769,291.884 236.414,291.239 236.414,290.444C236.414,289.648 235.769,289.004 234.974,289.004Z" style="fill:white;fill-rule:nonzero;"/>
        </g>
        <g transform="matrix(1,0,0,1,-101,-162)">
            <path d="M242.174,289.004C241.378,289.004 240.733,289.648 240.733,290.444C240.733,291.239 241.378,291.884 242.174,291.884C242.969,291.884 243.614,291.239 243.614,290.444C243.614,289.648 242.969,289.004 242.174,289.004Z" style="fill:white;fill-rule:nonzero;"/>
        </g>
        <g transform="matrix(1,0,0,1,-101,-162)">
            <path d="M236.414,297.644C236.414,296.849 235.769,296.204 234.974,296.204C234.243,296.204 233.645,296.751 233.553,297.457C234.162,297.942 234.728,298.479 235.25,299.056C235.913,298.927 236.414,298.344 236.414,297.644Z" style="fill:white;fill-rule:nonzero;"/>
        </g>
        <g transform="matrix(1,0,0,1,-101,-162)">
            <path d="M242.174,296.204C241.378,296.204 240.733,296.849 240.733,297.644C240.733,298.439 241.378,299.084 242.174,299.084C242.969,299.084 243.614,298.439 243.614,297.644C243.614,296.849 242.969,296.204 242.174,296.204Z" style="fill:white;fill-rule:nonzero;"/>
        </g>
        <g transform="matrix(1,0,0,1,-101,-162)">
            <path d="M238.574,299.804C237.778,299.804 237.134,300.449 237.134,301.244C237.134,302.039 237.778,302.684 238.574,302.684C239.369,302.684 240.014,302.039 240.014,301.244C240.014,300.449 239.369,299.804 238.574,299.804Z" style="fill:white;fill-rule:nonzero;"/>
        </g>
        <g transform="matrix(1,0,0,1,-101,-162)">
            <path d="M238.574,278.204C237.778,278.204 237.134,278.849 237.134,279.644C237.134,280.439 237.778,281.084 238.574,281.084C239.369,281.084 240.014,280.439 240.014,279.644C240.014,278.849 239.369,278.204 238.574,278.204Z" style="fill:white;fill-rule:nonzero;"/>
        </g>
        <g transform="matrix(1,0,0,1,-101,-162)">
            <path d="M232.813,279.644C232.813,279.072 232.478,278.582 231.994,278.35L231.994,280.938C232.478,280.706 232.813,280.216 232.813,279.644Z" style="fill:white;fill-rule:nonzero;"/>
        </g>
        <g transform="matrix(1,0,0,1,-101,-162)">
            <path d="M234.974,274.604C234.179,274.604 233.534,275.249 233.534,276.044C233.534,276.839 234.179,277.484 234.974,277.484C235.769,277.484 236.414,276.839 236.414,276.044C236.414,275.249 235.769,274.604 234.974,274.604Z" style="fill:white;fill-rule:nonzero;"/>
        </g>
        <g transform="matrix(1,0,0,1,-101,-162)">
            <path d="M242.174,274.604C241.378,274.604 240.733,275.249 240.733,276.044C240.733,276.839 241.378,277.484 242.174,277.484C242.969,277.484 243.614,276.839 243.614,276.044C243.614,275.249 242.969,274.604 242.174,274.604Z" style="fill:white;fill-rule:nonzero;"/>
        </g>
        <g transform="matrix(1,0,0,1,-101,-162)">
            <path d="M234.974,281.804C234.179,281.804 233.534,282.449 233.534,283.244C233.534,284.039 234.179,284.684 234.974,284.684C235.769,284.684 236.414,284.039 236.414,283.244C236.414,282.449 235.769,281.804 234.974,281.804Z" style="fill:white;fill-rule:nonzero;"/>
        </g>
        <g transform="matrix(1,0,0,1,-101,-162)">
            <path d="M242.174,281.804C241.378,281.804 240.733,282.449 240.733,283.244C240.733,284.039 241.378,284.684 242.174,284.684C242.969,284.684 243.614,284.039 243.614,283.244C243.614,282.449 242.969,281.804 242.174,281.804Z" style="fill:white;fill-rule:nonzero;"/>
        </g>
        <g transform="matrix(1,0,0,1,-101,-162)">
            <path d="M238.574,285.404C237.778,285.404 237.134,286.049 237.134,286.844C237.134,287.639 237.778,288.284 238.574,288.284C239.369,288.284 240.014,287.639 240.014,286.844C240.014,286.049 239.369,285.404 238.574,285.404Z" style="fill:white;fill-rule:nonzero;"/>
        </g>
        <g transform="matrix(1,0,0,1,-101,-162)">
            <path d="M232.813,286.844C232.813,286.272 232.478,285.782 231.994,285.55L231.994,288.139C232.478,287.906 232.813,287.416 232.813,286.844Z" style="fill:white;fill-rule:nonzero;"/>
        </g>
        <g transform="matrix(1,0,0,1,-101,-162)">
            <path d="M238.574,263.804C237.778,263.804 237.134,264.449 237.134,265.244C237.134,266.039 237.778,266.684 238.574,266.684C239.369,266.684 240.014,266.039 240.014,265.244C240.014,264.449 239.369,263.804 238.574,263.804Z" style="fill:white;fill-rule:nonzero;"/>
        </g>
        <g transform="matrix(1,0,0,1,-101,-162)">
            <path d="M232.813,265.244C232.813,264.863 232.663,264.52 232.422,264.263C232.243,264.991 232.116,265.738 232.053,266.506C232.504,266.263 232.813,265.792 232.813,265.244Z" style="fill:white;fill-rule:nonzero;"/>
        </g>
        <g transform="matrix(1,0,0,1,-101,-162)">
            <path d="M234.974,260.204C234.179,260.204 233.534,260.849 233.534,261.644C233.534,262.439 234.179,263.084 234.974,263.084C235.769,263.084 236.414,262.439 236.414,261.644C236.414,260.849 235.769,260.204 234.974,260.204Z" style="fill:white;fill-rule:nonzero;"/>
        </g>
        <g transform="matrix(1,0,0,1,-101,-162)">
            <path d="M242.174,260.204C241.378,260.204 240.733,260.849 240.733,261.644C240.733,262.439 241.378,263.084 242.174,263.084C242.969,263.084 243.614,262.439 243.614,261.644C243.614,260.849 242.969,260.204 242.174,260.204Z" style="fill:white;fill-rule:nonzero;"/>
        </g>
        <g transform="matrix(1,0,0,1,-101,-162)">
            <path d="M234.974,267.404C234.179,267.404 233.534,268.049 233.534,268.844C233.534,269.639 234.179,270.284 234.974,270.284C235.769,270.284 236.414,269.639 236.414,268.844C236.414,268.049 235.769,267.404 234.974,267.404Z" style="fill:white;fill-rule:nonzero;"/>
        </g>
        <g transform="matrix(1,0,0,1,-101,-162)">
            <path d="M242.174,267.404C241.378,267.404 240.733,268.049 240.733,268.844C240.733,269.639 241.378,270.284 242.174,270.284C242.969,270.284 243.614,269.639 243.614,268.844C243.614,268.049 242.969,267.404 242.174,267.404Z" style="fill:white;fill-rule:nonzero;"/>
        </g>
        <g transform="matrix(1,0,0,1,-101,-162)">
            <path d="M238.574,271.004C237.778,271.004 237.134,271.648 237.134,272.444C237.134,273.239 237.778,273.884 238.574,273.884C239.369,273.884 240.014,273.239 240.014,272.444C240.014,271.648 239.369,271.004 238.574,271.004Z" style="fill:white;fill-rule:nonzero;"/>
        </g>
        <g transform="matrix(1,0,0,1,-101,-162)">
            <path d="M232.813,272.444C232.813,271.872 232.478,271.382 231.994,271.149L231.994,273.738C232.478,273.506 232.813,273.016 232.813,272.444Z" style="fill:white;fill-rule:nonzero;"/>
        </g>
        <g transform="matrix(1,0,0,1,-101,-162)">
            <path d="M242.174,255.884C242.969,255.884 243.614,255.239 243.614,254.444C243.614,254.161 243.529,253.898 243.388,253.675C242.47,253.865 241.583,254.142 240.739,254.498C240.768,255.268 241.397,255.884 242.174,255.884Z" style="fill:white;fill-rule:nonzero;"/>
        </g>
        <g transform="matrix(1,0,0,1,-101,-162)">
            <path d="M238.574,256.604C237.778,256.604 237.134,257.249 237.134,258.044C237.134,258.839 237.778,259.484 238.574,259.484C239.369,259.484 240.014,258.839 240.014,258.044C240.014,257.249 239.369,256.604 238.574,256.604Z" style="fill:white;fill-rule:nonzero;"/>
        </g>
        <g transform="matrix(1,0,0,1,-101,-162)">
            <path d="M252.974,307.004C252.179,307.004 251.534,307.648 251.534,308.444C251.534,309.239 252.179,309.884 252.974,309.884C253.769,309.884 254.414,309.239 254.414,308.444C254.414,307.648 253.769,307.004 252.974,307.004Z" style="fill:white;fill-rule:nonzero;"/>
        </g>
        <g transform="matrix(1,0,0,1,-101,-162)">
            <path d="M245.773,307.004C244.979,307.004 244.333,307.648 244.333,308.444C244.333,309.239 244.979,309.884 245.773,309.884C246.569,309.884 247.214,309.239 247.214,308.444C247.214,307.648 246.569,307.004 245.773,307.004Z" style="fill:white;fill-rule:nonzero;"/>
        </g>
        <g transform="matrix(1,0,0,1,-101,-162)">
            <path d="M249.374,303.404C248.579,303.404 247.934,304.049 247.934,304.844C247.934,305.639 248.579,306.284 249.374,306.284C250.169,306.284 250.813,305.639 250.813,304.844C250.813,304.049 250.169,303.404 249.374,303.404Z" style="fill:white;fill-rule:nonzero;"/>
        </g>
        <g transform="matrix(1,0,0,1,-101,-162)">
            <path d="M256.574,306.284C257.368,306.284 258.014,305.639 258.014,304.844C258.014,304.049 257.368,303.404 256.574,303.404C255.778,303.404 255.134,304.049 255.134,304.844C255.134,305.639 255.778,306.284 256.574,306.284Z" style="fill:white;fill-rule:nonzero;"/>
        </g>
        <g transform="matrix(1,0,0,1,-101,-162)">
            <path d="M249.374,310.604C248.579,310.604 247.934,311.249 247.934,312.044C247.934,312.839 248.579,313.484 249.374,313.484C250.169,313.484 250.813,312.839 250.813,312.044C250.813,311.249 250.169,310.604 249.374,310.604Z" style="fill:white;fill-rule:nonzero;"/>
        </g>
        <g transform="matrix(1,0,0,1,-101,-162)">
            <path d="M256.574,310.604C255.778,310.604 255.134,311.249 255.134,312.044C255.134,312.523 255.37,312.944 255.73,313.206C256.445,312.578 257.092,311.88 257.67,311.122C257.407,310.808 257.015,310.604 256.574,310.604Z" style="fill:white;fill-rule:nonzero;"/>
        </g>
        <g transform="matrix(1,0,0,1,-101,-162)">
            <path d="M251.534,315.644C251.534,315.686 251.542,315.726 251.546,315.767C252.378,315.438 253.169,315.034 253.916,314.563C253.663,314.342 253.336,314.204 252.974,314.204C252.179,314.204 251.534,314.849 251.534,315.644Z" style="fill:white;fill-rule:nonzero;"/>
        </g>
        <g transform="matrix(1,0,0,1,-101,-162)">
            <path d="M247.214,315.644C247.214,314.849 246.569,314.204 245.773,314.204C244.979,314.204 244.333,314.849 244.333,315.644C244.333,316.054 244.507,316.421 244.782,316.684C245.281,316.737 245.785,316.773 246.298,316.773C246.427,316.773 246.552,316.758 246.681,316.754C247.003,316.49 247.214,316.093 247.214,315.644Z" style="fill:white;fill-rule:nonzero;"/>
        </g>
        <g transform="matrix(1,0,0,1,-101,-162)">
            <path d="M252.974,292.604C252.179,292.604 251.534,293.249 251.534,294.044C251.534,294.839 252.179,295.484 252.974,295.484C253.769,295.484 254.414,294.839 254.414,294.044C254.414,293.249 253.769,292.604 252.974,292.604Z" style="fill:white;fill-rule:nonzero;"/>
        </g>
        <g transform="matrix(1,0,0,1,-101,-162)">
            <path d="M245.773,292.604C244.979,292.604 244.333,293.249 244.333,294.044C244.333,294.839 244.979,295.484 245.773,295.484C246.569,295.484 247.214,294.839 247.214,294.044C247.214,293.249 246.569,292.604 245.773,292.604Z" style="fill:white;fill-rule:nonzero;"/>
        </g>
        <g transform="matrix(1,0,0,1,-101,-162)">
            <path d="M249.374,289.004C248.579,289.004 247.934,289.648 247.934,290.444C247.934,291.239 248.579,291.884 249.374,291.884C250.169,291.884 250.813,291.239 250.813,290.444C250.813,289.648 250.169,289.004 249.374,289.004Z" style="fill:white;fill-rule:nonzero;"/>
        </g>
        <g transform="matrix(1,0,0,1,-101,-162)">
            <path d="M256.574,291.884C257.368,291.884 258.014,291.239 258.014,290.444C258.014,289.648 257.368,289.004 256.574,289.004C255.778,289.004 255.134,289.648 255.134,290.444C255.134,291.239 255.778,291.884 256.574,291.884Z" style="fill:white;fill-rule:nonzero;"/>
        </g>
        <g transform="matrix(1,0,0,1,-101,-162)">
            <path d="M249.374,296.204C248.579,296.204 247.934,296.849 247.934,297.644C247.934,298.439 248.579,299.084 249.374,299.084C250.169,299.084 250.813,298.439 250.813,297.644C250.813,296.849 250.169,296.204 249.374,296.204Z" style="fill:white;fill-rule:nonzero;"/>
        </g>
        <g transform="matrix(1,0,0,1,-101,-162)">
            <path d="M256.574,299.084C257.368,299.084 258.014,298.439 258.014,297.644C258.014,296.849 257.368,296.204 256.574,296.204C255.778,296.204 255.134,296.849 255.134,297.644C255.134,298.439 255.778,299.084 256.574,299.084Z" style="fill:white;fill-rule:nonzero;"/>
        </g>
        <g transform="matrix(1,0,0,1,-101,-162)">
            <path d="M252.974,299.804C252.179,299.804 251.534,300.449 251.534,301.244C251.534,302.039 252.179,302.684 252.974,302.684C253.769,302.684 254.414,302.039 254.414,301.244C254.414,300.449 253.769,299.804 252.974,299.804Z" style="fill:white;fill-rule:nonzero;"/>
        </g>
        <g transform="matrix(1,0,0,1,-101,-162)">
            <path d="M245.773,299.804C244.979,299.804 244.333,300.449 244.333,301.244C244.333,302.039 244.979,302.684 245.773,302.684C246.569,302.684 247.214,302.039 247.214,301.244C247.214,300.449 246.569,299.804 245.773,299.804Z" style="fill:white;fill-rule:nonzero;"/>
        </g>
        <g transform="matrix(1,0,0,1,-101,-162)">
            <path d="M252.974,278.204C252.179,278.204 251.534,278.849 251.534,279.644C251.534,280.439 252.179,281.084 252.974,281.084C253.769,281.084 254.414,280.439 254.414,279.644C254.414,278.849 253.769,278.204 252.974,278.204Z" style="fill:white;fill-rule:nonzero;"/>
        </g>
        <g transform="matrix(1,0,0,1,-101,-162)">
            <path d="M245.773,278.204C244.979,278.204 244.333,278.849 244.333,279.644C244.333,280.439 244.979,281.084 245.773,281.084C246.569,281.084 247.214,280.439 247.214,279.644C247.214,278.849 246.569,278.204 245.773,278.204Z" style="fill:white;fill-rule:nonzero;"/>
        </g>
        <g transform="matrix(1,0,0,1,-101,-162)">
            <path d="M249.374,274.604C248.579,274.604 247.934,275.249 247.934,276.044C247.934,276.839 248.579,277.484 249.374,277.484C250.169,277.484 250.813,276.839 250.813,276.044C250.813,275.249 250.169,274.604 249.374,274.604Z" style="fill:white;fill-rule:nonzero;"/>
        </g>
        <g transform="matrix(1,0,0,1,-101,-162)">
            <path d="M256.574,277.484C257.368,277.484 258.014,276.839 258.014,276.044C258.014,275.249 257.368,274.604 256.574,274.604C255.778,274.604 255.134,275.249 255.134,276.044C255.134,276.839 255.778,277.484 256.574,277.484Z" style="fill:white;fill-rule:nonzero;"/>
        </g>
        <g transform="matrix(1,0,0,1,-101,-162)">
            <path d="M249.374,281.804C248.579,281.804 247.934,282.449 247.934,283.244C247.934,284.039 248.579,284.684 249.374,284.684C250.169,284.684 250.813,284.039 250.813,283.244C250.813,282.449 250.169,281.804 249.374,281.804Z" style="fill:white;fill-rule:nonzero;"/>
        </g>
        <g transform="matrix(1,0,0,1,-101,-162)">
            <path d="M256.574,284.684C257.368,284.684 258.014,284.039 258.014,283.244C258.014,282.449 257.368,281.804 256.574,281.804C255.778,281.804 255.134,282.449 255.134,283.244C255.134,284.039 255.778,284.684 256.574,284.684Z" style="fill:white;fill-rule:nonzero;"/>
        </g>
        <g transform="matrix(1,0,0,1,-101,-162)">
            <path d="M252.974,285.404C252.179,285.404 251.534,286.049 251.534,286.844C251.534,287.639 252.179,288.284 252.974,288.284C253.769,288.284 254.414,287.639 254.414,286.844C254.414,286.049 253.769,285.404 252.974,285.404Z" style="fill:white;fill-rule:nonzero;"/>
        </g>
        <g transform="matrix(1,0,0,1,-101,-162)">
            <path d="M245.773,285.404C244.979,285.404 244.333,286.049 244.333,286.844C244.333,287.639 244.979,288.284 245.773,288.284C246.569,288.284 247.214,287.639 247.214,286.844C247.214,286.049 246.569,285.404 245.773,285.404Z" style="fill:white;fill-rule:nonzero;"/>
        </g>
        <g transform="matrix(1,0,0,1,-101,-162)">
            <path d="M252.974,263.804C252.179,263.804 251.534,264.449 251.534,265.244C251.534,266.039 252.179,266.684 252.974,266.684C253.769,266.684 254.414,266.039 254.414,265.244C254.414,264.449 253.769,263.804 252.974,263.804Z" style="fill:white;fill-rule:nonzero;"/>
        </g>
        <g transform="matrix(1,0,0,1,-101,-162)">
            <path d="M245.773,263.804C244.979,263.804 244.333,264.449 244.333,265.244C244.333,266.039 244.979,266.684 245.773,266.684C246.569,266.684 247.214,266.039 247.214,265.244C247.214,264.449 246.569,263.804 245.773,263.804Z" style="fill:white;fill-rule:nonzero;"/>
        </g>
        <g transform="matrix(1,0,0,1,-101,-162)">
            <path d="M249.374,260.204C248.579,260.204 247.934,260.849 247.934,261.644C247.934,262.439 248.579,263.084 249.374,263.084C250.169,263.084 250.813,262.439 250.813,261.644C250.813,260.849 250.169,260.204 249.374,260.204Z" style="fill:white;fill-rule:nonzero;"/>
        </g>
        <g transform="matrix(1,0,0,1,-101,-162)">
            <path d="M256.574,263.084C257.368,263.084 258.014,262.439 258.014,261.644C258.014,260.849 257.368,260.204 256.574,260.204C255.778,260.204 255.134,260.849 255.134,261.644C255.134,262.439 255.778,263.084 256.574,263.084Z" style="fill:white;fill-rule:nonzero;"/>
        </g>
        <g transform="matrix(1,0,0,1,-101,-162)">
            <path d="M249.374,267.404C248.579,267.404 247.934,268.049 247.934,268.844C247.934,269.639 248.579,270.284 249.374,270.284C250.169,270.284 250.813,269.639 250.813,268.844C250.813,268.049 250.169,267.404 249.374,267.404Z" style="fill:white;fill-rule:nonzero;"/>
        </g>
        <g transform="matrix(1,0,0,1,-101,-162)">
            <path d="M256.574,270.284C257.368,270.284 258.014,269.639 258.014,268.844C258.014,268.049 257.368,267.404 256.574,267.404C255.778,267.404 255.134,268.049 255.134,268.844C255.134,269.639 255.778,270.284 256.574,270.284Z" style="fill:white;fill-rule:nonzero;"/>
        </g>
        <g transform="matrix(1,0,0,1,-101,-162)">
            <path d="M252.974,271.004C252.179,271.004 251.534,271.648 251.534,272.444C251.534,273.239 252.179,273.884 252.974,273.884C253.769,273.884 254.414,273.239 254.414,272.444C254.414,271.648 253.769,271.004 252.974,271.004Z" style="fill:white;fill-rule:nonzero;"/>
        </g>
        <g transform="matrix(1,0,0,1,-101,-162)">
            <path d="M245.773,271.004C244.979,271.004 244.333,271.648 244.333,272.444C244.333,273.239 244.979,273.884 245.773,273.884C246.569,273.884 247.214,273.239 247.214,272.444C247.214,271.648 246.569,271.004 245.773,271.004Z" style="fill:white;fill-rule:nonzero;"/>
        </g>
        <g transform="matrix(1,0,0,1,-101,-162)">
            <path d="M249.374,255.884C250.169,255.884 250.813,255.239 250.813,254.444C250.813,254.323 250.794,254.207 250.766,254.095C249.964,253.832 249.129,253.646 248.271,253.528C248.063,253.778 247.934,254.094 247.934,254.444C247.934,255.239 248.579,255.884 249.374,255.884Z" style="fill:white;fill-rule:nonzero;"/>
        </g>
        <g transform="matrix(1,0,0,1,-101,-162)">
            <path d="M252.974,256.604C252.179,256.604 251.534,257.249 251.534,258.044C251.534,258.839 252.179,259.484 252.974,259.484C253.769,259.484 254.414,258.839 254.414,258.044C254.414,257.249 253.769,256.604 252.974,256.604Z" style="fill:white;fill-rule:nonzero;"/>
        </g>
        <g transform="matrix(1,0,0,1,-101,-162)">
            <path d="M245.773,256.604C244.979,256.604 244.333,257.249 244.333,258.044C244.333,258.839 244.979,259.484 245.773,259.484C246.569,259.484 247.214,258.839 247.214,258.044C247.214,257.249 246.569,256.604 245.773,256.604Z" style="fill:white;fill-rule:nonzero;"/>
        </g>
        <g transform="matrix(1,0,0,1,-101,-162)">
            <path d="M258.733,308.444C258.733,308.708 258.81,308.953 258.935,309.167C259.293,308.491 259.592,307.781 259.841,307.046C259.207,307.197 258.733,307.764 258.733,308.444Z" style="fill:white;fill-rule:nonzero;"/>
        </g>
        <g transform="matrix(1,0,0,1,-101,-162)">
            <path d="M258.733,294.044C258.733,294.839 259.377,295.484 260.174,295.484C260.324,295.484 260.466,295.455 260.601,295.412L260.601,292.676C260.466,292.634 260.324,292.604 260.174,292.604C259.377,292.604 258.733,293.249 258.733,294.044Z" style="fill:white;fill-rule:nonzero;"/>
        </g>
        <g transform="matrix(1,0,0,1,-101,-162)">
            <path d="M258.733,301.244C258.733,302.039 259.377,302.684 260.174,302.684C260.321,302.684 260.461,302.655 260.595,302.614C260.595,302.565 260.601,302.519 260.601,302.47L260.601,299.876C260.466,299.833 260.324,299.804 260.174,299.804C259.377,299.804 258.733,300.449 258.733,301.244Z" style="fill:white;fill-rule:nonzero;"/>
        </g>
        <g transform="matrix(1,0,0,1,-101,-162)">
            <path d="M258.733,279.644C258.733,280.439 259.377,281.084 260.174,281.084C260.324,281.084 260.466,281.055 260.601,281.012L260.601,278.276C260.466,278.233 260.324,278.204 260.174,278.204C259.377,278.204 258.733,278.849 258.733,279.644Z" style="fill:white;fill-rule:nonzero;"/>
        </g>
        <g transform="matrix(1,0,0,1,-101,-162)">
            <path d="M258.733,286.844C258.733,287.639 259.377,288.284 260.174,288.284C260.324,288.284 260.466,288.255 260.601,288.212L260.601,285.476C260.466,285.434 260.324,285.404 260.174,285.404C259.377,285.404 258.733,286.049 258.733,286.844Z" style="fill:white;fill-rule:nonzero;"/>
        </g>
        <g transform="matrix(1,0,0,1,-101,-162)">
            <path d="M258.733,265.244C258.733,266.039 259.377,266.684 260.174,266.684C260.305,266.684 260.428,266.661 260.549,266.628C260.479,265.66 260.314,264.72 260.062,263.815C259.32,263.874 258.733,264.487 258.733,265.244Z" style="fill:white;fill-rule:nonzero;"/>
        </g>
        <g transform="matrix(1,0,0,1,-101,-162)">
            <path d="M258.733,272.444C258.733,273.239 259.377,273.884 260.174,273.884C260.324,273.884 260.466,273.854 260.601,273.812L260.601,271.076C260.466,271.034 260.324,271.004 260.174,271.004C259.377,271.004 258.733,271.648 258.733,272.444Z" style="fill:white;fill-rule:nonzero;"/>
        </g>
        <g transform="matrix(1,0,0,1,-101,-162)">
            <path d="M231.994,267.682L231.994,296.374C229.846,295.089 227.338,294.346 224.65,294.346L203.398,294.346L203.398,267.682C203.398,259.773 209.794,253.377 217.702,253.377C221.65,253.377 225.226,254.974 227.806,257.565C230.398,260.146 231.994,263.722 231.994,267.682Z" style="fill:rgb(255,193,177);fill-rule:nonzero;"/>
        </g>
        <g transform="matrix(1,0,0,1,-101,-162)">
            <path d="M209.773,292.604C208.979,292.604 208.333,293.249 208.333,294.044C208.333,294.147 208.346,294.248 208.366,294.346L211.181,294.346C211.202,294.248 211.214,294.147 211.214,294.044C211.214,293.249 210.569,292.604 209.773,292.604Z" style="fill:white;fill-rule:nonzero;"/>
        </g>
        <g transform="matrix(1,0,0,1,-101,-162)">
            <path d="M203.398,292.866L203.398,294.346L203.981,294.346C204.001,294.248 204.014,294.147 204.014,294.044C204.014,293.556 203.77,293.126 203.398,292.866Z" style="fill:white;fill-rule:nonzero;"/>
        </g>
        <g transform="matrix(1,0,0,1,-101,-162)">
            <path d="M206.174,289.004C205.378,289.004 204.733,289.648 204.733,290.444C204.733,291.239 205.378,291.884 206.174,291.884C206.969,291.884 207.614,291.239 207.614,290.444C207.614,289.648 206.969,289.004 206.174,289.004Z" style="fill:white;fill-rule:nonzero;"/>
        </g>
        <g transform="matrix(1,0,0,1,-101,-162)">
            <path d="M213.374,289.004C212.579,289.004 211.934,289.648 211.934,290.444C211.934,291.239 212.579,291.884 213.374,291.884C214.169,291.884 214.813,291.239 214.813,290.444C214.813,289.648 214.169,289.004 213.374,289.004Z" style="fill:white;fill-rule:nonzero;"/>
        </g>
        <g transform="matrix(1,0,0,1,-101,-162)">
            <path d="M209.773,278.204C208.979,278.204 208.333,278.849 208.333,279.644C208.333,280.439 208.979,281.084 209.773,281.084C210.569,281.084 211.214,280.439 211.214,279.644C211.214,278.849 210.569,278.204 209.773,278.204Z" style="fill:white;fill-rule:nonzero;"/>
        </g>
        <g transform="matrix(1,0,0,1,-101,-162)">
            <path d="M204.014,279.644C204.014,279.156 203.77,278.726 203.398,278.466L203.398,280.822C203.77,280.562 204.014,280.132 204.014,279.644Z" style="fill:white;fill-rule:nonzero;"/>
        </g>
        <g transform="matrix(1,0,0,1,-101,-162)">
            <path d="M206.174,274.604C205.378,274.604 204.733,275.249 204.733,276.044C204.733,276.839 205.378,277.484 206.174,277.484C206.969,277.484 207.614,276.839 207.614,276.044C207.614,275.249 206.969,274.604 206.174,274.604Z" style="fill:white;fill-rule:nonzero;"/>
        </g>
        <g transform="matrix(1,0,0,1,-101,-162)">
            <path d="M213.374,274.604C212.579,274.604 211.934,275.249 211.934,276.044C211.934,276.839 212.579,277.484 213.374,277.484C214.169,277.484 214.813,276.839 214.813,276.044C214.813,275.249 214.169,274.604 213.374,274.604Z" style="fill:white;fill-rule:nonzero;"/>
        </g>
        <g transform="matrix(1,0,0,1,-101,-162)">
            <path d="M206.174,281.804C205.378,281.804 204.733,282.449 204.733,283.244C204.733,284.039 205.378,284.684 206.174,284.684C206.969,284.684 207.614,284.039 207.614,283.244C207.614,282.449 206.969,281.804 206.174,281.804Z" style="fill:white;fill-rule:nonzero;"/>
        </g>
        <g transform="matrix(1,0,0,1,-101,-162)">
            <path d="M213.374,281.804C212.579,281.804 211.934,282.449 211.934,283.244C211.934,284.039 212.579,284.684 213.374,284.684C214.169,284.684 214.813,284.039 214.813,283.244C214.813,282.449 214.169,281.804 213.374,281.804Z" style="fill:white;fill-rule:nonzero;"/>
        </g>
        <g transform="matrix(1,0,0,1,-101,-162)">
            <path d="M209.773,285.404C208.979,285.404 208.333,286.049 208.333,286.844C208.333,287.639 208.979,288.284 209.773,288.284C210.569,288.284 211.214,287.639 211.214,286.844C211.214,286.049 210.569,285.404 209.773,285.404Z" style="fill:white;fill-rule:nonzero;"/>
        </g>
        <g transform="matrix(1,0,0,1,-101,-162)">
            <path d="M204.014,286.844C204.014,286.356 203.77,285.926 203.398,285.666L203.398,288.022C203.77,287.762 204.014,287.332 204.014,286.844Z" style="fill:white;fill-rule:nonzero;"/>
        </g>
        <g transform="matrix(1,0,0,1,-101,-162)">
            <path d="M209.773,263.804C208.979,263.804 208.333,264.449 208.333,265.244C208.333,266.039 208.979,266.684 209.773,266.684C210.569,266.684 211.214,266.039 211.214,265.244C211.214,264.449 210.569,263.804 209.773,263.804Z" style="fill:white;fill-rule:nonzero;"/>
        </g>
        <g transform="matrix(1,0,0,1,-101,-162)">
            <path d="M204.014,265.244C204.014,264.952 203.925,264.681 203.776,264.455C203.632,265.078 203.523,265.715 203.464,266.367C203.796,266.104 204.014,265.701 204.014,265.244Z" style="fill:white;fill-rule:nonzero;"/>
        </g>
        <g transform="matrix(1,0,0,1,-101,-162)">
            <path d="M206.174,263.084C206.969,263.084 207.614,262.439 207.614,261.644C207.614,260.849 206.969,260.204 206.174,260.204C205.877,260.204 205.602,260.294 205.373,260.447C205.142,260.842 204.929,261.247 204.736,261.664C204.747,262.45 205.386,263.084 206.174,263.084Z" style="fill:white;fill-rule:nonzero;"/>
        </g>
        <g transform="matrix(1,0,0,1,-101,-162)">
            <path d="M213.374,260.204C212.579,260.204 211.934,260.849 211.934,261.644C211.934,262.439 212.579,263.084 213.374,263.084C214.169,263.084 214.813,262.439 214.813,261.644C214.813,260.849 214.169,260.204 213.374,260.204Z" style="fill:white;fill-rule:nonzero;"/>
        </g>
        <g transform="matrix(1,0,0,1,-101,-162)">
            <path d="M206.174,267.404C205.378,267.404 204.733,268.049 204.733,268.844C204.733,269.639 205.378,270.284 206.174,270.284C206.969,270.284 207.614,269.639 207.614,268.844C207.614,268.049 206.969,267.404 206.174,267.404Z" style="fill:white;fill-rule:nonzero;"/>
        </g>
        <g transform="matrix(1,0,0,1,-101,-162)">
            <path d="M213.374,267.404C212.579,267.404 211.934,268.049 211.934,268.844C211.934,269.639 212.579,270.284 213.374,270.284C214.169,270.284 214.813,269.639 214.813,268.844C214.813,268.049 214.169,267.404 213.374,267.404Z" style="fill:white;fill-rule:nonzero;"/>
        </g>
        <g transform="matrix(1,0,0,1,-101,-162)">
            <path d="M209.773,271.004C208.979,271.004 208.333,271.648 208.333,272.444C208.333,273.239 208.979,273.884 209.773,273.884C210.569,273.884 211.214,273.239 211.214,272.444C211.214,271.648 210.569,271.004 209.773,271.004Z" style="fill:white;fill-rule:nonzero;"/>
        </g>
        <g transform="matrix(1,0,0,1,-101,-162)">
            <path d="M204.014,272.444C204.014,271.956 203.77,271.526 203.398,271.266L203.398,273.622C203.77,273.362 204.014,272.932 204.014,272.444Z" style="fill:white;fill-rule:nonzero;"/>
        </g>
        <g transform="matrix(1,0,0,1,-101,-162)">
            <path d="M213.374,255.884C214.169,255.884 214.813,255.239 214.813,254.444C214.813,254.179 214.737,253.934 214.612,253.72C213.687,253.924 212.796,254.216 211.948,254.588C212.021,255.314 212.628,255.884 213.374,255.884Z" style="fill:white;fill-rule:nonzero;"/>
        </g>
        <g transform="matrix(1,0,0,1,-101,-162)">
            <path d="M209.773,256.604C208.979,256.604 208.333,257.249 208.333,258.044C208.333,258.839 208.979,259.484 209.773,259.484C210.569,259.484 211.214,258.839 211.214,258.044C211.214,257.249 210.569,256.604 209.773,256.604Z" style="fill:white;fill-rule:nonzero;"/>
        </g>
        <g transform="matrix(1,0,0,1,-101,-162)">
            <path d="M224.174,292.604C223.378,292.604 222.733,293.249 222.733,294.044C222.733,294.147 222.746,294.248 222.767,294.346L224.65,294.346C224.96,294.346 225.267,294.358 225.571,294.377C225.597,294.27 225.614,294.159 225.614,294.044C225.614,293.249 224.969,292.604 224.174,292.604Z" style="fill:white;fill-rule:nonzero;"/>
        </g>
        <g transform="matrix(1,0,0,1,-101,-162)">
            <path d="M216.974,292.604C216.179,292.604 215.534,293.249 215.534,294.044C215.534,294.147 215.545,294.248 215.566,294.346L218.381,294.346C218.402,294.248 218.414,294.147 218.414,294.044C218.414,293.249 217.769,292.604 216.974,292.604Z" style="fill:white;fill-rule:nonzero;"/>
        </g>
        <g transform="matrix(1,0,0,1,-101,-162)">
            <path d="M220.574,289.004C219.778,289.004 219.134,289.648 219.134,290.444C219.134,291.239 219.778,291.884 220.574,291.884C221.369,291.884 222.014,291.239 222.014,290.444C222.014,289.648 221.369,289.004 220.574,289.004Z" style="fill:white;fill-rule:nonzero;"/>
        </g>
        <g transform="matrix(1,0,0,1,-101,-162)">
            <path d="M227.773,289.004C226.979,289.004 226.333,289.648 226.333,290.444C226.333,291.239 226.979,291.884 227.773,291.884C228.569,291.884 229.214,291.239 229.214,290.444C229.214,289.648 228.569,289.004 227.773,289.004Z" style="fill:white;fill-rule:nonzero;"/>
        </g>
        <g transform="matrix(1,0,0,1,-101,-162)">
            <path d="M224.174,278.204C223.378,278.204 222.733,278.849 222.733,279.644C222.733,280.439 223.378,281.084 224.174,281.084C224.969,281.084 225.614,280.439 225.614,279.644C225.614,278.849 224.969,278.204 224.174,278.204Z" style="fill:white;fill-rule:nonzero;"/>
        </g>
        <g transform="matrix(1,0,0,1,-101,-162)">
            <path d="M216.974,278.204C216.179,278.204 215.534,278.849 215.534,279.644C215.534,280.439 216.179,281.084 216.974,281.084C217.769,281.084 218.414,280.439 218.414,279.644C218.414,278.849 217.769,278.204 216.974,278.204Z" style="fill:white;fill-rule:nonzero;"/>
        </g>
        <g transform="matrix(1,0,0,1,-101,-162)">
            <path d="M220.574,274.604C219.778,274.604 219.134,275.249 219.134,276.044C219.134,276.839 219.778,277.484 220.574,277.484C221.369,277.484 222.014,276.839 222.014,276.044C222.014,275.249 221.369,274.604 220.574,274.604Z" style="fill:white;fill-rule:nonzero;"/>
        </g>
        <g transform="matrix(1,0,0,1,-101,-162)">
            <path d="M227.773,274.604C226.979,274.604 226.333,275.249 226.333,276.044C226.333,276.839 226.979,277.484 227.773,277.484C228.569,277.484 229.214,276.839 229.214,276.044C229.214,275.249 228.569,274.604 227.773,274.604Z" style="fill:white;fill-rule:nonzero;"/>
        </g>
        <g transform="matrix(1,0,0,1,-101,-162)">
            <path d="M220.574,281.804C219.778,281.804 219.134,282.449 219.134,283.244C219.134,284.039 219.778,284.684 220.574,284.684C221.369,284.684 222.014,284.039 222.014,283.244C222.014,282.449 221.369,281.804 220.574,281.804Z" style="fill:white;fill-rule:nonzero;"/>
        </g>
        <g transform="matrix(1,0,0,1,-101,-162)">
            <path d="M227.773,281.804C226.979,281.804 226.333,282.449 226.333,283.244C226.333,284.039 226.979,284.684 227.773,284.684C228.569,284.684 229.214,284.039 229.214,283.244C229.214,282.449 228.569,281.804 227.773,281.804Z" style="fill:white;fill-rule:nonzero;"/>
        </g>
        <g transform="matrix(1,0,0,1,-101,-162)">
            <path d="M224.174,285.404C223.378,285.404 222.733,286.049 222.733,286.844C222.733,287.639 223.378,288.284 224.174,288.284C224.969,288.284 225.614,287.639 225.614,286.844C225.614,286.049 224.969,285.404 224.174,285.404Z" style="fill:white;fill-rule:nonzero;"/>
        </g>
        <g transform="matrix(1,0,0,1,-101,-162)">
            <path d="M216.974,285.404C216.179,285.404 215.534,286.049 215.534,286.844C215.534,287.639 216.179,288.284 216.974,288.284C217.769,288.284 218.414,287.639 218.414,286.844C218.414,286.049 217.769,285.404 216.974,285.404Z" style="fill:white;fill-rule:nonzero;"/>
        </g>
        <g transform="matrix(1,0,0,1,-101,-162)">
            <path d="M224.174,263.804C223.378,263.804 222.733,264.449 222.733,265.244C222.733,266.039 223.378,266.684 224.174,266.684C224.969,266.684 225.614,266.039 225.614,265.244C225.614,264.449 224.969,263.804 224.174,263.804Z" style="fill:white;fill-rule:nonzero;"/>
        </g>
        <g transform="matrix(1,0,0,1,-101,-162)">
            <path d="M216.974,263.804C216.179,263.804 215.534,264.449 215.534,265.244C215.534,266.039 216.179,266.684 216.974,266.684C217.769,266.684 218.414,266.039 218.414,265.244C218.414,264.449 217.769,263.804 216.974,263.804Z" style="fill:white;fill-rule:nonzero;"/>
        </g>
        <g transform="matrix(1,0,0,1,-101,-162)">
            <path d="M220.574,260.204C219.778,260.204 219.134,260.849 219.134,261.644C219.134,262.439 219.778,263.084 220.574,263.084C221.369,263.084 222.014,262.439 222.014,261.644C222.014,260.849 221.369,260.204 220.574,260.204Z" style="fill:white;fill-rule:nonzero;"/>
        </g>
        <g transform="matrix(1,0,0,1,-101,-162)">
            <path d="M227.773,260.204C226.979,260.204 226.333,260.849 226.333,261.644C226.333,262.439 226.979,263.084 227.773,263.084C228.569,263.084 229.214,262.439 229.214,261.644C229.214,260.849 228.569,260.204 227.773,260.204Z" style="fill:white;fill-rule:nonzero;"/>
        </g>
        <g transform="matrix(1,0,0,1,-101,-162)">
            <path d="M220.574,267.404C219.778,267.404 219.134,268.049 219.134,268.844C219.134,269.639 219.778,270.284 220.574,270.284C221.369,270.284 222.014,269.639 222.014,268.844C222.014,268.049 221.369,267.404 220.574,267.404Z" style="fill:white;fill-rule:nonzero;"/>
        </g>
        <g transform="matrix(1,0,0,1,-101,-162)">
            <path d="M227.773,267.404C226.979,267.404 226.333,268.049 226.333,268.844C226.333,269.639 226.979,270.284 227.773,270.284C228.569,270.284 229.214,269.639 229.214,268.844C229.214,268.049 228.569,267.404 227.773,267.404Z" style="fill:white;fill-rule:nonzero;"/>
        </g>
        <g transform="matrix(1,0,0,1,-101,-162)">
            <path d="M224.174,271.004C223.378,271.004 222.733,271.648 222.733,272.444C222.733,273.239 223.378,273.884 224.174,273.884C224.969,273.884 225.614,273.239 225.614,272.444C225.614,271.648 224.969,271.004 224.174,271.004Z" style="fill:white;fill-rule:nonzero;"/>
        </g>
        <g transform="matrix(1,0,0,1,-101,-162)">
            <path d="M216.974,271.004C216.179,271.004 215.534,271.648 215.534,272.444C215.534,273.239 216.179,273.884 216.974,273.884C217.769,273.884 218.414,273.239 218.414,272.444C218.414,271.648 217.769,271.004 216.974,271.004Z" style="fill:white;fill-rule:nonzero;"/>
        </g>
        <g transform="matrix(1,0,0,1,-101,-162)">
            <path d="M220.574,255.884C221.369,255.884 222.014,255.239 222.014,254.444C222.014,254.294 221.984,254.152 221.941,254.016C221.154,253.772 220.333,253.606 219.493,253.501C219.272,253.754 219.134,254.082 219.134,254.444C219.134,255.239 219.778,255.884 220.574,255.884Z" style="fill:white;fill-rule:nonzero;"/>
        </g>
        <g transform="matrix(1,0,0,1,-101,-162)">
            <path d="M224.174,256.604C223.378,256.604 222.733,257.249 222.733,258.044C222.733,258.839 223.378,259.484 224.174,259.484C224.969,259.484 225.614,258.839 225.614,258.044C225.614,257.249 224.969,256.604 224.174,256.604Z" style="fill:white;fill-rule:nonzero;"/>
        </g>
        <g transform="matrix(1,0,0,1,-101,-162)">
            <path d="M216.974,256.604C216.179,256.604 215.534,257.249 215.534,258.044C215.534,258.839 216.179,259.484 216.974,259.484C217.769,259.484 218.414,258.839 218.414,258.044C218.414,257.249 217.769,256.604 216.974,256.604Z" style="fill:white;fill-rule:nonzero;"/>
        </g>
        <g transform="matrix(1,0,0,1,-101,-162)">
            <path d="M229.934,294.044C229.934,294.839 230.579,295.484 231.374,295.484C231.597,295.484 231.806,295.429 231.994,295.338L231.994,292.75C231.806,292.659 231.597,292.604 231.374,292.604C230.579,292.604 229.934,293.249 229.934,294.044Z" style="fill:white;fill-rule:nonzero;"/>
        </g>
        <g transform="matrix(1,0,0,1,-101,-162)">
            <path d="M229.934,279.644C229.934,280.439 230.579,281.084 231.374,281.084C231.597,281.084 231.806,281.029 231.994,280.938L231.994,278.35C231.806,278.259 231.597,278.204 231.374,278.204C230.579,278.204 229.934,278.849 229.934,279.644Z" style="fill:white;fill-rule:nonzero;"/>
        </g>
        <g transform="matrix(1,0,0,1,-101,-162)">
            <path d="M229.934,286.844C229.934,287.639 230.579,288.284 231.374,288.284C231.597,288.284 231.806,288.229 231.994,288.139L231.994,285.55C231.806,285.459 231.597,285.404 231.374,285.404C230.579,285.404 229.934,286.049 229.934,286.844Z" style="fill:white;fill-rule:nonzero;"/>
        </g>
        <g transform="matrix(1,0,0,1,-101,-162)">
            <path d="M229.934,265.244C229.934,266.039 230.579,266.684 231.374,266.684C231.574,266.684 231.765,266.643 231.938,266.569C231.865,265.62 231.701,264.699 231.453,263.812C231.426,263.811 231.401,263.804 231.374,263.804C230.579,263.804 229.934,264.449 229.934,265.244Z" style="fill:white;fill-rule:nonzero;"/>
        </g>
        <g transform="matrix(1,0,0,1,-101,-162)">
            <path d="M229.934,272.444C229.934,273.239 230.579,273.884 231.374,273.884C231.597,273.884 231.806,273.829 231.994,273.738L231.994,271.149C231.806,271.059 231.597,271.004 231.374,271.004C230.579,271.004 229.934,271.648 229.934,272.444Z" style="fill:white;fill-rule:nonzero;"/>
        </g>
        <g transform="matrix(1,0,0,1,-101,-162)">
            <path d="M231.994,296.374C236.158,298.87 238.954,303.43 238.954,308.649C238.954,310.629 238.558,312.514 237.826,314.229L238.306,314.326C240.586,315.874 243.346,316.773 246.298,316.773C254.206,316.773 260.601,310.366 260.601,302.47L260.601,225.153C260.601,217.257 267.01,210.85 274.906,210.85C278.866,210.85 282.442,212.458 285.022,215.038C287.614,217.629 289.21,221.206 289.21,225.153L289.21,336.49C289.21,362.529 268.102,383.649 242.05,383.649L221.95,383.649C195.898,383.649 174.79,362.529 174.79,336.49L174.79,311.146C174.79,301.87 182.302,294.346 191.59,294.346L224.65,294.346C227.338,294.346 229.846,295.089 231.994,296.374Z" style="fill:white;fill-rule:nonzero;"/>
        </g>
        <g transform="matrix(1,0,0,1,-101,-162)">
            <path d="M203.398,225.153L203.398,294.346L191.59,294.346C182.302,294.346 174.79,301.87 174.79,311.146L174.79,225.153C174.79,217.257 181.186,210.85 189.094,210.85C193.042,210.85 196.618,212.458 199.21,215.038C201.802,217.629 203.398,221.206 203.398,225.153Z" style="fill:white;fill-rule:nonzero;"/>
        </g>
        <g transform="matrix(1,0,0,1,-101,-162)">
            <path d="M289.21,279.658L289.21,336.49C289.21,362.529 268.102,383.649 242.05,383.649L221.95,383.649C195.898,383.649 174.79,362.529 174.79,336.49L174.79,279.658" style="fill:none;stroke:rgb(38,38,38);stroke-width:4px;"/>
        </g>
        <g transform="matrix(1,0,0,1,-101,-162)">
            <path d="M174.79,279.658L174.79,225.153C174.79,217.257 181.186,210.85 189.094,210.85C193.042,210.85 196.618,212.458 199.21,215.038C201.802,217.629 203.398,221.206 203.398,225.153L203.398,267.682" style="fill:none;stroke:rgb(38,38,38);stroke-width:4px;"/>
        </g>
        <g transform="matrix(1,0,0,1,-101,-162)">
            <path d="M260.601,267.682L260.601,225.153C260.601,217.257 267.01,210.85 274.906,210.85C278.866,210.85 282.442,212.458 285.022,215.038C287.614,217.629 289.21,221.206 289.21,225.153L289.21,279.658" style="fill:none;stroke:rgb(38,38,38);stroke-width:4px;"/>
        </g>
        <g transform="matrix(1,0,0,1,-101,-162)">
            <path d="M203.398,294.346L203.398,267.682C203.398,259.773 209.794,253.377 217.702,253.377C221.65,253.377 225.226,254.974 227.806,257.565C230.398,260.146 231.994,263.722 231.994,267.682" style="fill:none;stroke:rgb(38,38,38);stroke-width:4px;"/>
        </g>
        <g transform="matrix(1,0,0,1,-101,-162)">
            <path d="M231.994,296.386L231.994,267.682C231.994,259.773 238.402,253.377 246.298,253.377C250.258,253.377 253.834,254.974 256.414,257.565C259.006,260.146 260.601,263.722 260.601,267.682L260.601,302.47C260.601,310.366 254.206,316.773 246.298,316.773C243.346,316.773 240.586,315.874 238.306,314.326" style="fill:none;stroke:rgb(38,38,38);stroke-width:4px;"/>
        </g>
        <g transform="matrix(1,0,0,1,-101,-162)">
            <path d="M174.79,311.146C174.79,301.87 182.302,294.346 191.59,294.346L224.65,294.346C227.338,294.346 229.846,295.089 231.994,296.374C236.158,298.87 238.954,303.43 238.954,308.649C238.954,310.629 238.558,312.514 237.826,314.229C237.106,315.934 236.062,317.481 234.766,318.766C232.186,321.357 228.61,322.954 224.65,322.954L202.39,322.954" style="fill:none;stroke:rgb(38,38,38);stroke-width:4px;"/>
        </g>
        <g transform="matrix(1,0,0,1,-101,-162)">
            <path d="M218.854,322.954C227.398,322.954 234.322,329.877 234.322,338.421L234.322,348.466" style="fill:none;stroke:rgb(38,38,38);stroke-width:4px;"/>
        </g>
    </g>
</svg>
