<?xml version="1.0" encoding="UTF-8" standalone="no"?>
<!DOCTYPE svg PUBLIC "-//W3C//DTD SVG 1.1//EN" "http://www.w3.org/Graphics/SVG/1.1/DTD/svg11.dtd">
<svg width="100%" height="100%" viewBox="0 0 256 256" version="1.1" xmlns="http://www.w3.org/2000/svg" xmlns:xlink="http://www.w3.org/1999/xlink" xml:space="preserve" xmlns:serif="http://www.serif.com/" style="fill-rule:evenodd;clip-rule:evenodd;stroke-linecap:round;stroke-linejoin:round;stroke-miterlimit:2;">
    <g transform="matrix(1,0,0,1,0,-169.249)">
        <g transform="matrix(1,0,0,1,-839.998,0)">
            <path d="M1011.2,367.941C1017.7,367.941 1022.98,362.661 1022.98,356.157C1022.98,349.653 1017.7,344.373 1011.2,344.373C1004.7,344.373 999.416,349.653 999.416,356.157C999.416,362.661 1004.7,367.941 1011.2,367.941ZM1004.32,329.529C1006.52,328.965 1008.82,328.666 1011.2,328.666C1026.38,328.666 1038.69,340.978 1038.69,356.157C1038.69,371.338 1026.38,383.649 1011.2,383.649C996.021,383.649 983.708,371.338 983.708,356.157C983.708,353.542 984.068,351.01 984.764,348.609C987.416,339.273 994.893,331.954 1004.32,329.529Z" style="fill:rgb(255,154,141);fill-rule:nonzero;"/>
        </g>
        <g transform="matrix(1,0,0,1,-839.998,0)">
            <path d="M924.8,367.941C931.304,367.941 936.584,362.661 936.584,356.157C936.584,349.653 931.304,344.373 924.8,344.373C918.296,344.373 913.016,349.653 913.016,356.157C913.016,362.661 918.296,367.941 924.8,367.941ZM932.36,329.722C940.364,332.001 946.868,337.821 950.096,345.369C951.512,348.682 952.292,352.329 952.292,356.157C952.292,371.338 939.98,383.649 924.8,383.649C909.62,383.649 897.308,371.338 897.308,356.157C897.308,340.978 909.62,328.666 924.8,328.666C927.428,328.666 929.96,329.038 932.36,329.722Z" style="fill:white;fill-rule:nonzero;"/>
        </g>
        <g transform="matrix(1,0,0,1,-839.998,0)">
            <path d="M987.422,369.629C987.363,369.629 987.313,369.654 987.258,369.662C987.613,370.29 987.986,370.906 988.389,371.502C988.524,371.308 988.622,371.084 988.622,370.829C988.622,370.166 988.085,369.629 987.422,369.629Z" style="fill:rgb(255,42,0);fill-rule:nonzero;"/>
        </g>
        <g transform="matrix(1,0,0,1,-839.998,0)">
            <path d="M990.422,366.629C989.76,366.629 989.222,367.166 989.222,367.829C989.222,368.491 989.76,369.029 990.422,369.029C991.085,369.029 991.622,368.491 991.622,367.829C991.622,367.166 991.085,366.629 990.422,366.629Z" style="fill:rgb(255,42,0);fill-rule:nonzero;"/>
        </g>
        <g transform="matrix(1,0,0,1,-839.998,0)">
            <path d="M991.622,373.829C991.622,373.166 991.085,372.629 990.422,372.629C990.059,372.629 989.744,372.799 989.523,373.054C990.004,373.669 990.507,374.264 991.036,374.835C991.38,374.624 991.622,374.262 991.622,373.829Z" style="fill:rgb(255,42,0);fill-rule:nonzero;"/>
        </g>
        <g transform="matrix(1,0,0,1,-839.998,0)">
            <path d="M987.422,357.629C986.76,357.629 986.222,358.166 986.222,358.829C986.222,359.491 986.76,360.028 987.422,360.028C988.085,360.028 988.622,359.491 988.622,358.829C988.622,358.166 988.085,357.629 987.422,357.629Z" style="fill:rgb(255,42,0);fill-rule:nonzero;"/>
        </g>
        <g transform="matrix(1,0,0,1,-839.998,0)">
            <path d="M985.622,355.829C985.622,355.166 985.085,354.629 984.422,354.629C984.163,354.629 983.937,354.729 983.74,354.867C983.721,355.295 983.708,355.725 983.708,356.157C983.708,356.366 983.719,356.571 983.724,356.778C983.923,356.926 984.156,357.029 984.422,357.029C985.085,357.029 985.622,356.491 985.622,355.829Z" style="fill:rgb(255,42,0);fill-rule:nonzero;"/>
        </g>
        <g transform="matrix(1,0,0,1,-839.998,0)">
            <path d="M990.422,354.629C989.76,354.629 989.222,355.166 989.222,355.829C989.222,356.491 989.76,357.029 990.422,357.029C991.085,357.029 991.622,356.491 991.622,355.829C991.622,355.166 991.085,354.629 990.422,354.629Z" style="fill:rgb(255,42,0);fill-rule:nonzero;"/>
        </g>
        <g transform="matrix(1,0,0,1,-839.998,0)">
            <path d="M985.622,361.829C985.622,361.166 985.085,360.629 984.422,360.629C984.304,360.629 984.196,360.664 984.088,360.696C984.218,361.475 984.374,362.244 984.567,362.999C985.158,362.925 985.622,362.439 985.622,361.829Z" style="fill:rgb(255,42,0);fill-rule:nonzero;"/>
        </g>
        <g transform="matrix(1,0,0,1,-839.998,0)">
            <path d="M990.422,360.629C989.76,360.629 989.222,361.166 989.222,361.829C989.222,362.491 989.76,363.028 990.422,363.028C991.085,363.028 991.622,362.491 991.622,361.829C991.622,361.166 991.085,360.629 990.422,360.629Z" style="fill:rgb(255,42,0);fill-rule:nonzero;"/>
        </g>
        <g transform="matrix(1,0,0,1,-839.998,0)">
            <path d="M987.422,363.629C986.76,363.629 986.222,364.166 986.222,364.829C986.222,365.491 986.76,366.029 987.422,366.029C988.085,366.029 988.622,365.491 988.622,364.829C988.622,364.166 988.085,363.629 987.422,363.629Z" style="fill:rgb(255,42,0);fill-rule:nonzero;"/>
        </g>
        <g transform="matrix(1,0,0,1,-839.998,0)">
            <path d="M987.422,345.629C986.76,345.629 986.222,346.166 986.222,346.829C986.222,347.491 986.76,348.028 987.422,348.028C988.085,348.028 988.622,347.491 988.622,346.829C988.622,346.166 988.085,345.629 987.422,345.629Z" style="fill:rgb(255,42,0);fill-rule:nonzero;"/>
        </g>
        <g transform="matrix(1,0,0,1,-839.998,0)">
            <path d="M990.422,342.629C989.76,342.629 989.222,343.166 989.222,343.829C989.222,344.491 989.76,345.029 990.422,345.029C991.085,345.029 991.622,344.491 991.622,343.829C991.622,343.166 991.085,342.629 990.422,342.629Z" style="fill:rgb(255,42,0);fill-rule:nonzero;"/>
        </g>
        <g transform="matrix(1,0,0,1,-839.998,0)">
            <path d="M985.622,349.829C985.622,349.279 985.246,348.836 984.742,348.693C984.531,349.445 984.349,350.208 984.201,350.984C984.275,350.998 984.344,351.028 984.422,351.028C985.085,351.028 985.622,350.491 985.622,349.829Z" style="fill:rgb(255,42,0);fill-rule:nonzero;"/>
        </g>
        <g transform="matrix(1,0,0,1,-839.998,0)">
            <path d="M990.422,348.629C989.76,348.629 989.222,349.166 989.222,349.829C989.222,350.491 989.76,351.028 990.422,351.028C991.085,351.028 991.622,350.491 991.622,349.829C991.622,349.166 991.085,348.629 990.422,348.629Z" style="fill:rgb(255,42,0);fill-rule:nonzero;"/>
        </g>
        <g transform="matrix(1,0,0,1,-839.998,0)">
            <path d="M987.422,351.629C986.76,351.629 986.222,352.166 986.222,352.829C986.222,353.491 986.76,354.029 987.422,354.029C988.085,354.029 988.622,353.491 988.622,352.829C988.622,352.166 988.085,351.629 987.422,351.629Z" style="fill:rgb(255,42,0);fill-rule:nonzero;"/>
        </g>
        <g transform="matrix(1,0,0,1,-839.998,0)">
            <path d="M991.622,337.829C991.622,337.562 991.518,337.328 991.371,337.129C990.838,337.684 990.326,338.259 989.841,338.857C990.016,338.957 990.207,339.028 990.422,339.028C991.085,339.028 991.622,338.491 991.622,337.829Z" style="fill:rgb(255,42,0);fill-rule:nonzero;"/>
        </g>
        <g transform="matrix(1,0,0,1,-839.998,0)">
            <path d="M988.622,340.829C988.622,340.732 988.589,340.647 988.567,340.559C988.245,341.024 987.936,341.498 987.643,341.984C988.195,341.878 988.622,341.413 988.622,340.829Z" style="fill:rgb(255,42,0);fill-rule:nonzero;"/>
        </g>
        <g transform="matrix(1,0,0,1,-839.998,0)">
            <path d="M996.422,378.629C996.156,378.629 995.924,378.732 995.725,378.878C996.326,379.288 996.946,379.671 997.58,380.033C997.593,379.965 997.622,379.901 997.622,379.829C997.622,379.166 997.085,378.629 996.422,378.629Z" style="fill:rgb(255,42,0);fill-rule:nonzero;"/>
        </g>
        <g transform="matrix(1,0,0,1,-839.998,0)">
            <path d="M1002.42,378.629C1001.76,378.629 1001.22,379.166 1001.22,379.829C1001.22,380.491 1001.76,381.029 1002.42,381.029C1003.08,381.029 1003.62,380.491 1003.62,379.829C1003.62,379.166 1003.08,378.629 1002.42,378.629Z" style="fill:rgb(255,42,0);fill-rule:nonzero;"/>
        </g>
        <g transform="matrix(1,0,0,1,-839.998,0)">
            <path d="M999.422,336.029C1000.08,336.029 1000.62,335.491 1000.62,334.829C1000.62,334.166 1000.08,333.629 999.422,333.629C998.76,333.629 998.222,334.166 998.222,334.829C998.222,335.491 998.76,336.029 999.422,336.029Z" style="fill:rgb(255,42,0);fill-rule:nonzero;"/>
        </g>
        <g transform="matrix(1,0,0,1,-839.998,0)">
            <path d="M994.622,334.829C994.622,334.647 994.575,334.479 994.503,334.325C993.896,334.79 993.305,335.276 992.739,335.789C992.936,335.929 993.163,336.029 993.422,336.029C994.085,336.029 994.622,335.491 994.622,334.829Z" style="fill:rgb(255,42,0);fill-rule:nonzero;"/>
        </g>
        <g transform="matrix(1,0,0,1,-839.998,0)">
            <path d="M997.51,332.322C997.123,332.545 996.742,332.777 996.366,333.018C996.386,333.019 996.402,333.029 996.422,333.029C996.907,333.029 997.321,332.737 997.51,332.322Z" style="fill:rgb(255,42,0);fill-rule:nonzero;"/>
        </g>
        <g transform="matrix(1,0,0,1,-839.998,0)">
            <path d="M1002.42,333.029C1003.08,333.029 1003.62,332.491 1003.62,331.829C1003.62,331.166 1003.08,330.629 1002.42,330.629C1001.76,330.629 1001.22,331.166 1001.22,331.829C1001.22,332.491 1001.76,333.029 1002.42,333.029Z" style="fill:rgb(255,42,0);fill-rule:nonzero;"/>
        </g>
        <g transform="matrix(1,0,0,1,-839.998,0)">
            <path d="M996.422,336.629C995.76,336.629 995.222,337.166 995.222,337.829C995.222,338.491 995.76,339.028 996.422,339.028C997.085,339.028 997.622,338.491 997.622,337.829C997.622,337.166 997.085,336.629 996.422,336.629Z" style="fill:rgb(255,42,0);fill-rule:nonzero;"/>
        </g>
        <g transform="matrix(1,0,0,1,-839.998,0)">
            <path d="M1002.42,339.028C1003.08,339.028 1003.62,338.491 1003.62,337.829C1003.62,337.166 1003.08,336.629 1002.42,336.629C1001.76,336.629 1001.22,337.166 1001.22,337.829C1001.22,338.491 1001.76,339.028 1002.42,339.028Z" style="fill:rgb(255,42,0);fill-rule:nonzero;"/>
        </g>
        <g transform="matrix(1,0,0,1,-839.998,0)">
            <path d="M1011.42,381.629C1010.76,381.629 1010.22,382.166 1010.22,382.829C1010.22,383.141 1010.35,383.42 1010.54,383.633C1010.76,383.638 1010.98,383.649 1011.2,383.649C1011.57,383.649 1011.94,383.636 1012.31,383.621C1012.5,383.409 1012.62,383.136 1012.62,382.829C1012.62,382.166 1012.08,381.629 1011.42,381.629Z" style="fill:rgb(255,42,0);fill-rule:nonzero;"/>
        </g>
        <g transform="matrix(1,0,0,1,-839.998,0)">
            <path d="M1005.42,381.629C1004.79,381.629 1004.28,382.13 1004.24,382.757C1004.99,382.954 1005.76,383.114 1006.54,383.247C1006.59,383.116 1006.62,382.978 1006.62,382.829C1006.62,382.166 1006.08,381.629 1005.42,381.629Z" style="fill:rgb(255,42,0);fill-rule:nonzero;"/>
        </g>
        <g transform="matrix(1,0,0,1,-839.998,0)">
            <path d="M1008.42,378.629C1007.76,378.629 1007.22,379.166 1007.22,379.829C1007.22,380.491 1007.76,381.029 1008.42,381.029C1009.08,381.029 1009.62,380.491 1009.62,379.829C1009.62,379.166 1009.08,378.629 1008.42,378.629Z" style="fill:rgb(255,42,0);fill-rule:nonzero;"/>
        </g>
        <g transform="matrix(1,0,0,1,-839.998,0)">
            <path d="M1014.42,378.629C1013.76,378.629 1013.22,379.166 1013.22,379.829C1013.22,380.491 1013.76,381.029 1014.42,381.029C1015.08,381.029 1015.62,380.491 1015.62,379.829C1015.62,379.166 1015.08,378.629 1014.42,378.629Z" style="fill:rgb(255,42,0);fill-rule:nonzero;"/>
        </g>
        <g transform="matrix(1,0,0,1,-839.998,0)">
            <path d="M1011.42,336.029C1012.08,336.029 1012.62,335.491 1012.62,334.829C1012.62,334.166 1012.08,333.629 1011.42,333.629C1010.76,333.629 1010.22,334.166 1010.22,334.829C1010.22,335.491 1010.76,336.029 1011.42,336.029Z" style="fill:rgb(255,42,0);fill-rule:nonzero;"/>
        </g>
        <g transform="matrix(1,0,0,1,-839.998,0)">
            <path d="M1005.42,336.029C1006.08,336.029 1006.62,335.491 1006.62,334.829C1006.62,334.166 1006.08,333.629 1005.42,333.629C1004.76,333.629 1004.22,334.166 1004.22,334.829C1004.22,335.491 1004.76,336.029 1005.42,336.029Z" style="fill:rgb(255,42,0);fill-rule:nonzero;"/>
        </g>
        <g transform="matrix(1,0,0,1,-839.998,0)">
            <path d="M1008.42,333.029C1009.08,333.029 1009.62,332.491 1009.62,331.829C1009.62,331.166 1009.08,330.629 1008.42,330.629C1007.76,330.629 1007.22,331.166 1007.22,331.829C1007.22,332.491 1007.76,333.029 1008.42,333.029Z" style="fill:rgb(255,42,0);fill-rule:nonzero;"/>
        </g>
        <g transform="matrix(1,0,0,1,-839.998,0)">
            <path d="M1014.42,333.029C1015.08,333.029 1015.62,332.491 1015.62,331.829C1015.62,331.166 1015.08,330.629 1014.42,330.629C1013.76,330.629 1013.22,331.166 1013.22,331.829C1013.22,332.491 1013.76,333.029 1014.42,333.029Z" style="fill:rgb(255,42,0);fill-rule:nonzero;"/>
        </g>
        <g transform="matrix(1,0,0,1,-839.998,0)">
            <path d="M1008.42,339.028C1009.08,339.028 1009.62,338.491 1009.62,337.829C1009.62,337.166 1009.08,336.629 1008.42,336.629C1007.76,336.629 1007.22,337.166 1007.22,337.829C1007.22,338.491 1007.76,339.028 1008.42,339.028Z" style="fill:rgb(255,42,0);fill-rule:nonzero;"/>
        </g>
        <g transform="matrix(1,0,0,1,-839.998,0)">
            <path d="M1014.42,339.028C1015.08,339.028 1015.62,338.491 1015.62,337.829C1015.62,337.166 1015.08,336.629 1014.42,336.629C1013.76,336.629 1013.22,337.166 1013.22,337.829C1013.22,338.491 1013.76,339.028 1014.42,339.028Z" style="fill:rgb(255,42,0);fill-rule:nonzero;"/>
        </g>
        <g transform="matrix(1,0,0,1,-839.998,0)">
            <path d="M1011.42,330.029C1012.08,330.029 1012.62,329.491 1012.62,328.829C1012.62,328.788 1012.6,328.754 1012.6,328.715C1012.13,328.691 1011.67,328.666 1011.2,328.666C1010.88,328.666 1010.57,328.679 1010.25,328.689C1010.24,328.737 1010.22,328.779 1010.22,328.829C1010.22,329.491 1010.76,330.029 1011.42,330.029Z" style="fill:rgb(255,42,0);fill-rule:nonzero;"/>
        </g>
        <g transform="matrix(1,0,0,1,-839.998,0)">
            <path d="M1005.42,330.029C1006,330.029 1006.46,329.608 1006.58,329.061C1005.86,329.182 1005.15,329.327 1004.46,329.502C1004.67,329.813 1005.01,330.029 1005.42,330.029Z" style="fill:rgb(255,42,0);fill-rule:nonzero;"/>
        </g>
        <g transform="matrix(1,0,0,1,-839.998,0)">
            <path d="M1017.42,381.629C1016.76,381.629 1016.22,382.166 1016.22,382.829C1016.22,382.95 1016.26,383.061 1016.29,383.171C1017.07,383.025 1017.83,382.848 1018.58,382.638C1018.49,382.069 1018.02,381.629 1017.42,381.629Z" style="fill:rgb(255,42,0);fill-rule:nonzero;"/>
        </g>
        <g transform="matrix(1,0,0,1,-839.998,0)">
            <path d="M1020.42,378.629C1019.76,378.629 1019.22,379.166 1019.22,379.829C1019.22,380.491 1019.76,381.029 1020.42,381.029C1021.08,381.029 1021.62,380.491 1021.62,379.829C1021.62,379.166 1021.08,378.629 1020.42,378.629Z" style="fill:rgb(255,42,0);fill-rule:nonzero;"/>
        </g>
        <g transform="matrix(1,0,0,1,-839.998,0)">
            <path d="M1025.23,379.799C1025.8,379.461 1026.35,379.102 1026.89,378.725C1026.75,378.663 1026.59,378.629 1026.42,378.629C1025.77,378.629 1025.25,379.15 1025.23,379.799Z" style="fill:rgb(255,42,0);fill-rule:nonzero;"/>
        </g>
        <g transform="matrix(1,0,0,1,-839.998,0)">
            <path d="M1023.42,333.629C1022.76,333.629 1022.22,334.166 1022.22,334.829C1022.22,335.491 1022.76,336.029 1023.42,336.029C1024.08,336.029 1024.62,335.491 1024.62,334.829C1024.62,334.166 1024.08,333.629 1023.42,333.629Z" style="fill:rgb(255,42,0);fill-rule:nonzero;"/>
        </g>
        <g transform="matrix(1,0,0,1,-839.998,0)">
            <path d="M1017.42,336.029C1018.08,336.029 1018.62,335.491 1018.62,334.829C1018.62,334.166 1018.08,333.629 1017.42,333.629C1016.76,333.629 1016.22,334.166 1016.22,334.829C1016.22,335.491 1016.76,336.029 1017.42,336.029Z" style="fill:rgb(255,42,0);fill-rule:nonzero;"/>
        </g>
        <g transform="matrix(1,0,0,1,-839.998,0)">
            <path d="M1020.42,333.029C1021.08,333.029 1021.62,332.491 1021.62,331.829C1021.62,331.166 1021.08,330.629 1020.42,330.629C1019.76,330.629 1019.22,331.166 1019.22,331.829C1019.22,332.491 1019.76,333.029 1020.42,333.029Z" style="fill:rgb(255,42,0);fill-rule:nonzero;"/>
        </g>
        <g transform="matrix(1,0,0,1,-839.998,0)">
            <path d="M1020.42,339.028C1021.08,339.028 1021.62,338.491 1021.62,337.829C1021.62,337.166 1021.08,336.629 1020.42,336.629C1019.76,336.629 1019.22,337.166 1019.22,337.829C1019.22,338.491 1019.76,339.028 1020.42,339.028Z" style="fill:rgb(255,42,0);fill-rule:nonzero;"/>
        </g>
        <g transform="matrix(1,0,0,1,-839.998,0)">
            <path d="M1026.42,336.629C1025.76,336.629 1025.22,337.166 1025.22,337.829C1025.22,338.491 1025.76,339.028 1026.42,339.028C1027.08,339.028 1027.62,338.491 1027.62,337.829C1027.62,337.166 1027.08,336.629 1026.42,336.629Z" style="fill:rgb(255,42,0);fill-rule:nonzero;"/>
        </g>
        <g transform="matrix(1,0,0,1,-839.998,0)">
            <path d="M1017.42,330.029C1017.78,330.029 1018.1,329.862 1018.32,329.611C1017.65,329.433 1016.97,329.282 1016.29,329.153C1016.43,329.654 1016.87,330.029 1017.42,330.029Z" style="fill:rgb(255,42,0);fill-rule:nonzero;"/>
        </g>
        <g transform="matrix(1,0,0,1,-839.998,0)">
            <path d="M1034.22,370.829C1034.22,370.922 1034.25,371.005 1034.28,371.092C1034.57,370.633 1034.86,370.165 1035.13,369.688C1034.61,369.822 1034.22,370.271 1034.22,370.829Z" style="fill:rgb(255,42,0);fill-rule:nonzero;"/>
        </g>
        <g transform="matrix(1,0,0,1,-839.998,0)">
            <path d="M1032.42,369.029C1033.08,369.029 1033.62,368.491 1033.62,367.829C1033.62,367.166 1033.08,366.629 1032.42,366.629C1031.76,366.629 1031.22,367.166 1031.22,367.829C1031.22,368.491 1031.76,369.029 1032.42,369.029Z" style="fill:rgb(255,42,0);fill-rule:nonzero;"/>
        </g>
        <g transform="matrix(1,0,0,1,-839.998,0)">
            <path d="M1031.22,373.829C1031.22,374.145 1031.35,374.427 1031.55,374.641C1032.08,374.062 1032.57,373.455 1033.05,372.832C1032.87,372.715 1032.66,372.629 1032.42,372.629C1031.76,372.629 1031.22,373.166 1031.22,373.829Z" style="fill:rgb(255,42,0);fill-rule:nonzero;"/>
        </g>
        <g transform="matrix(1,0,0,1,-839.998,0)">
            <path d="M1035.42,360.028C1036.08,360.028 1036.62,359.491 1036.62,358.829C1036.62,358.166 1036.08,357.629 1035.42,357.629C1034.76,357.629 1034.22,358.166 1034.22,358.829C1034.22,359.491 1034.76,360.028 1035.42,360.028Z" style="fill:rgb(255,42,0);fill-rule:nonzero;"/>
        </g>
        <g transform="matrix(1,0,0,1,-839.998,0)">
            <path d="M1032.42,357.029C1033.08,357.029 1033.62,356.491 1033.62,355.829C1033.62,355.166 1033.08,354.629 1032.42,354.629C1031.76,354.629 1031.22,355.166 1031.22,355.829C1031.22,356.491 1031.76,357.029 1032.42,357.029Z" style="fill:rgb(255,42,0);fill-rule:nonzero;"/>
        </g>
        <g transform="matrix(1,0,0,1,-839.998,0)">
            <path d="M1037.22,355.829C1037.22,356.491 1037.76,357.029 1038.42,357.029C1038.51,357.029 1038.59,356.997 1038.67,356.979C1038.68,356.705 1038.69,356.433 1038.69,356.157C1038.69,355.66 1038.68,355.166 1038.65,354.675C1038.57,354.66 1038.5,354.629 1038.42,354.629C1037.76,354.629 1037.22,355.166 1037.22,355.829Z" style="fill:rgb(255,42,0);fill-rule:nonzero;"/>
        </g>
        <g transform="matrix(1,0,0,1,-839.998,0)">
            <path d="M1032.42,363.028C1033.08,363.028 1033.62,362.491 1033.62,361.829C1033.62,361.166 1033.08,360.629 1032.42,360.629C1031.76,360.629 1031.22,361.166 1031.22,361.829C1031.22,362.491 1031.76,363.028 1032.42,363.028Z" style="fill:rgb(255,42,0);fill-rule:nonzero;"/>
        </g>
        <g transform="matrix(1,0,0,1,-839.998,0)">
            <path d="M1037.22,361.829C1037.22,362.285 1037.49,362.669 1037.86,362.872C1038.04,362.143 1038.2,361.4 1038.32,360.649C1037.71,360.703 1037.22,361.202 1037.22,361.829Z" style="fill:rgb(255,42,0);fill-rule:nonzero;"/>
        </g>
        <g transform="matrix(1,0,0,1,-839.998,0)">
            <path d="M1035.42,366.029C1036.08,366.029 1036.62,365.491 1036.62,364.829C1036.62,364.166 1036.08,363.629 1035.42,363.629C1034.76,363.629 1034.22,364.166 1034.22,364.829C1034.22,365.491 1034.76,366.029 1035.42,366.029Z" style="fill:rgb(255,42,0);fill-rule:nonzero;"/>
        </g>
        <g transform="matrix(1,0,0,1,-839.998,0)">
            <path d="M1035.42,348.028C1036.08,348.028 1036.62,347.491 1036.62,346.829C1036.62,346.166 1036.08,345.629 1035.42,345.629C1034.76,345.629 1034.22,346.166 1034.22,346.829C1034.22,347.491 1034.76,348.028 1035.42,348.028Z" style="fill:rgb(255,42,0);fill-rule:nonzero;"/>
        </g>
        <g transform="matrix(1,0,0,1,-839.998,0)">
            <path d="M1032.42,345.029C1033.08,345.029 1033.62,344.491 1033.62,343.829C1033.62,343.166 1033.08,342.629 1032.42,342.629C1031.76,342.629 1031.22,343.166 1031.22,343.829C1031.22,344.491 1031.76,345.029 1032.42,345.029Z" style="fill:rgb(255,42,0);fill-rule:nonzero;"/>
        </g>
        <g transform="matrix(1,0,0,1,-839.998,0)">
            <path d="M1032.42,351.028C1033.08,351.028 1033.62,350.491 1033.62,349.829C1033.62,349.166 1033.08,348.629 1032.42,348.629C1031.76,348.629 1031.22,349.166 1031.22,349.829C1031.22,350.491 1031.76,351.028 1032.42,351.028Z" style="fill:rgb(255,42,0);fill-rule:nonzero;"/>
        </g>
        <g transform="matrix(1,0,0,1,-839.998,0)">
            <path d="M1037.22,349.829C1037.22,350.412 1037.65,350.876 1038.2,350.983C1038.06,350.274 1037.9,349.574 1037.71,348.885C1037.42,349.104 1037.22,349.436 1037.22,349.829Z" style="fill:rgb(255,42,0);fill-rule:nonzero;"/>
        </g>
        <g transform="matrix(1,0,0,1,-839.998,0)">
            <path d="M1035.42,354.029C1036.08,354.029 1036.62,353.491 1036.62,352.829C1036.62,352.166 1036.08,351.629 1035.42,351.629C1034.76,351.629 1034.22,352.166 1034.22,352.829C1034.22,353.491 1034.76,354.029 1035.42,354.029Z" style="fill:rgb(255,42,0);fill-rule:nonzero;"/>
        </g>
        <g transform="matrix(1,0,0,1,-839.998,0)">
            <path d="M1029.42,336.029C1029.56,336.029 1029.7,335.993 1029.82,335.948C1029.32,335.483 1028.8,335.031 1028.27,334.605C1028.25,334.68 1028.22,334.75 1028.22,334.829C1028.22,335.491 1028.76,336.029 1029.42,336.029Z" style="fill:rgb(255,42,0);fill-rule:nonzero;"/>
        </g>
        <g transform="matrix(1,0,0,1,-839.998,0)">
            <path d="M1032.42,339.028C1032.51,339.028 1032.58,338.997 1032.66,338.98C1032.23,338.442 1031.77,337.923 1031.3,337.419C1031.26,337.548 1031.22,337.684 1031.22,337.829C1031.22,338.491 1031.76,339.028 1032.42,339.028Z" style="fill:rgb(255,42,0);fill-rule:nonzero;"/>
        </g>
        <g transform="matrix(1,0,0,1,-839.998,0)">
            <path d="M1034.31,341.265C1034.35,341.365 1034.41,341.45 1034.48,341.536C1034.42,341.445 1034.37,341.354 1034.31,341.265Z" style="fill:rgb(255,42,0);fill-rule:nonzero;"/>
        </g>
        <g transform="matrix(1,0,0,1,-839.998,0)">
            <path d="M999.422,369.629C998.76,369.629 998.222,370.166 998.222,370.829C998.222,371.491 998.76,372.028 999.422,372.028C1000.08,372.028 1000.62,371.491 1000.62,370.829C1000.62,370.166 1000.08,369.629 999.422,369.629Z" style="fill:rgb(255,42,0);fill-rule:nonzero;"/>
        </g>
        <g transform="matrix(1,0,0,1,-839.998,0)">
            <path d="M993.422,369.629C992.76,369.629 992.222,370.166 992.222,370.829C992.222,371.491 992.76,372.028 993.422,372.028C994.085,372.028 994.622,371.491 994.622,370.829C994.622,370.166 994.085,369.629 993.422,369.629Z" style="fill:rgb(255,42,0);fill-rule:nonzero;"/>
        </g>
        <g transform="matrix(1,0,0,1,-839.998,0)">
            <path d="M996.422,366.629C995.76,366.629 995.222,367.166 995.222,367.829C995.222,368.491 995.76,369.029 996.422,369.029C997.085,369.029 997.622,368.491 997.622,367.829C997.622,367.166 997.085,366.629 996.422,366.629Z" style="fill:rgb(255,42,0);fill-rule:nonzero;"/>
        </g>
        <g transform="matrix(1,0,0,1,-839.998,0)">
            <path d="M1002.42,366.629C1001.76,366.629 1001.22,367.166 1001.22,367.829C1001.22,368.491 1001.76,369.029 1002.42,369.029C1003.08,369.029 1003.62,368.491 1003.62,367.829C1003.62,367.166 1003.08,366.629 1002.42,366.629Z" style="fill:rgb(255,42,0);fill-rule:nonzero;"/>
        </g>
        <g transform="matrix(1,0,0,1,-839.998,0)">
            <path d="M996.422,372.629C995.76,372.629 995.222,373.166 995.222,373.829C995.222,374.491 995.76,375.028 996.422,375.028C997.085,375.028 997.622,374.491 997.622,373.829C997.622,373.166 997.085,372.629 996.422,372.629Z" style="fill:rgb(255,42,0);fill-rule:nonzero;"/>
        </g>
        <g transform="matrix(1,0,0,1,-839.998,0)">
            <path d="M1002.42,372.629C1001.76,372.629 1001.22,373.166 1001.22,373.829C1001.22,374.491 1001.76,375.028 1002.42,375.028C1003.08,375.028 1003.62,374.491 1003.62,373.829C1003.62,373.166 1003.08,372.629 1002.42,372.629Z" style="fill:rgb(255,42,0);fill-rule:nonzero;"/>
        </g>
        <g transform="matrix(1,0,0,1,-839.998,0)">
            <path d="M999.422,375.629C998.76,375.629 998.222,376.166 998.222,376.829C998.222,377.491 998.76,378.029 999.422,378.029C1000.08,378.029 1000.62,377.491 1000.62,376.829C1000.62,376.166 1000.08,375.629 999.422,375.629Z" style="fill:rgb(255,42,0);fill-rule:nonzero;"/>
        </g>
        <g transform="matrix(1,0,0,1,-839.998,0)">
            <path d="M994.622,376.829C994.622,376.166 994.085,375.629 993.422,375.629C992.987,375.629 992.624,375.872 992.413,376.218C992.98,376.749 993.57,377.256 994.181,377.737C994.444,377.518 994.622,377.199 994.622,376.829Z" style="fill:rgb(255,42,0);fill-rule:nonzero;"/>
        </g>
        <g transform="matrix(1,0,0,1,-839.998,0)">
            <path d="M999.422,357.629C998.76,357.629 998.222,358.166 998.222,358.829C998.222,359.491 998.76,360.028 999.422,360.028C999.643,360.028 999.838,359.953 1000.02,359.85C999.782,359.143 999.617,358.407 999.521,357.648C999.486,357.646 999.457,357.629 999.422,357.629Z" style="fill:rgb(255,42,0);fill-rule:nonzero;"/>
        </g>
        <g transform="matrix(1,0,0,1,-839.998,0)">
            <path d="M993.422,357.629C992.76,357.629 992.222,358.166 992.222,358.829C992.222,359.491 992.76,360.028 993.422,360.028C994.085,360.028 994.622,359.491 994.622,358.829C994.622,358.166 994.085,357.629 993.422,357.629Z" style="fill:rgb(255,42,0);fill-rule:nonzero;"/>
        </g>
        <g transform="matrix(1,0,0,1,-839.998,0)">
            <path d="M996.422,354.629C995.76,354.629 995.222,355.166 995.222,355.829C995.222,356.491 995.76,357.029 996.422,357.029C997.085,357.029 997.622,356.491 997.622,355.829C997.622,355.166 997.085,354.629 996.422,354.629Z" style="fill:rgb(255,42,0);fill-rule:nonzero;"/>
        </g>
        <g transform="matrix(1,0,0,1,-839.998,0)">
            <path d="M996.422,360.629C995.76,360.629 995.222,361.166 995.222,361.829C995.222,362.491 995.76,363.028 996.422,363.028C997.085,363.028 997.622,362.491 997.622,361.829C997.622,361.166 997.085,360.629 996.422,360.629Z" style="fill:rgb(255,42,0);fill-rule:nonzero;"/>
        </g>
        <g transform="matrix(1,0,0,1,-839.998,0)">
            <path d="M999.422,363.629C998.76,363.629 998.222,364.166 998.222,364.829C998.222,365.491 998.76,366.029 999.422,366.029C1000.08,366.029 1000.62,365.491 1000.62,364.829C1000.62,364.166 1000.08,363.629 999.422,363.629Z" style="fill:rgb(255,42,0);fill-rule:nonzero;"/>
        </g>
        <g transform="matrix(1,0,0,1,-839.998,0)">
            <path d="M993.422,363.629C992.76,363.629 992.222,364.166 992.222,364.829C992.222,365.491 992.76,366.029 993.422,366.029C994.085,366.029 994.622,365.491 994.622,364.829C994.622,364.166 994.085,363.629 993.422,363.629Z" style="fill:rgb(255,42,0);fill-rule:nonzero;"/>
        </g>
        <g transform="matrix(1,0,0,1,-839.998,0)">
            <path d="M999.422,342.029C1000.08,342.029 1000.62,341.491 1000.62,340.829C1000.62,340.166 1000.08,339.629 999.422,339.629C998.76,339.629 998.222,340.166 998.222,340.829C998.222,341.491 998.76,342.029 999.422,342.029Z" style="fill:rgb(255,42,0);fill-rule:nonzero;"/>
        </g>
        <g transform="matrix(1,0,0,1,-839.998,0)">
            <path d="M993.422,339.629C992.76,339.629 992.222,340.166 992.222,340.829C992.222,341.491 992.76,342.029 993.422,342.029C994.085,342.029 994.622,341.491 994.622,340.829C994.622,340.166 994.085,339.629 993.422,339.629Z" style="fill:rgb(255,42,0);fill-rule:nonzero;"/>
        </g>
        <g transform="matrix(1,0,0,1,-839.998,0)">
            <path d="M999.422,348.028C1000.08,348.028 1000.62,347.491 1000.62,346.829C1000.62,346.166 1000.08,345.629 999.422,345.629C998.76,345.629 998.222,346.166 998.222,346.829C998.222,347.491 998.76,348.028 999.422,348.028Z" style="fill:rgb(255,42,0);fill-rule:nonzero;"/>
        </g>
        <g transform="matrix(1,0,0,1,-839.998,0)">
            <path d="M993.422,345.629C992.76,345.629 992.222,346.166 992.222,346.829C992.222,347.491 992.76,348.028 993.422,348.028C994.085,348.028 994.622,347.491 994.622,346.829C994.622,346.166 994.085,345.629 993.422,345.629Z" style="fill:rgb(255,42,0);fill-rule:nonzero;"/>
        </g>
        <g transform="matrix(1,0,0,1,-839.998,0)">
            <path d="M996.422,342.629C995.76,342.629 995.222,343.166 995.222,343.829C995.222,344.491 995.76,345.029 996.422,345.029C997.085,345.029 997.622,344.491 997.622,343.829C997.622,343.166 997.085,342.629 996.422,342.629Z" style="fill:rgb(255,42,0);fill-rule:nonzero;"/>
        </g>
        <g transform="matrix(1,0,0,1,-839.998,0)">
            <path d="M1002.42,345.029C1003.08,345.029 1003.62,344.491 1003.62,343.829C1003.62,343.166 1003.08,342.629 1002.42,342.629C1001.76,342.629 1001.22,343.166 1001.22,343.829C1001.22,344.491 1001.76,345.029 1002.42,345.029Z" style="fill:rgb(255,42,0);fill-rule:nonzero;"/>
        </g>
        <g transform="matrix(1,0,0,1,-839.998,0)">
            <path d="M996.422,348.629C995.76,348.629 995.222,349.166 995.222,349.829C995.222,350.491 995.76,351.028 996.422,351.028C997.085,351.028 997.622,350.491 997.622,349.829C997.622,349.166 997.085,348.629 996.422,348.629Z" style="fill:rgb(255,42,0);fill-rule:nonzero;"/>
        </g>
        <g transform="matrix(1,0,0,1,-839.998,0)">
            <path d="M1001.22,349.829C1001.22,349.851 1001.23,349.869 1001.23,349.892C1001.5,349.478 1001.77,349.074 1002.08,348.697C1001.59,348.846 1001.22,349.286 1001.22,349.829Z" style="fill:rgb(255,42,0);fill-rule:nonzero;"/>
        </g>
        <g transform="matrix(1,0,0,1,-839.998,0)">
            <path d="M999.422,351.629C998.76,351.629 998.222,352.166 998.222,352.829C998.222,353.491 998.76,354.029 999.422,354.029C999.494,354.029 999.556,354 999.624,353.988C999.757,353.279 999.955,352.597 1000.21,351.938C999.997,351.752 999.727,351.629 999.422,351.629Z" style="fill:rgb(255,42,0);fill-rule:nonzero;"/>
        </g>
        <g transform="matrix(1,0,0,1,-839.998,0)">
            <path d="M993.422,351.629C992.76,351.629 992.222,352.166 992.222,352.829C992.222,353.491 992.76,354.029 993.422,354.029C994.085,354.029 994.622,353.491 994.622,352.829C994.622,352.166 994.085,351.629 993.422,351.629Z" style="fill:rgb(255,42,0);fill-rule:nonzero;"/>
        </g>
        <g transform="matrix(1,0,0,1,-839.998,0)">
            <path d="M1011.42,369.629C1010.76,369.629 1010.22,370.166 1010.22,370.829C1010.22,371.491 1010.76,372.028 1011.42,372.028C1012.08,372.028 1012.62,371.491 1012.62,370.829C1012.62,370.166 1012.08,369.629 1011.42,369.629Z" style="fill:rgb(255,42,0);fill-rule:nonzero;"/>
        </g>
        <g transform="matrix(1,0,0,1,-839.998,0)">
            <path d="M1005.42,369.629C1004.76,369.629 1004.22,370.166 1004.22,370.829C1004.22,371.491 1004.76,372.028 1005.42,372.028C1006.08,372.028 1006.62,371.491 1006.62,370.829C1006.62,370.166 1006.08,369.629 1005.42,369.629Z" style="fill:rgb(255,42,0);fill-rule:nonzero;"/>
        </g>
        <g transform="matrix(1,0,0,1,-839.998,0)">
            <path d="M1007.22,367.829C1007.22,368.491 1007.76,369.029 1008.42,369.029C1009.08,369.029 1009.62,368.491 1009.62,367.829L1009.62,367.823C1008.84,367.719 1008.09,367.539 1007.37,367.289C1007.28,367.453 1007.22,367.632 1007.22,367.829Z" style="fill:rgb(255,42,0);fill-rule:nonzero;"/>
        </g>
        <g transform="matrix(1,0,0,1,-839.998,0)">
            <path d="M1013.22,367.829C1013.22,368.491 1013.76,369.029 1014.42,369.029C1015.08,369.029 1015.62,368.491 1015.62,367.829C1015.62,367.575 1015.53,367.353 1015.39,367.159C1014.7,367.423 1013.98,367.623 1013.24,367.753C1013.24,367.779 1013.22,367.802 1013.22,367.829Z" style="fill:rgb(255,42,0);fill-rule:nonzero;"/>
        </g>
        <g transform="matrix(1,0,0,1,-839.998,0)">
            <path d="M1008.42,372.629C1007.76,372.629 1007.22,373.166 1007.22,373.829C1007.22,374.491 1007.76,375.028 1008.42,375.028C1009.08,375.028 1009.62,374.491 1009.62,373.829C1009.62,373.166 1009.08,372.629 1008.42,372.629Z" style="fill:rgb(255,42,0);fill-rule:nonzero;"/>
        </g>
        <g transform="matrix(1,0,0,1,-839.998,0)">
            <path d="M1014.42,372.629C1013.76,372.629 1013.22,373.166 1013.22,373.829C1013.22,374.491 1013.76,375.028 1014.42,375.028C1015.08,375.028 1015.62,374.491 1015.62,373.829C1015.62,373.166 1015.08,372.629 1014.42,372.629Z" style="fill:rgb(255,42,0);fill-rule:nonzero;"/>
        </g>
        <g transform="matrix(1,0,0,1,-839.998,0)">
            <path d="M1011.42,375.629C1010.76,375.629 1010.22,376.166 1010.22,376.829C1010.22,377.491 1010.76,378.029 1011.42,378.029C1012.08,378.029 1012.62,377.491 1012.62,376.829C1012.62,376.166 1012.08,375.629 1011.42,375.629Z" style="fill:rgb(255,42,0);fill-rule:nonzero;"/>
        </g>
        <g transform="matrix(1,0,0,1,-839.998,0)">
            <path d="M1005.42,375.629C1004.76,375.629 1004.22,376.166 1004.22,376.829C1004.22,377.491 1004.76,378.029 1005.42,378.029C1006.08,378.029 1006.62,377.491 1006.62,376.829C1006.62,376.166 1006.08,375.629 1005.42,375.629Z" style="fill:rgb(255,42,0);fill-rule:nonzero;"/>
        </g>
        <g transform="matrix(1,0,0,1,-839.998,0)">
            <path d="M1011.42,342.029C1012.08,342.029 1012.62,341.491 1012.62,340.829C1012.62,340.166 1012.08,339.629 1011.42,339.629C1010.76,339.629 1010.22,340.166 1010.22,340.829C1010.22,341.491 1010.76,342.029 1011.42,342.029Z" style="fill:rgb(255,42,0);fill-rule:nonzero;"/>
        </g>
        <g transform="matrix(1,0,0,1,-839.998,0)">
            <path d="M1005.42,342.029C1006.08,342.029 1006.62,341.491 1006.62,340.829C1006.62,340.166 1006.08,339.629 1005.42,339.629C1004.76,339.629 1004.22,340.166 1004.22,340.829C1004.22,341.491 1004.76,342.029 1005.42,342.029Z" style="fill:rgb(255,42,0);fill-rule:nonzero;"/>
        </g>
        <g transform="matrix(1,0,0,1,-839.998,0)">
            <path d="M1005.42,345.629C1004.82,345.629 1004.35,346.077 1004.26,346.653C1004.74,346.3 1005.25,345.979 1005.78,345.701C1005.67,345.664 1005.55,345.629 1005.42,345.629Z" style="fill:rgb(255,42,0);fill-rule:nonzero;"/>
        </g>
        <g transform="matrix(1,0,0,1,-839.998,0)">
            <path d="M1009.62,343.829C1009.62,343.166 1009.08,342.629 1008.42,342.629C1007.76,342.629 1007.22,343.166 1007.22,343.829C1007.22,344.28 1007.48,344.659 1007.85,344.864C1008.34,344.718 1008.85,344.611 1009.37,344.53C1009.52,344.33 1009.62,344.096 1009.62,343.829Z" style="fill:rgb(255,42,0);fill-rule:nonzero;"/>
        </g>
        <g transform="matrix(1,0,0,1,-839.998,0)">
            <path d="M1015.62,343.829C1015.62,343.166 1015.08,342.629 1014.42,342.629C1013.76,342.629 1013.22,343.166 1013.22,343.829C1013.22,344.129 1013.34,344.396 1013.53,344.605C1013.97,344.694 1014.4,344.811 1014.82,344.948C1015.29,344.781 1015.62,344.349 1015.62,343.829Z" style="fill:rgb(255,42,0);fill-rule:nonzero;"/>
        </g>
        <g transform="matrix(1,0,0,1,-839.998,0)">
            <path d="M1023.42,369.629C1022.76,369.629 1022.22,370.166 1022.22,370.829C1022.22,371.491 1022.76,372.028 1023.42,372.028C1024.08,372.028 1024.62,371.491 1024.62,370.829C1024.62,370.166 1024.08,369.629 1023.42,369.629Z" style="fill:rgb(255,42,0);fill-rule:nonzero;"/>
        </g>
        <g transform="matrix(1,0,0,1,-839.998,0)">
            <path d="M1017.42,369.629C1016.76,369.629 1016.22,370.166 1016.22,370.829C1016.22,371.491 1016.76,372.028 1017.42,372.028C1018.08,372.028 1018.62,371.491 1018.62,370.829C1018.62,370.166 1018.08,369.629 1017.42,369.629Z" style="fill:rgb(255,42,0);fill-rule:nonzero;"/>
        </g>
        <g transform="matrix(1,0,0,1,-839.998,0)">
            <path d="M1020.42,366.629C1019.76,366.629 1019.22,367.166 1019.22,367.829C1019.22,368.491 1019.76,369.029 1020.42,369.029C1021.08,369.029 1021.62,368.491 1021.62,367.829C1021.62,367.166 1021.08,366.629 1020.42,366.629Z" style="fill:rgb(255,42,0);fill-rule:nonzero;"/>
        </g>
        <g transform="matrix(1,0,0,1,-839.998,0)">
            <path d="M1026.42,366.629C1025.76,366.629 1025.22,367.166 1025.22,367.829C1025.22,368.491 1025.76,369.029 1026.42,369.029C1027.08,369.029 1027.62,368.491 1027.62,367.829C1027.62,367.166 1027.08,366.629 1026.42,366.629Z" style="fill:rgb(255,42,0);fill-rule:nonzero;"/>
        </g>
        <g transform="matrix(1,0,0,1,-839.998,0)">
            <path d="M1020.42,372.629C1019.76,372.629 1019.22,373.166 1019.22,373.829C1019.22,374.491 1019.76,375.028 1020.42,375.028C1021.08,375.028 1021.62,374.491 1021.62,373.829C1021.62,373.166 1021.08,372.629 1020.42,372.629Z" style="fill:rgb(255,42,0);fill-rule:nonzero;"/>
        </g>
        <g transform="matrix(1,0,0,1,-839.998,0)">
            <path d="M1026.42,372.629C1025.76,372.629 1025.22,373.166 1025.22,373.829C1025.22,374.491 1025.76,375.028 1026.42,375.028C1027.08,375.028 1027.62,374.491 1027.62,373.829C1027.62,373.166 1027.08,372.629 1026.42,372.629Z" style="fill:rgb(255,42,0);fill-rule:nonzero;"/>
        </g>
        <g transform="matrix(1,0,0,1,-839.998,0)">
            <path d="M1029.42,369.629C1028.76,369.629 1028.22,370.166 1028.22,370.829C1028.22,371.491 1028.76,372.028 1029.42,372.028C1030.08,372.028 1030.62,371.491 1030.62,370.829C1030.62,370.166 1030.08,369.629 1029.42,369.629Z" style="fill:rgb(255,42,0);fill-rule:nonzero;"/>
        </g>
        <g transform="matrix(1,0,0,1,-839.998,0)">
            <path d="M1023.42,375.629C1022.76,375.629 1022.22,376.166 1022.22,376.829C1022.22,377.491 1022.76,378.029 1023.42,378.029C1024.08,378.029 1024.62,377.491 1024.62,376.829C1024.62,376.166 1024.08,375.629 1023.42,375.629Z" style="fill:rgb(255,42,0);fill-rule:nonzero;"/>
        </g>
        <g transform="matrix(1,0,0,1,-839.998,0)">
            <path d="M1017.42,375.629C1016.76,375.629 1016.22,376.166 1016.22,376.829C1016.22,377.491 1016.76,378.029 1017.42,378.029C1018.08,378.029 1018.62,377.491 1018.62,376.829C1018.62,376.166 1018.08,375.629 1017.42,375.629Z" style="fill:rgb(255,42,0);fill-rule:nonzero;"/>
        </g>
        <g transform="matrix(1,0,0,1,-839.998,0)">
            <path d="M1028.22,376.829C1028.22,377.098 1028.33,377.334 1028.48,377.534C1029.09,377.038 1029.68,376.514 1030.25,375.967C1030.03,375.76 1029.74,375.629 1029.42,375.629C1028.76,375.629 1028.22,376.166 1028.22,376.829Z" style="fill:rgb(255,42,0);fill-rule:nonzero;"/>
        </g>
        <g transform="matrix(1,0,0,1,-839.998,0)">
            <path d="M1023.42,360.028C1024.08,360.028 1024.62,359.491 1024.62,358.829C1024.62,358.166 1024.08,357.629 1023.42,357.629C1023.21,357.629 1023.03,357.695 1022.86,357.788C1022.77,358.389 1022.65,358.977 1022.48,359.544C1022.7,359.831 1023.03,360.028 1023.42,360.028Z" style="fill:rgb(255,42,0);fill-rule:nonzero;"/>
        </g>
        <g transform="matrix(1,0,0,1,-839.998,0)">
            <path d="M1026.42,354.629C1025.76,354.629 1025.22,355.166 1025.22,355.829C1025.22,356.491 1025.76,357.029 1026.42,357.029C1027.08,357.029 1027.62,356.491 1027.62,355.829C1027.62,355.166 1027.08,354.629 1026.42,354.629Z" style="fill:rgb(255,42,0);fill-rule:nonzero;"/>
        </g>
        <g transform="matrix(1,0,0,1,-839.998,0)">
            <path d="M1021.62,361.829C1021.62,361.783 1021.6,361.744 1021.6,361.7C1021.36,362.135 1021.1,362.549 1020.82,362.949C1021.28,362.784 1021.62,362.352 1021.62,361.829Z" style="fill:rgb(255,42,0);fill-rule:nonzero;"/>
        </g>
        <g transform="matrix(1,0,0,1,-839.998,0)">
            <path d="M1026.42,360.629C1025.76,360.629 1025.22,361.166 1025.22,361.829C1025.22,362.491 1025.76,363.028 1026.42,363.028C1027.08,363.028 1027.62,362.491 1027.62,361.829C1027.62,361.166 1027.08,360.629 1026.42,360.629Z" style="fill:rgb(255,42,0);fill-rule:nonzero;"/>
        </g>
        <g transform="matrix(1,0,0,1,-839.998,0)">
            <path d="M1029.42,357.629C1028.76,357.629 1028.22,358.166 1028.22,358.829C1028.22,359.491 1028.76,360.028 1029.42,360.028C1030.08,360.028 1030.62,359.491 1030.62,358.829C1030.62,358.166 1030.08,357.629 1029.42,357.629Z" style="fill:rgb(255,42,0);fill-rule:nonzero;"/>
        </g>
        <g transform="matrix(1,0,0,1,-839.998,0)">
            <path d="M1023.42,363.629C1022.76,363.629 1022.22,364.166 1022.22,364.829C1022.22,365.491 1022.76,366.029 1023.42,366.029C1024.08,366.029 1024.62,365.491 1024.62,364.829C1024.62,364.166 1024.08,363.629 1023.42,363.629Z" style="fill:rgb(255,42,0);fill-rule:nonzero;"/>
        </g>
        <g transform="matrix(1,0,0,1,-839.998,0)">
            <path d="M1018.42,365.453C1018.19,365.632 1017.96,365.808 1017.72,365.969C1018.02,365.891 1018.26,365.708 1018.42,365.453Z" style="fill:rgb(255,42,0);fill-rule:nonzero;"/>
        </g>
        <g transform="matrix(1,0,0,1,-839.998,0)">
            <path d="M1029.42,363.629C1028.76,363.629 1028.22,364.166 1028.22,364.829C1028.22,365.491 1028.76,366.029 1029.42,366.029C1030.08,366.029 1030.62,365.491 1030.62,364.829C1030.62,364.166 1030.08,363.629 1029.42,363.629Z" style="fill:rgb(255,42,0);fill-rule:nonzero;"/>
        </g>
        <g transform="matrix(1,0,0,1,-839.998,0)">
            <path d="M1023.42,339.629C1022.76,339.629 1022.22,340.166 1022.22,340.829C1022.22,341.491 1022.76,342.029 1023.42,342.029C1024.08,342.029 1024.62,341.491 1024.62,340.829C1024.62,340.166 1024.08,339.629 1023.42,339.629Z" style="fill:rgb(255,42,0);fill-rule:nonzero;"/>
        </g>
        <g transform="matrix(1,0,0,1,-839.998,0)">
            <path d="M1017.42,342.029C1018.08,342.029 1018.62,341.491 1018.62,340.829C1018.62,340.166 1018.08,339.629 1017.42,339.629C1016.76,339.629 1016.22,340.166 1016.22,340.829C1016.22,341.491 1016.76,342.029 1017.42,342.029Z" style="fill:rgb(255,42,0);fill-rule:nonzero;"/>
        </g>
        <g transform="matrix(1,0,0,1,-839.998,0)">
            <path d="M1023.42,345.629C1022.76,345.629 1022.22,346.166 1022.22,346.829C1022.22,347.491 1022.76,348.028 1023.42,348.028C1024.08,348.028 1024.62,347.491 1024.62,346.829C1024.62,346.166 1024.08,345.629 1023.42,345.629Z" style="fill:rgb(255,42,0);fill-rule:nonzero;"/>
        </g>
        <g transform="matrix(1,0,0,1,-839.998,0)">
            <path d="M1018.62,346.829C1018.62,346.166 1018.08,345.629 1017.42,345.629C1017.2,345.629 1017.01,345.703 1016.83,345.807C1017.46,346.146 1018.04,346.545 1018.59,346.988C1018.6,346.934 1018.62,346.885 1018.62,346.829Z" style="fill:rgb(255,42,0);fill-rule:nonzero;"/>
        </g>
        <g transform="matrix(1,0,0,1,-839.998,0)">
            <path d="M1020.42,345.029C1021.08,345.029 1021.62,344.491 1021.62,343.829C1021.62,343.166 1021.08,342.629 1020.42,342.629C1019.76,342.629 1019.22,343.166 1019.22,343.829C1019.22,344.491 1019.76,345.029 1020.42,345.029Z" style="fill:rgb(255,42,0);fill-rule:nonzero;"/>
        </g>
        <g transform="matrix(1,0,0,1,-839.998,0)">
            <path d="M1026.42,342.629C1025.76,342.629 1025.22,343.166 1025.22,343.829C1025.22,344.491 1025.76,345.029 1026.42,345.029C1027.08,345.029 1027.62,344.491 1027.62,343.829C1027.62,343.166 1027.08,342.629 1026.42,342.629Z" style="fill:rgb(255,42,0);fill-rule:nonzero;"/>
        </g>
        <g transform="matrix(1,0,0,1,-839.998,0)">
            <path d="M1021.62,349.829C1021.62,349.166 1021.08,348.629 1020.42,348.629C1020.37,348.629 1020.33,348.65 1020.29,348.656C1020.73,349.194 1021.12,349.775 1021.47,350.387C1021.56,350.218 1021.62,350.034 1021.62,349.829Z" style="fill:rgb(255,42,0);fill-rule:nonzero;"/>
        </g>
        <g transform="matrix(1,0,0,1,-839.998,0)">
            <path d="M1026.42,348.629C1025.76,348.629 1025.22,349.166 1025.22,349.829C1025.22,350.491 1025.76,351.028 1026.42,351.028C1027.08,351.028 1027.62,350.491 1027.62,349.829C1027.62,349.166 1027.08,348.629 1026.42,348.629Z" style="fill:rgb(255,42,0);fill-rule:nonzero;"/>
        </g>
        <g transform="matrix(1,0,0,1,-839.998,0)">
            <path d="M1029.42,339.629C1028.76,339.629 1028.22,340.166 1028.22,340.829C1028.22,341.491 1028.76,342.029 1029.42,342.029C1030.08,342.029 1030.62,341.491 1030.62,340.829C1030.62,340.166 1030.08,339.629 1029.42,339.629Z" style="fill:rgb(255,42,0);fill-rule:nonzero;"/>
        </g>
        <g transform="matrix(1,0,0,1,-839.998,0)">
            <path d="M1029.42,345.629C1028.76,345.629 1028.22,346.166 1028.22,346.829C1028.22,347.491 1028.76,348.028 1029.42,348.028C1030.08,348.028 1030.62,347.491 1030.62,346.829C1030.62,346.166 1030.08,345.629 1029.42,345.629Z" style="fill:rgb(255,42,0);fill-rule:nonzero;"/>
        </g>
        <g transform="matrix(1,0,0,1,-839.998,0)">
            <path d="M1024.62,352.829C1024.62,352.166 1024.08,351.629 1023.42,351.629C1022.94,351.629 1022.53,351.919 1022.34,352.333C1022.5,352.809 1022.64,353.293 1022.75,353.794C1022.94,353.931 1023.17,354.029 1023.42,354.029C1024.08,354.029 1024.62,353.491 1024.62,352.829Z" style="fill:rgb(255,42,0);fill-rule:nonzero;"/>
        </g>
        <g transform="matrix(1,0,0,1,-839.998,0)">
            <path d="M1029.42,351.629C1028.76,351.629 1028.22,352.166 1028.22,352.829C1028.22,353.491 1028.76,354.029 1029.42,354.029C1030.08,354.029 1030.62,353.491 1030.62,352.829C1030.62,352.166 1030.08,351.629 1029.42,351.629Z" style="fill:rgb(255,42,0);fill-rule:nonzero;"/>
        </g>
        <g transform="matrix(1,0,0,1,-839.998,0)">
            <path d="M966.776,284.458L984.14,306.633L986.084,305.109L1018.56,267.37C1032.16,252.357 1034.77,229.054 1024.86,210.85L968,283.498L966.776,284.458ZM948.368,308.589L949.46,307.678L966.596,328.005L965.804,328.666L952.292,344.373L950.096,345.369C946.868,337.821 940.364,332.001 932.36,329.722L932.66,328.666L948.368,308.589Z" style="fill:rgb(255,154,141);fill-rule:nonzero;"/>
        </g>
        <g transform="matrix(1,0,0,1,-839.998,0)">
            <path d="M952.047,343.081C952.456,342.519 953.195,342.34 953.805,342.615L952.292,344.373L951.917,344.543C951.699,344.083 951.727,343.522 952.047,343.081Z" style="fill:rgb(255,42,0);fill-rule:nonzero;"/>
        </g>
        <g transform="matrix(1,0,0,1,-839.998,0)">
            <path d="M960.511,331.432C960.979,330.788 961.879,330.646 962.522,331.113C962.788,331.306 962.963,331.575 963.051,331.867L961.476,333.698C961.249,333.666 961.027,333.587 960.829,333.443C960.187,332.976 960.044,332.075 960.511,331.432Z" style="fill:rgb(255,42,0);fill-rule:nonzero;"/>
        </g>
        <g transform="matrix(1,0,0,1,-839.998,0)">
            <path d="M956.279,337.256C956.747,336.613 957.647,336.471 958.29,336.938C958.374,336.999 958.447,337.067 958.514,337.14L956.655,339.302C956.637,339.289 956.616,339.281 956.598,339.268C955.954,338.801 955.812,337.9 956.279,337.256Z" style="fill:rgb(255,42,0);fill-rule:nonzero;"/>
        </g>
        <g transform="matrix(1,0,0,1,-839.998,0)">
            <path d="M965.062,327.618C964.456,327.178 964.302,326.357 964.674,325.726L966.42,327.797C965.981,327.964 965.47,327.915 965.062,327.618Z" style="fill:rgb(255,42,0);fill-rule:nonzero;"/>
        </g>
        <g transform="matrix(1,0,0,1,-839.998,0)">
            <path d="M946.222,338.85C946.689,338.206 947.59,338.063 948.233,338.531C948.877,338.998 949.02,339.898 948.552,340.542C948.355,340.813 948.08,340.989 947.78,341.074C947.286,340.323 946.76,339.594 946.195,338.896C946.205,338.881 946.212,338.864 946.222,338.85Z" style="fill:rgb(255,42,0);fill-rule:nonzero;"/>
        </g>
        <g transform="matrix(1,0,0,1,-839.998,0)">
            <path d="M942.408,334.299C942.821,334.599 943.025,335.077 942.996,335.551C942.412,335.035 941.8,334.55 941.172,334.084C941.582,333.969 942.037,334.029 942.408,334.299Z" style="fill:rgb(255,42,0);fill-rule:nonzero;"/>
        </g>
        <g transform="matrix(1,0,0,1,-839.998,0)">
            <path d="M951.669,327.677C952.313,328.145 952.455,329.045 951.987,329.689C951.521,330.332 950.619,330.475 949.977,330.007C949.333,329.54 949.19,328.639 949.658,327.996C950.125,327.353 951.025,327.21 951.669,327.677Z" style="fill:rgb(255,42,0);fill-rule:nonzero;"/>
        </g>
        <g transform="matrix(1,0,0,1,-839.998,0)">
            <path d="M957.494,331.91C958.138,332.377 958.28,333.277 957.813,333.921C957.346,334.564 956.444,334.707 955.801,334.239C955.158,333.772 955.016,332.871 955.482,332.228C955.95,331.584 956.851,331.442 957.494,331.91Z" style="fill:rgb(255,42,0);fill-rule:nonzero;"/>
        </g>
        <g transform="matrix(1,0,0,1,-839.998,0)">
            <path d="M956.697,326.881C957.341,327.348 957.483,328.249 957.017,328.893C956.549,329.536 955.647,329.679 955.005,329.211C954.361,328.744 954.219,327.843 954.687,327.2C955.153,326.556 956.054,326.414 956.697,326.881Z" style="fill:rgb(255,42,0);fill-rule:nonzero;"/>
        </g>
        <g transform="matrix(1,0,0,1,-839.998,0)">
            <path d="M948.861,322.967C949.329,322.324 950.229,322.182 950.873,322.649C951.516,323.116 951.659,324.017 951.191,324.66C950.724,325.304 949.823,325.446 949.18,324.979C948.536,324.512 948.394,323.611 948.861,322.967Z" style="fill:rgb(255,42,0);fill-rule:nonzero;"/>
        </g>
        <g transform="matrix(1,0,0,1,-839.998,0)">
            <path d="M952.466,332.706C953.108,333.173 953.252,334.074 952.784,334.717C952.316,335.361 951.416,335.503 950.772,335.036C950.129,334.568 949.987,333.668 950.454,333.024C950.922,332.381 951.822,332.238 952.466,332.706Z" style="fill:rgb(255,42,0);fill-rule:nonzero;"/>
        </g>
        <g transform="matrix(1,0,0,1,-839.998,0)">
            <path d="M946.959,330.485C946.492,331.128 945.591,331.271 944.948,330.804C944.305,330.336 944.162,329.436 944.629,328.792C945.097,328.149 945.997,328.006 946.641,328.474C947.284,328.941 947.427,329.842 946.959,330.485Z" style="fill:rgb(255,42,0);fill-rule:nonzero;"/>
        </g>
        <g transform="matrix(1,0,0,1,-839.998,0)">
            <path d="M947.437,333.502C948.08,333.97 948.224,334.87 947.756,335.514C947.288,336.157 946.388,336.3 945.744,335.833C945.101,335.365 944.958,334.464 945.426,333.821C945.894,333.177 946.794,333.035 947.437,333.502Z" style="fill:rgb(255,42,0);fill-rule:nonzero;"/>
        </g>
        <g transform="matrix(1,0,0,1,-839.998,0)">
            <path d="M953.262,337.734C953.905,338.202 954.048,339.103 953.581,339.746C953.113,340.389 952.212,340.532 951.569,340.064C950.926,339.597 950.783,338.696 951.251,338.053C951.718,337.41 952.618,337.267 953.262,337.734Z" style="fill:rgb(255,42,0);fill-rule:nonzero;"/>
        </g>
        <g transform="matrix(1,0,0,1,-839.998,0)">
            <path d="M957.982,317.787L958.485,318.383C958.471,318.374 958.455,318.368 958.44,318.357C958.231,318.206 958.082,318.006 957.982,317.787Z" style="fill:rgb(255,42,0);fill-rule:nonzero;"/>
        </g>
        <g transform="matrix(1,0,0,1,-839.998,0)">
            <path d="M961.248,323.067C960.781,323.711 959.88,323.854 959.237,323.386C958.594,322.918 958.451,322.018 958.918,321.375C959.308,320.838 959.997,320.656 960.589,320.879L961.494,321.954C961.565,322.33 961.491,322.733 961.248,323.067Z" style="fill:rgb(255,42,0);fill-rule:nonzero;"/>
        </g>
        <g transform="matrix(1,0,0,1,-839.998,0)">
            <path d="M953.412,319.154C952.769,318.687 952.626,317.786 953.094,317.143C953.561,316.499 954.461,316.356 955.104,316.824C955.748,317.292 955.891,318.192 955.424,318.835C954.956,319.479 954.056,319.621 953.412,319.154Z" style="fill:rgb(255,42,0);fill-rule:nonzero;"/>
        </g>
        <g transform="matrix(1,0,0,1,-839.998,0)">
            <path d="M953.89,322.171C954.357,321.527 955.258,321.385 955.901,321.853C956.544,322.32 956.688,323.22 956.22,323.864C955.752,324.507 954.852,324.65 954.208,324.183C953.564,323.715 953.423,322.814 953.89,322.171Z" style="fill:rgb(255,42,0);fill-rule:nonzero;"/>
        </g>
        <g transform="matrix(1,0,0,1,-839.998,0)">
            <path d="M961.726,326.084C962.369,326.552 962.513,327.453 962.045,328.096C961.577,328.739 960.677,328.882 960.033,328.415C959.39,327.947 959.247,327.046 959.715,326.403C960.183,325.76 961.083,325.617 961.726,326.084Z" style="fill:rgb(255,42,0);fill-rule:nonzero;"/>
        </g>
        <g transform="matrix(1,0,0,1,-839.998,0)">
            <path d="M936.584,330.067C937.076,330.424 937.272,331.035 937.129,331.59C936.288,331.167 935.422,330.789 934.533,330.452C934.548,330.43 934.557,330.407 934.572,330.385C935.04,329.742 935.94,329.599 936.584,330.067Z" style="fill:rgb(255,42,0);fill-rule:nonzero;"/>
        </g>
        <g transform="matrix(1,0,0,1,-839.998,0)">
            <path d="M940.338,321.225C939.87,321.868 938.97,322.011 938.326,321.543C938.306,321.528 938.291,321.51 938.271,321.494L940.041,319.232C940.664,319.705 940.8,320.589 940.338,321.225Z" style="fill:rgb(255,42,0);fill-rule:nonzero;"/>
        </g>
        <g transform="matrix(1,0,0,1,-839.998,0)">
            <path d="M944.151,325.775C943.508,325.308 943.365,324.407 943.833,323.764C944.301,323.121 945.201,322.978 945.844,323.445C946.487,323.913 946.63,324.813 946.163,325.457C945.695,326.1 944.795,326.243 944.151,325.775Z" style="fill:rgb(255,42,0);fill-rule:nonzero;"/>
        </g>
        <g transform="matrix(1,0,0,1,-839.998,0)">
            <path d="M943.354,320.747C942.711,320.28 942.569,319.379 943.036,318.735C943.504,318.092 944.404,317.949 945.048,318.417C945.691,318.884 945.834,319.785 945.366,320.428C944.899,321.072 943.998,321.214 943.354,320.747Z" style="fill:rgb(255,42,0);fill-rule:nonzero;"/>
        </g>
        <g transform="matrix(1,0,0,1,-839.998,0)">
            <path d="M939.123,326.572C938.479,326.104 938.337,325.204 938.805,324.561C939.271,323.917 940.172,323.774 940.815,324.242C941.459,324.709 941.602,325.61 941.135,326.253C940.667,326.896 939.767,327.039 939.123,326.572Z" style="fill:rgb(255,42,0);fill-rule:nonzero;"/>
        </g>
        <g transform="matrix(1,0,0,1,-839.998,0)">
            <path d="M936.105,327.05C935.639,327.693 934.737,327.836 934.094,327.368C934.002,327.302 933.924,327.224 933.853,327.142L935.589,324.922C935.656,324.957 935.724,324.992 935.787,325.038C936.431,325.506 936.573,326.406 936.105,327.05Z" style="fill:rgb(255,42,0);fill-rule:nonzero;"/>
        </g>
        <g transform="matrix(1,0,0,1,-839.998,0)">
            <path d="M939.919,331.601C939.275,331.133 939.134,330.232 939.601,329.589C940.068,328.945 940.969,328.803 941.612,329.271C942.255,329.738 942.398,330.638 941.931,331.282C941.464,331.925 940.563,332.068 939.919,331.601Z" style="fill:rgb(255,42,0);fill-rule:nonzero;"/>
        </g>
        <g transform="matrix(1,0,0,1,-839.998,0)">
            <path d="M948.802,309.575C948.426,310.093 947.771,310.279 947.193,310.091L948.368,308.589L948.934,308.117C949.149,308.577 949.122,309.135 948.802,309.575Z" style="fill:rgb(255,42,0);fill-rule:nonzero;"/>
        </g>
        <g transform="matrix(1,0,0,1,-839.998,0)">
            <path d="M952.615,314.125C951.972,313.658 951.829,312.757 952.297,312.114C952.439,311.917 952.625,311.774 952.829,311.674L954.627,313.807C954.159,314.45 953.259,314.593 952.615,314.125Z" style="fill:rgb(255,42,0);fill-rule:nonzero;"/>
        </g>
        <g transform="matrix(1,0,0,1,-839.998,0)">
            <path d="M947.587,314.922C946.943,314.455 946.801,313.554 947.269,312.911C947.736,312.267 948.637,312.125 949.279,312.592C949.923,313.06 950.066,313.96 949.599,314.604C949.131,315.247 948.23,315.389 947.587,314.922Z" style="fill:rgb(255,42,0);fill-rule:nonzero;"/>
        </g>
        <g transform="matrix(1,0,0,1,-839.998,0)">
            <path d="M944.57,315.4C944.14,315.992 943.344,316.154 942.718,315.812L944.465,313.579C944.92,314.073 944.98,314.835 944.57,315.4Z" style="fill:rgb(255,42,0);fill-rule:nonzero;"/>
        </g>
        <g transform="matrix(1,0,0,1,-839.998,0)">
            <path d="M948.383,319.951C947.74,319.483 947.598,318.583 948.064,317.939C948.532,317.295 949.433,317.153 950.076,317.621C950.72,318.088 950.862,318.988 950.395,319.632C949.928,320.275 949.026,320.418 948.383,319.951Z" style="fill:rgb(255,42,0);fill-rule:nonzero;"/>
        </g>
        <g transform="matrix(1,0,0,1,-839.998,0)">
            <path d="M986.7,301.511C987.167,300.867 988.067,300.725 988.711,301.192C988.871,301.308 988.999,301.451 989.096,301.609L987.312,303.683C987.21,303.641 987.111,303.589 987.019,303.522C986.375,303.055 986.232,302.154 986.7,301.511Z" style="fill:rgb(255,42,0);fill-rule:nonzero;"/>
        </g>
        <g transform="matrix(1,0,0,1,-839.998,0)">
            <path d="M987.915,296.164C988.559,296.631 988.701,297.531 988.233,298.175C987.767,298.818 986.865,298.961 986.222,298.494C985.578,298.026 985.437,297.125 985.903,296.482C986.371,295.839 987.271,295.696 987.915,296.164Z" style="fill:rgb(255,42,0);fill-rule:nonzero;"/>
        </g>
        <g transform="matrix(1,0,0,1,-839.998,0)">
            <path d="M981.672,302.307C982.139,301.664 983.039,301.521 983.683,301.988C984.326,302.456 984.469,303.356 984.001,304C983.651,304.481 983.06,304.682 982.514,304.557L981.399,303.133C981.402,302.846 981.49,302.557 981.672,302.307Z" style="fill:rgb(255,42,0);fill-rule:nonzero;"/>
        </g>
        <g transform="matrix(1,0,0,1,-839.998,0)">
            <path d="M997.176,289.542C997.818,290.01 997.962,290.91 997.494,291.554C997.026,292.197 996.126,292.339 995.482,291.872C994.839,291.405 994.696,290.504 995.164,289.861C995.632,289.217 996.532,289.075 997.176,289.542Z" style="fill:rgb(255,42,0);fill-rule:nonzero;"/>
        </g>
        <g transform="matrix(1,0,0,1,-839.998,0)">
            <path d="M996.379,284.514C997.022,284.981 997.165,285.882 996.697,286.525C996.23,287.168 995.329,287.311 994.686,286.844C994.043,286.376 993.9,285.476 994.367,284.833C994.835,284.189 995.735,284.046 996.379,284.514Z" style="fill:rgb(255,42,0);fill-rule:nonzero;"/>
        </g>
        <g transform="matrix(1,0,0,1,-839.998,0)">
            <path d="M992.146,290.339C992.79,290.806 992.934,291.707 992.466,292.35C991.998,292.993 991.098,293.136 990.454,292.668C989.811,292.201 989.668,291.3 990.136,290.657C990.604,290.014 991.504,289.871 992.146,290.339Z" style="fill:rgb(255,42,0);fill-rule:nonzero;"/>
        </g>
        <g transform="matrix(1,0,0,1,-839.998,0)">
            <path d="M991.25,297.697C990.607,297.23 990.465,296.329 990.932,295.686C991.399,295.042 992.3,294.9 992.943,295.367C993.309,295.633 993.506,296.039 993.528,296.458L992.236,297.959C991.897,297.993 991.547,297.913 991.25,297.697Z" style="fill:rgb(255,42,0);fill-rule:nonzero;"/>
        </g>
        <g transform="matrix(1,0,0,1,-839.998,0)">
            <path d="M1005.64,277.893C1006.28,278.36 1006.43,279.26 1005.96,279.904C1005.49,280.547 1004.59,280.689 1003.95,280.222C1003.3,279.755 1003.16,278.854 1003.63,278.211C1004.1,277.567 1005,277.425 1005.64,277.893Z" style="fill:rgb(255,42,0);fill-rule:nonzero;"/>
        </g>
        <g transform="matrix(1,0,0,1,-839.998,0)">
            <path d="M1008.66,277.415C1009.05,276.875 1009.74,276.693 1010.34,276.922L1008.57,278.973C1008.3,278.496 1008.31,277.887 1008.66,277.415Z" style="fill:rgb(255,42,0);fill-rule:nonzero;"/>
        </g>
        <g transform="matrix(1,0,0,1,-839.998,0)">
            <path d="M1004.84,272.864C1005.49,273.331 1005.63,274.232 1005.16,274.875C1004.69,275.519 1003.79,275.661 1003.15,275.194C1002.51,274.727 1002.36,273.826 1002.83,273.183C1003.3,272.539 1004.2,272.396 1004.84,272.864Z" style="fill:rgb(255,42,0);fill-rule:nonzero;"/>
        </g>
        <g transform="matrix(1,0,0,1,-839.998,0)">
            <path d="M1004.42,283.239C1004.67,282.908 1005.02,282.712 1005.4,282.662L1004.16,284.107C1004.15,283.806 1004.23,283.501 1004.42,283.239Z" style="fill:rgb(255,42,0);fill-rule:nonzero;"/>
        </g>
        <g transform="matrix(1,0,0,1,-839.998,0)">
            <path d="M1000.61,278.689C1001.25,279.156 1001.4,280.057 1000.93,280.7C1000.46,281.343 999.562,281.486 998.918,281.019C998.274,280.551 998.133,279.651 998.6,279.007C999.067,278.364 999.968,278.221 1000.61,278.689Z" style="fill:rgb(255,42,0);fill-rule:nonzero;"/>
        </g>
        <g transform="matrix(1,0,0,1,-839.998,0)">
            <path d="M1001.41,283.717C1002.05,284.185 1002.19,285.085 1001.73,285.729C1001.26,286.372 1000.36,286.515 999.715,286.047C999.071,285.58 998.929,284.679 999.396,284.036C999.863,283.393 1000.76,283.25 1001.41,283.717Z" style="fill:rgb(255,42,0);fill-rule:nonzero;"/>
        </g>
        <g transform="matrix(1,0,0,1,-839.998,0)">
            <path d="M1014.1,266.243C1014.75,266.71 1014.89,267.61 1014.42,268.254C1013.96,268.897 1013.05,269.04 1012.41,268.572C1011.77,268.105 1011.63,267.205 1012.09,266.561C1012.56,265.917 1013.46,265.775 1014.1,266.243Z" style="fill:rgb(255,42,0);fill-rule:nonzero;"/>
        </g>
        <g transform="matrix(1,0,0,1,-839.998,0)">
            <path d="M1017.12,265.765C1017.59,265.121 1018.49,264.979 1019.13,265.446C1019.37,265.622 1019.55,265.86 1019.64,266.122C1019.29,266.543 1018.93,266.96 1018.56,267.37L1018,268.019C1017.8,267.979 1017.61,267.901 1017.44,267.776C1016.8,267.309 1016.65,266.408 1017.12,265.765Z" style="fill:rgb(255,42,0);fill-rule:nonzero;"/>
        </g>
        <g transform="matrix(1,0,0,1,-839.998,0)">
            <path d="M1013.31,261.214C1013.95,261.682 1014.09,262.582 1013.63,263.226C1013.16,263.869 1012.26,264.012 1011.61,263.544C1010.97,263.077 1010.83,262.176 1011.3,261.533C1011.76,260.889 1012.66,260.747 1013.31,261.214Z" style="fill:rgb(255,42,0);fill-rule:nonzero;"/>
        </g>
        <g transform="matrix(1,0,0,1,-839.998,0)">
            <path d="M1012.89,271.589C1013.36,270.946 1014.26,270.804 1014.9,271.271C1014.96,271.316 1015.02,271.369 1015.07,271.422L1013.2,273.595C1012.56,273.125 1012.42,272.23 1012.89,271.589Z" style="fill:rgb(255,42,0);fill-rule:nonzero;"/>
        </g>
        <g transform="matrix(1,0,0,1,-839.998,0)">
            <path d="M1009.08,267.039C1009.72,267.506 1009.86,268.407 1009.39,269.05C1008.93,269.694 1008.03,269.836 1007.38,269.369C1006.74,268.901 1006.6,268.001 1007.06,267.357C1007.53,266.714 1008.43,266.571 1009.08,267.039Z" style="fill:rgb(255,42,0);fill-rule:nonzero;"/>
        </g>
        <g transform="matrix(1,0,0,1,-839.998,0)">
            <path d="M1009.87,272.067C1010.51,272.535 1010.66,273.436 1010.19,274.079C1009.72,274.722 1008.82,274.865 1008.18,274.397C1007.54,273.93 1007.39,273.029 1007.86,272.386C1008.33,271.743 1009.23,271.6 1009.87,272.067Z" style="fill:rgb(255,42,0);fill-rule:nonzero;"/>
        </g>
        <g transform="matrix(1,0,0,1,-839.998,0)">
            <path d="M1022.57,254.593C1023.21,255.06 1023.35,255.96 1022.89,256.604C1022.42,257.248 1021.52,257.39 1020.88,256.922C1020.23,256.455 1020.09,255.555 1020.56,254.911C1021.02,254.268 1021.92,254.125 1022.57,254.593Z" style="fill:rgb(255,42,0);fill-rule:nonzero;"/>
        </g>
        <g transform="matrix(1,0,0,1,-839.998,0)">
            <path d="M1025.58,254.115C1025.95,253.606 1026.59,253.417 1027.16,253.588C1026.81,254.467 1026.43,255.336 1026.02,256.193C1025.98,256.17 1025.94,256.153 1025.9,256.126C1025.26,255.659 1025.12,254.758 1025.58,254.115Z" style="fill:rgb(255,42,0);fill-rule:nonzero;"/>
        </g>
        <g transform="matrix(1,0,0,1,-839.998,0)">
            <path d="M1021.77,249.564C1022.41,250.032 1022.56,250.932 1022.09,251.576C1021.62,252.219 1020.72,252.362 1020.08,251.895C1019.43,251.427 1019.29,250.526 1019.76,249.883C1020.23,249.239 1021.13,249.097 1021.77,249.564Z" style="fill:rgb(255,42,0);fill-rule:nonzero;"/>
        </g>
        <g transform="matrix(1,0,0,1,-839.998,0)">
            <path d="M1021.67,261.951C1021.03,261.483 1020.89,260.583 1021.35,259.94C1021.82,259.296 1022.72,259.154 1023.36,259.621C1023.59,259.783 1023.74,259.998 1023.84,260.234C1023.44,260.906 1023.01,261.567 1022.58,262.219C1022.26,262.231 1021.94,262.149 1021.67,261.951Z" style="fill:rgb(255,42,0);fill-rule:nonzero;"/>
        </g>
        <g transform="matrix(1,0,0,1,-839.998,0)">
            <path d="M1017.54,255.389C1018.18,255.856 1018.33,256.757 1017.86,257.4C1017.39,258.044 1016.49,258.187 1015.85,257.719C1015.2,257.251 1015.06,256.351 1015.53,255.708C1016,255.064 1016.9,254.922 1017.54,255.389Z" style="fill:rgb(255,42,0);fill-rule:nonzero;"/>
        </g>
        <g transform="matrix(1,0,0,1,-839.998,0)">
            <path d="M1018.34,260.417C1018.98,260.885 1019.12,261.786 1018.65,262.429C1018.19,263.072 1017.29,263.215 1016.64,262.748C1016,262.28 1015.86,261.379 1016.32,260.736C1016.79,260.093 1017.69,259.95 1018.34,260.417Z" style="fill:rgb(255,42,0);fill-rule:nonzero;"/>
        </g>
        <g transform="matrix(1,0,0,1,-839.998,0)">
            <path d="M1029.02,243.261C1029.3,242.87 1029.75,242.667 1030.2,242.671C1030.05,243.602 1029.88,244.528 1029.68,245.449C1029.56,245.404 1029.45,245.35 1029.34,245.273C1028.7,244.805 1028.55,243.905 1029.02,243.261Z" style="fill:rgb(255,42,0);fill-rule:nonzero;"/>
        </g>
        <g transform="matrix(1,0,0,1,-839.998,0)">
            <path d="M1028.54,240.245C1027.9,239.777 1027.76,238.876 1028.22,238.233C1028.69,237.589 1029.59,237.447 1030.24,237.915C1030.45,238.067 1030.6,238.268 1030.7,238.488C1030.66,238.963 1030.61,239.437 1030.56,239.911C1030.56,239.916 1030.56,239.921 1030.55,239.926C1030.09,240.569 1029.19,240.712 1028.54,240.245Z" style="fill:rgb(255,42,0);fill-rule:nonzero;"/>
        </g>
        <g transform="matrix(1,0,0,1,-839.998,0)">
            <path d="M1026,243.739C1026.65,244.207 1026.79,245.107 1026.32,245.75C1025.85,246.394 1024.95,246.537 1024.31,246.069C1023.67,245.602 1023.52,244.701 1023.99,244.058C1024.46,243.415 1025.36,243.272 1026,243.739Z" style="fill:rgb(255,42,0);fill-rule:nonzero;"/>
        </g>
        <g transform="matrix(1,0,0,1,-839.998,0)">
            <path d="M1026.8,248.768C1027.44,249.235 1027.59,250.136 1027.12,250.779C1026.65,251.422 1025.75,251.565 1025.11,251.098C1024.46,250.63 1024.32,249.729 1024.79,249.086C1025.26,248.443 1026.16,248.3 1026.8,248.768Z" style="fill:rgb(255,42,0);fill-rule:nonzero;"/>
        </g>
        <g transform="matrix(1,0,0,1,-839.998,0)">
            <path d="M977.062,292.728C977.705,293.195 977.848,294.096 977.38,294.739C976.913,295.383 976.012,295.525 975.369,295.058C974.726,294.59 974.583,293.69 975.05,293.046C975.518,292.403 976.418,292.261 977.062,292.728Z" style="fill:rgb(255,42,0);fill-rule:nonzero;"/>
        </g>
        <g transform="matrix(1,0,0,1,-839.998,0)">
            <path d="M982.887,296.96C983.529,297.427 983.673,298.328 983.205,298.971C982.737,299.615 981.837,299.757 981.193,299.29C980.55,298.822 980.407,297.922 980.875,297.279C981.343,296.635 982.243,296.493 982.887,296.96Z" style="fill:rgb(255,42,0);fill-rule:nonzero;"/>
        </g>
        <g transform="matrix(1,0,0,1,-839.998,0)">
            <path d="M982.09,291.932C982.733,292.399 982.876,293.299 982.408,293.943C981.941,294.586 981.04,294.729 980.397,294.262C979.754,293.794 979.611,292.894 980.079,292.25C980.546,291.606 981.446,291.464 982.09,291.932Z" style="fill:rgb(255,42,0);fill-rule:nonzero;"/>
        </g>
        <g transform="matrix(1,0,0,1,-839.998,0)">
            <path d="M976.584,289.711C976.116,290.354 975.216,290.497 974.572,290.03C973.929,289.562 973.786,288.661 974.254,288.018C974.722,287.375 975.622,287.232 976.265,287.7C976.908,288.167 977.051,289.067 976.584,289.711Z" style="fill:rgb(255,42,0);fill-rule:nonzero;"/>
        </g>
        <g transform="matrix(1,0,0,1,-839.998,0)">
            <path d="M977.857,297.756C978.355,298.118 978.55,298.738 978.397,299.299L976.979,297.487C977.283,297.48 977.592,297.563 977.857,297.756Z" style="fill:rgb(255,42,0);fill-rule:nonzero;"/>
        </g>
        <g transform="matrix(1,0,0,1,-839.998,0)">
            <path d="M985.844,283.089C985.377,283.733 984.476,283.875 983.833,283.408C983.189,282.94 983.047,282.04 983.515,281.396C983.981,280.753 984.882,280.611 985.525,281.078C986.169,281.545 986.312,282.446 985.844,283.089Z" style="fill:rgb(255,42,0);fill-rule:nonzero;"/>
        </g>
        <g transform="matrix(1,0,0,1,-839.998,0)">
            <path d="M991.351,285.31C991.994,285.777 992.137,286.678 991.669,287.322C991.202,287.965 990.301,288.107 989.658,287.64C989.015,287.172 988.872,286.272 989.339,285.629C989.807,284.985 990.707,284.843 991.351,285.31Z" style="fill:rgb(255,42,0);fill-rule:nonzero;"/>
        </g>
        <g transform="matrix(1,0,0,1,-839.998,0)">
            <path d="M988.543,280.6C989.011,279.957 989.911,279.814 990.554,280.282C991.197,280.749 991.34,281.649 990.873,282.293C990.405,282.937 989.504,283.079 988.861,282.612C988.218,282.145 988.075,281.244 988.543,280.6Z" style="fill:rgb(255,42,0);fill-rule:nonzero;"/>
        </g>
        <g transform="matrix(1,0,0,1,-839.998,0)">
            <path d="M983.036,278.38C982.393,277.912 982.25,277.011 982.718,276.368C983.186,275.725 984.086,275.582 984.729,276.05C985.372,276.517 985.516,277.417 985.048,278.061C984.58,278.704 983.68,278.847 983.036,278.38Z" style="fill:rgb(255,42,0);fill-rule:nonzero;"/>
        </g>
        <g transform="matrix(1,0,0,1,-839.998,0)">
            <path d="M986.322,286.106C986.965,286.574 987.108,287.475 986.641,288.118C986.173,288.761 985.272,288.904 984.629,288.437C983.986,287.969 983.844,287.068 984.311,286.425C984.778,285.782 985.679,285.639 986.322,286.106Z" style="fill:rgb(255,42,0);fill-rule:nonzero;"/>
        </g>
        <g transform="matrix(1,0,0,1,-839.998,0)">
            <path d="M978.805,284.205C978.161,283.737 978.019,282.836 978.485,282.193C978.953,281.55 979.854,281.407 980.497,281.875C981.141,282.342 981.283,283.243 980.815,283.886C980.349,284.529 979.447,284.672 978.805,284.205Z" style="fill:rgb(255,42,0);fill-rule:nonzero;"/>
        </g>
        <g transform="matrix(1,0,0,1,-839.998,0)">
            <path d="M981.612,288.915C981.145,289.558 980.244,289.701 979.601,289.233C978.957,288.766 978.814,287.865 979.282,287.222C979.75,286.578 980.65,286.436 981.294,286.903C981.937,287.371 982.08,288.271 981.612,288.915Z" style="fill:rgb(255,42,0);fill-rule:nonzero;"/>
        </g>
        <g transform="matrix(1,0,0,1,-839.998,0)">
            <path d="M987.118,291.135C987.762,291.603 987.904,292.503 987.438,293.146C986.97,293.79 986.068,293.933 985.426,293.465C984.782,292.998 984.64,292.097 985.107,291.454C985.574,290.81 986.475,290.667 987.118,291.135Z" style="fill:rgb(255,42,0);fill-rule:nonzero;"/>
        </g>
        <g transform="matrix(1,0,0,1,-839.998,0)">
            <path d="M994.309,271.439C993.841,272.083 992.94,272.226 992.297,271.758C991.653,271.291 991.511,270.39 991.979,269.747C992.446,269.104 993.347,268.961 993.989,269.428C994.633,269.896 994.775,270.796 994.309,271.439Z" style="fill:rgb(255,42,0);fill-rule:nonzero;"/>
        </g>
        <g transform="matrix(1,0,0,1,-839.998,0)">
            <path d="M997.804,273.979C998.271,273.335 999.171,273.193 999.814,273.66C1000.46,274.128 1000.6,275.028 1000.13,275.672C999.666,276.315 998.765,276.458 998.122,275.99C997.479,275.523 997.336,274.622 997.804,273.979Z" style="fill:rgb(255,42,0);fill-rule:nonzero;"/>
        </g>
        <g transform="matrix(1,0,0,1,-839.998,0)">
            <path d="M997.325,270.962C996.682,270.495 996.539,269.594 997.007,268.95C997.475,268.307 998.375,268.165 999.019,268.632C999.661,269.099 999.805,270 999.337,270.643C998.869,271.287 997.969,271.429 997.325,270.962Z" style="fill:rgb(255,42,0);fill-rule:nonzero;"/>
        </g>
        <g transform="matrix(1,0,0,1,-839.998,0)">
            <path d="M991.5,266.73C990.856,266.263 990.715,265.362 991.182,264.718C991.649,264.075 992.55,263.932 993.193,264.4C993.837,264.867 993.979,265.768 993.512,266.411C993.045,267.055 992.144,267.197 991.5,266.73Z" style="fill:rgb(255,42,0);fill-rule:nonzero;"/>
        </g>
        <g transform="matrix(1,0,0,1,-839.998,0)">
            <path d="M992.774,274.775C993.242,274.132 994.143,273.989 994.786,274.457C995.43,274.924 995.572,275.825 995.104,276.468C994.638,277.111 993.736,277.254 993.094,276.787C992.45,276.319 992.308,275.418 992.774,274.775Z" style="fill:rgb(255,42,0);fill-rule:nonzero;"/>
        </g>
        <g transform="matrix(1,0,0,1,-839.998,0)">
            <path d="M987.269,272.555C986.625,272.087 986.482,271.187 986.95,270.543C987.417,269.9 988.317,269.757 988.961,270.225C989.604,270.692 989.747,271.593 989.28,272.236C988.813,272.879 987.912,273.022 987.269,272.555Z" style="fill:rgb(255,42,0);fill-rule:nonzero;"/>
        </g>
        <g transform="matrix(1,0,0,1,-839.998,0)">
            <path d="M990.076,277.265C989.609,277.908 988.708,278.051 988.064,277.583C987.421,277.116 987.279,276.215 987.746,275.572C988.214,274.928 989.114,274.786 989.758,275.253C990.4,275.721 990.544,276.621 990.076,277.265Z" style="fill:rgb(255,42,0);fill-rule:nonzero;"/>
        </g>
        <g transform="matrix(1,0,0,1,-839.998,0)">
            <path d="M995.583,279.485C996.226,279.953 996.369,280.853 995.901,281.497C995.434,282.14 994.533,282.283 993.89,281.815C993.246,281.348 993.104,280.447 993.571,279.804C994.039,279.16 994.939,279.018 995.583,279.485Z" style="fill:rgb(255,42,0);fill-rule:nonzero;"/>
        </g>
        <g transform="matrix(1,0,0,1,-839.998,0)">
            <path d="M1002.77,259.79C1002.3,260.433 1001.4,260.576 1000.76,260.108C1000.12,259.641 999.975,258.74 1000.44,258.097C1000.91,257.454 1001.81,257.311 1002.45,257.778C1003.1,258.246 1003.24,259.146 1002.77,259.79Z" style="fill:rgb(255,42,0);fill-rule:nonzero;"/>
        </g>
        <g transform="matrix(1,0,0,1,-839.998,0)">
            <path d="M1006.27,262.329C1006.74,261.686 1007.64,261.543 1008.28,262.01C1008.92,262.478 1009.06,263.378 1008.6,264.022C1008.13,264.665 1007.23,264.808 1006.59,264.34C1005.94,263.873 1005.8,262.972 1006.27,262.329Z" style="fill:rgb(255,42,0);fill-rule:nonzero;"/>
        </g>
        <g transform="matrix(1,0,0,1,-839.998,0)">
            <path d="M1005.79,259.312C1005.15,258.845 1005,257.944 1005.47,257.301C1005.94,256.657 1006.84,256.515 1007.48,256.982C1008.13,257.449 1008.27,258.35 1007.8,258.993C1007.33,259.637 1006.43,259.779 1005.79,259.312Z" style="fill:rgb(255,42,0);fill-rule:nonzero;"/>
        </g>
        <g transform="matrix(1,0,0,1,-839.998,0)">
            <path d="M999.965,255.08C999.321,254.613 999.179,253.712 999.646,253.068C1000.11,252.425 1001.01,252.283 1001.66,252.75C1002.3,253.217 1002.44,254.118 1001.98,254.761C1001.51,255.405 1000.61,255.547 999.965,255.08Z" style="fill:rgb(255,42,0);fill-rule:nonzero;"/>
        </g>
        <g transform="matrix(1,0,0,1,-839.998,0)">
            <path d="M1001.56,265.137C1000.91,264.669 1000.77,263.769 1001.24,263.125C1001.71,262.482 1002.61,262.339 1003.25,262.807C1003.89,263.274 1004.04,264.175 1003.57,264.818C1003.1,265.461 1002.2,265.604 1001.56,265.137Z" style="fill:rgb(255,42,0);fill-rule:nonzero;"/>
        </g>
        <g transform="matrix(1,0,0,1,-839.998,0)">
            <path d="M995.732,260.905C995.089,260.438 994.946,259.537 995.414,258.894C995.882,258.25 996.782,258.107 997.425,258.575C998.068,259.042 998.212,259.943 997.744,260.586C997.276,261.229 996.376,261.372 995.732,260.905Z" style="fill:rgb(255,42,0);fill-rule:nonzero;"/>
        </g>
        <g transform="matrix(1,0,0,1,-839.998,0)">
            <path d="M998.54,265.615C998.073,266.258 997.172,266.401 996.528,265.934C995.886,265.466 995.743,264.565 996.21,263.922C996.678,263.278 997.578,263.136 998.222,263.604C998.865,264.071 999.008,264.971 998.54,265.615Z" style="fill:rgb(255,42,0);fill-rule:nonzero;"/>
        </g>
        <g transform="matrix(1,0,0,1,-839.998,0)">
            <path d="M1002.04,268.154C1002.5,267.51 1003.4,267.368 1004.05,267.835C1004.69,268.303 1004.83,269.203 1004.37,269.847C1003.9,270.49 1003,270.633 1002.35,270.166C1001.71,269.698 1001.57,268.797 1002.04,268.154Z" style="fill:rgb(255,42,0);fill-rule:nonzero;"/>
        </g>
        <g transform="matrix(1,0,0,1,-839.998,0)">
            <path d="M1011.24,248.14C1010.77,248.783 1009.87,248.926 1009.23,248.458C1008.58,247.991 1008.44,247.09 1008.91,246.447C1009.37,245.804 1010.27,245.661 1010.92,246.128C1011.56,246.596 1011.7,247.497 1011.24,248.14Z" style="fill:rgb(255,42,0);fill-rule:nonzero;"/>
        </g>
        <g transform="matrix(1,0,0,1,-839.998,0)">
            <path d="M1014.73,250.679C1015.2,250.036 1016.1,249.893 1016.74,250.361C1017.39,250.828 1017.53,251.729 1017.06,252.372C1016.59,253.015 1015.69,253.158 1015.05,252.69C1014.41,252.223 1014.26,251.322 1014.73,250.679Z" style="fill:rgb(255,42,0);fill-rule:nonzero;"/>
        </g>
        <g transform="matrix(1,0,0,1,-839.998,0)">
            <path d="M1014.25,247.662C1013.61,247.195 1013.47,246.294 1013.93,245.651C1014.4,245.007 1015.3,244.865 1015.95,245.332C1016.59,245.799 1016.73,246.7 1016.26,247.344C1015.8,247.987 1014.9,248.129 1014.25,247.662Z" style="fill:rgb(255,42,0);fill-rule:nonzero;"/>
        </g>
        <g transform="matrix(1,0,0,1,-839.998,0)">
            <path d="M1008.43,243.43C1007.79,242.963 1007.64,242.062 1008.11,241.418C1008.58,240.775 1009.48,240.633 1010.12,241.1C1010.76,241.567 1010.91,242.468 1010.44,243.111C1009.97,243.755 1009.07,243.897 1008.43,243.43Z" style="fill:rgb(255,42,0);fill-rule:nonzero;"/>
        </g>
        <g transform="matrix(1,0,0,1,-839.998,0)">
            <path d="M1010.02,253.487C1009.38,253.02 1009.24,252.119 1009.7,251.476C1010.17,250.832 1011.07,250.689 1011.71,251.157C1012.36,251.625 1012.5,252.525 1012.03,253.168C1011.57,253.812 1010.67,253.954 1010.02,253.487Z" style="fill:rgb(255,42,0);fill-rule:nonzero;"/>
        </g>
        <g transform="matrix(1,0,0,1,-839.998,0)">
            <path d="M1004.2,249.255C1003.55,248.788 1003.41,247.887 1003.88,247.244C1004.35,246.6 1005.25,246.458 1005.89,246.925C1006.53,247.393 1006.68,248.293 1006.21,248.937C1005.74,249.58 1004.84,249.722 1004.2,249.255Z" style="fill:rgb(255,42,0);fill-rule:nonzero;"/>
        </g>
        <g transform="matrix(1,0,0,1,-839.998,0)">
            <path d="M1007,253.965C1006.54,254.608 1005.64,254.751 1004.99,254.284C1004.35,253.816 1004.21,252.916 1004.67,252.272C1005.14,251.628 1006.04,251.486 1006.69,251.954C1007.33,252.421 1007.47,253.321 1007,253.965Z" style="fill:rgb(255,42,0);fill-rule:nonzero;"/>
        </g>
        <g transform="matrix(1,0,0,1,-839.998,0)">
            <path d="M1010.5,256.504C1010.97,255.861 1011.87,255.718 1012.51,256.186C1013.15,256.653 1013.3,257.554 1012.83,258.197C1012.36,258.84 1011.46,258.983 1010.82,258.516C1010.17,258.048 1010.03,257.147 1010.5,256.504Z" style="fill:rgb(255,42,0);fill-rule:nonzero;"/>
        </g>
        <g transform="matrix(1,0,0,1,-839.998,0)">
            <path d="M1019.7,236.49C1019.23,237.133 1018.33,237.276 1017.69,236.809C1017.05,236.341 1016.9,235.44 1017.37,234.797C1017.84,234.154 1018.74,234.011 1019.38,234.479C1020.03,234.946 1020.17,235.847 1019.7,236.49Z" style="fill:rgb(255,42,0);fill-rule:nonzero;"/>
        </g>
        <g transform="matrix(1,0,0,1,-839.998,0)">
            <path d="M1023.2,239.029C1023.66,238.386 1024.56,238.243 1025.21,238.711C1025.85,239.178 1025.99,240.079 1025.53,240.722C1025.06,241.365 1024.16,241.508 1023.51,241.041C1022.87,240.573 1022.73,239.673 1023.2,239.029Z" style="fill:rgb(255,42,0);fill-rule:nonzero;"/>
        </g>
        <g transform="matrix(1,0,0,1,-839.998,0)">
            <path d="M1024.73,235.694C1024.26,236.337 1023.36,236.48 1022.72,236.012C1022.07,235.545 1021.93,234.644 1022.4,234.001C1022.87,233.357 1023.77,233.215 1024.41,233.682C1025.05,234.15 1025.2,235.05 1024.73,235.694Z" style="fill:rgb(255,42,0);fill-rule:nonzero;"/>
        </g>
        <g transform="matrix(1,0,0,1,-839.998,0)">
            <path d="M1016.89,231.78C1016.25,231.313 1016.11,230.412 1016.57,229.769C1017.04,229.125 1017.94,228.983 1018.59,229.45C1019.23,229.917 1019.37,230.818 1018.9,231.461C1018.44,232.105 1017.54,232.248 1016.89,231.78Z" style="fill:rgb(255,42,0);fill-rule:nonzero;"/>
        </g>
        <g transform="matrix(1,0,0,1,-839.998,0)">
            <path d="M1018.49,241.837C1017.84,241.37 1017.7,240.469 1018.17,239.826C1018.63,239.182 1019.54,239.04 1020.18,239.507C1020.82,239.975 1020.96,240.875 1020.5,241.519C1020.03,242.162 1019.13,242.305 1018.49,241.837Z" style="fill:rgb(255,42,0);fill-rule:nonzero;"/>
        </g>
        <g transform="matrix(1,0,0,1,-839.998,0)">
            <path d="M1012.66,237.605C1012.02,237.138 1011.88,236.237 1012.34,235.594C1012.81,234.95 1013.71,234.808 1014.35,235.275C1015,235.743 1015.14,236.643 1014.67,237.287C1014.21,237.93 1013.3,238.072 1012.66,237.605Z" style="fill:rgb(255,42,0);fill-rule:nonzero;"/>
        </g>
        <g transform="matrix(1,0,0,1,-839.998,0)">
            <path d="M1015.47,242.315C1015,242.958 1014.1,243.101 1013.46,242.634C1012.81,242.167 1012.67,241.266 1013.14,240.622C1013.61,239.979 1014.51,239.836 1015.15,240.304C1015.79,240.771 1015.94,241.671 1015.47,242.315Z" style="fill:rgb(255,42,0);fill-rule:nonzero;"/>
        </g>
        <g transform="matrix(1,0,0,1,-839.998,0)">
            <path d="M1018.96,244.854C1019.43,244.211 1020.33,244.068 1020.97,244.536C1021.62,245.003 1021.76,245.904 1021.29,246.547C1020.83,247.19 1019.92,247.333 1019.28,246.866C1018.64,246.398 1018.5,245.498 1018.96,244.854Z" style="fill:rgb(255,42,0);fill-rule:nonzero;"/>
        </g>
        <g transform="matrix(1,0,0,1,-839.998,0)">
            <path d="M1026.15,225.159C1025.51,224.691 1025.37,223.791 1025.83,223.147C1026.3,222.504 1027.2,222.361 1027.85,222.829C1028.49,223.296 1028.63,224.197 1028.17,224.84C1027.7,225.483 1026.8,225.626 1026.15,225.159Z" style="fill:rgb(255,42,0);fill-rule:nonzero;"/>
        </g>
        <g transform="matrix(1,0,0,1,-839.998,0)">
            <path d="M1025.36,220.13C1024.71,219.663 1024.57,218.762 1025.04,218.119C1025.51,217.476 1026.41,217.333 1027.05,217.8C1027.69,218.268 1027.84,219.168 1027.37,219.812C1026.9,220.455 1026,220.598 1025.36,220.13Z" style="fill:rgb(255,42,0);fill-rule:nonzero;"/>
        </g>
        <g transform="matrix(1,0,0,1,-839.998,0)">
            <path d="M1026.95,230.188C1026.31,229.72 1026.16,228.819 1026.63,228.176C1027.1,227.532 1028,227.39 1028.64,227.857C1029.29,228.325 1029.43,229.225 1028.96,229.869C1028.49,230.512 1027.59,230.655 1026.95,230.188Z" style="fill:rgb(255,42,0);fill-rule:nonzero;"/>
        </g>
        <g transform="matrix(1,0,0,1,-839.998,0)">
            <path d="M1021.13,225.955C1020.48,225.488 1020.34,224.587 1020.81,223.944C1021.27,223.3 1022.17,223.158 1022.82,223.625C1023.46,224.093 1023.6,224.993 1023.14,225.637C1022.67,226.28 1021.77,226.422 1021.13,225.955Z" style="fill:rgb(255,42,0);fill-rule:nonzero;"/>
        </g>
        <g transform="matrix(1,0,0,1,-839.998,0)">
            <path d="M1023.93,230.665C1023.47,231.309 1022.56,231.451 1021.92,230.984C1021.28,230.517 1021.14,229.616 1021.6,228.972C1022.07,228.329 1022.97,228.187 1023.61,228.654C1024.26,229.121 1024.4,230.021 1023.93,230.665Z" style="fill:rgb(255,42,0);fill-rule:nonzero;"/>
        </g>
        <g transform="matrix(1,0,0,1,-839.998,0)">
            <path d="M1027.43,233.205C1027.9,232.561 1028.8,232.418 1029.44,232.886C1030.08,233.353 1030.23,234.254 1029.76,234.897C1029.29,235.541 1028.39,235.683 1027.75,235.216C1027.1,234.749 1026.96,233.848 1027.43,233.205Z" style="fill:rgb(255,42,0);fill-rule:nonzero;"/>
        </g>
        <g transform="matrix(1,0,0,1,-839.998,0)">
            <path d="M971.236,288.496C971.88,288.963 972.022,289.864 971.556,290.507C971.549,290.517 971.54,290.523 971.533,290.532L969.819,288.345C970.271,288.149 970.81,288.186 971.236,288.496Z" style="fill:rgb(255,42,0);fill-rule:nonzero;"/>
        </g>
        <g transform="matrix(1,0,0,1,-839.998,0)">
            <path d="M968.747,285.797C968.104,285.33 967.961,284.429 968.429,283.786C968.896,283.143 969.797,283 970.44,283.467C971.083,283.935 971.227,284.835 970.759,285.479C970.291,286.122 969.391,286.265 968.747,285.797Z" style="fill:rgb(255,42,0);fill-rule:nonzero;"/>
        </g>
        <g transform="matrix(1,0,0,1,-839.998,0)">
            <path d="M978.008,279.176C977.364,278.708 977.222,277.808 977.689,277.165C978.157,276.521 979.058,276.378 979.7,276.846C980.344,277.313 980.487,278.214 980.02,278.857C979.552,279.501 978.651,279.643 978.008,279.176Z" style="fill:rgb(255,42,0);fill-rule:nonzero;"/>
        </g>
        <g transform="matrix(1,0,0,1,-839.998,0)">
            <path d="M977.211,274.147C976.568,273.68 976.426,272.779 976.893,272.136C977.36,271.493 978.261,271.35 978.904,271.817C979.548,272.285 979.69,273.186 979.223,273.829C978.756,274.472 977.854,274.615 977.211,274.147Z" style="fill:rgb(255,42,0);fill-rule:nonzero;"/>
        </g>
        <g transform="matrix(1,0,0,1,-839.998,0)">
            <path d="M972.979,279.972C972.336,279.505 972.193,278.604 972.661,277.961C973.128,277.317 974.028,277.175 974.672,277.643C975.315,278.11 975.458,279.01 974.991,279.654C974.523,280.297 973.623,280.44 972.979,279.972Z" style="fill:rgb(255,42,0);fill-rule:nonzero;"/>
        </g>
        <g transform="matrix(1,0,0,1,-839.998,0)">
            <path d="M973.775,285.001C973.132,284.534 972.99,283.633 973.457,282.99C973.925,282.346 974.825,282.204 975.469,282.671C976.112,283.138 976.255,284.039 975.787,284.683C975.32,285.326 974.419,285.468 973.775,285.001Z" style="fill:rgb(255,42,0);fill-rule:nonzero;"/>
        </g>
        <g transform="matrix(1,0,0,1,-839.998,0)">
            <path d="M986.472,267.526C985.828,267.059 985.687,266.158 986.153,265.515C986.621,264.871 987.521,264.729 988.165,265.196C988.808,265.664 988.951,266.564 988.483,267.208C988.016,267.851 987.115,267.994 986.472,267.526Z" style="fill:rgb(255,42,0);fill-rule:nonzero;"/>
        </g>
        <g transform="matrix(1,0,0,1,-839.998,0)">
            <path d="M987.368,260.168C988.012,260.635 988.154,261.536 987.687,262.179C987.22,262.822 986.318,262.965 985.676,262.498C985.374,262.279 985.188,261.964 985.117,261.626L986.468,259.9C986.779,259.888 987.097,259.97 987.368,260.168Z" style="fill:rgb(255,42,0);fill-rule:nonzero;"/>
        </g>
        <g transform="matrix(1,0,0,1,-839.998,0)">
            <path d="M983.137,265.993C983.779,266.46 983.923,267.36 983.455,268.004C982.987,268.647 982.087,268.79 981.443,268.323C981.031,268.023 980.827,267.545 980.855,267.072L981.859,265.788C982.279,265.657 982.753,265.714 983.137,265.993Z" style="fill:rgb(255,42,0);fill-rule:nonzero;"/>
        </g>
        <g transform="matrix(1,0,0,1,-839.998,0)">
            <path d="M982.24,273.351C981.597,272.884 981.454,271.983 981.921,271.34C982.389,270.696 983.289,270.554 983.933,271.021C984.576,271.488 984.719,272.389 984.251,273.033C983.784,273.676 982.883,273.819 982.24,273.351Z" style="fill:rgb(255,42,0);fill-rule:nonzero;"/>
        </g>
        <g transform="matrix(1,0,0,1,-839.998,0)">
            <path d="M994.937,255.876C994.293,255.409 994.15,254.508 994.617,253.865C995.085,253.221 995.985,253.079 996.629,253.546C997.272,254.014 997.415,254.914 996.947,255.558C996.48,256.201 995.579,256.344 994.937,255.876Z" style="fill:rgb(255,42,0);fill-rule:nonzero;"/>
        </g>
        <g transform="matrix(1,0,0,1,-839.998,0)">
            <path d="M996.151,250.529C995.684,251.172 994.783,251.315 994.14,250.848C994.009,250.753 993.904,250.637 993.815,250.512L995.51,248.347C995.621,248.391 995.73,248.444 995.832,248.518C996.476,248.985 996.618,249.886 996.151,250.529Z" style="fill:rgb(255,42,0);fill-rule:nonzero;"/>
        </g>
        <g transform="matrix(1,0,0,1,-839.998,0)">
            <path d="M991.919,256.354C991.452,256.998 990.551,257.14 989.907,256.673C989.696,256.52 989.545,256.317 989.446,256.095L991.011,254.096C991.217,254.133 991.419,254.211 991.601,254.343C992.243,254.81 992.387,255.711 991.919,256.354Z" style="fill:rgb(255,42,0);fill-rule:nonzero;"/>
        </g>
        <g transform="matrix(1,0,0,1,-839.998,0)">
            <path d="M990.704,261.702C990.061,261.234 989.918,260.333 990.386,259.69C990.853,259.046 991.753,258.904 992.396,259.371C993.04,259.839 993.183,260.739 992.716,261.383C992.248,262.026 991.347,262.169 990.704,261.702Z" style="fill:rgb(255,42,0);fill-rule:nonzero;"/>
        </g>
        <g transform="matrix(1,0,0,1,-839.998,0)">
            <path d="M1003.4,244.227C1002.76,243.759 1002.61,242.858 1003.08,242.215C1003.55,241.572 1004.45,241.429 1005.09,241.896C1005.74,242.364 1005.88,243.265 1005.41,243.908C1004.94,244.551 1004.04,244.694 1003.4,244.227Z" style="fill:rgb(255,42,0);fill-rule:nonzero;"/>
        </g>
        <g transform="matrix(1,0,0,1,-839.998,0)">
            <path d="M1004.62,238.879C1004.16,239.508 1003.29,239.654 1002.65,239.225L1004.41,236.972C1004.95,237.459 1005.05,238.279 1004.62,238.879Z" style="fill:rgb(255,42,0);fill-rule:nonzero;"/>
        </g>
        <g transform="matrix(1,0,0,1,-839.998,0)">
            <path d="M1000.38,244.705C999.916,245.348 999.015,245.49 998.372,245.023C998.315,244.981 998.268,244.934 998.219,244.886L999.976,242.641C1000,242.659 1000.04,242.672 1000.06,242.693C1000.71,243.16 1000.85,244.061 1000.38,244.705Z" style="fill:rgb(255,42,0);fill-rule:nonzero;"/>
        </g>
        <g transform="matrix(1,0,0,1,-839.998,0)">
            <path d="M999.168,250.052C998.524,249.584 998.382,248.683 998.85,248.04C999.317,247.396 1000.22,247.254 1000.86,247.722C1001.5,248.189 1001.65,249.089 1001.18,249.733C1000.71,250.376 999.812,250.519 999.168,250.052Z" style="fill:rgb(255,42,0);fill-rule:nonzero;"/>
        </g>
        <g transform="matrix(1,0,0,1,-839.998,0)">
            <path d="M1011.86,232.577C1011.22,232.109 1011.08,231.208 1011.55,230.565C1012.01,229.922 1012.91,229.779 1013.56,230.247C1014.2,230.714 1014.34,231.615 1013.88,232.258C1013.41,232.901 1012.51,233.044 1011.86,232.577Z" style="fill:rgb(255,42,0);fill-rule:nonzero;"/>
        </g>
        <g transform="matrix(1,0,0,1,-839.998,0)">
            <path d="M1013.08,227.229C1012.73,227.708 1012.14,227.909 1011.6,227.788L1013.2,225.746C1013.43,226.21 1013.41,226.781 1013.08,227.229Z" style="fill:rgb(255,42,0);fill-rule:nonzero;"/>
        </g>
        <g transform="matrix(1,0,0,1,-839.998,0)">
            <path d="M1008.85,233.055C1008.44,233.611 1007.71,233.791 1007.11,233.527L1008.82,231.338C1009.2,231.831 1009.23,232.527 1008.85,233.055Z" style="fill:rgb(255,42,0);fill-rule:nonzero;"/>
        </g>
        <g transform="matrix(1,0,0,1,-839.998,0)">
            <path d="M1007.63,238.402C1006.99,237.934 1006.85,237.033 1007.31,236.39C1007.78,235.747 1008.68,235.604 1009.33,236.072C1009.97,236.539 1010.11,237.439 1009.64,238.083C1009.18,238.726 1008.28,238.869 1007.63,238.402Z" style="fill:rgb(255,42,0);fill-rule:nonzero;"/>
        </g>
        <g transform="matrix(1,0,0,1,-839.998,0)">
            <path d="M1020.33,220.927C1019.68,220.459 1019.54,219.559 1020.01,218.916C1020.48,218.272 1021.38,218.129 1022.02,218.597C1022.66,219.064 1022.81,219.965 1022.34,220.608C1021.87,221.251 1020.97,221.394 1020.33,220.927Z" style="fill:rgb(255,42,0);fill-rule:nonzero;"/>
        </g>
        <g transform="matrix(1,0,0,1,-839.998,0)">
            <path d="M1021.54,215.58C1021.34,215.864 1021.04,216.044 1020.73,216.124L1021.81,214.736C1021.81,215.029 1021.73,215.324 1021.54,215.58Z" style="fill:rgb(255,42,0);fill-rule:nonzero;"/>
        </g>
        <g transform="matrix(1,0,0,1,-839.998,0)">
            <path d="M1017.31,221.405C1017.03,221.796 1016.58,221.999 1016.13,221.995L1017.54,220.204C1017.64,220.604 1017.57,221.044 1017.31,221.405Z" style="fill:rgb(255,42,0);fill-rule:nonzero;"/>
        </g>
        <g transform="matrix(1,0,0,1,-839.998,0)">
            <path d="M1016.1,226.752C1015.45,226.285 1015.31,225.384 1015.78,224.74C1016.25,224.097 1017.15,223.954 1017.79,224.422C1018.43,224.889 1018.58,225.79 1018.11,226.433C1017.64,227.077 1016.74,227.219 1016.1,226.752Z" style="fill:rgb(255,42,0);fill-rule:nonzero;"/>
        </g>
        <g transform="matrix(1,0,0,1,-839.998,0)">
            <path d="M1026.57,214.783C1026.1,215.427 1025.2,215.569 1024.56,215.102C1023.92,214.635 1023.77,213.734 1024.24,213.09C1024.59,212.609 1025.18,212.408 1025.73,212.534C1026.07,213.213 1026.38,213.9 1026.68,214.592C1026.65,214.657 1026.62,214.722 1026.57,214.783Z" style="fill:rgb(255,42,0);fill-rule:nonzero;"/>
        </g>
        <g transform="matrix(1,0,0,1,-839.998,0)">
            <path d="M966.044,307.065C967.124,307.065 968,306.189 968,305.109C968,304.018 967.124,303.142 966.044,303.142C964.952,303.142 964.076,304.018 964.076,305.109C964.076,306.189 964.952,307.065 966.044,307.065ZM966.776,284.458L984.14,306.633L1001.38,328.666L1004.32,329.529C994.893,331.954 987.416,339.273 984.764,348.609L983.708,348.31L966.596,328.005L949.46,307.678L915.488,267.37C901.88,252.357 899.276,229.054 909.176,210.85L966.776,284.458Z" style="fill:white;fill-rule:nonzero;"/>
        </g>
        <g transform="matrix(1,0,0,1,-839.998,0)">
            <path d="M965.804,328.666L950.5,346" style="fill:none;stroke:rgb(38,38,38);stroke-width:4px;"/>
        </g>
        <g transform="matrix(1,0,0,1,-839.998,0)">
            <path d="M968,283.498L1024.86,210.85C1034.77,229.054 1032.16,252.357 1018.56,267.37L986.084,305.109" style="fill:none;stroke:rgb(38,38,38);stroke-width:4px;"/>
        </g>
        <g transform="matrix(1,0,0,1,-839.998,0)">
            <path d="M932.66,328.666L948.368,308.589" style="fill:none;stroke:rgb(38,38,38);stroke-width:4px;"/>
        </g>
        <g transform="matrix(1,0,0,1,-839.998,0)">
            <path d="M1001.38,328.666L984.14,306.633L966.776,284.458L909.176,210.85C899.276,229.054 901.88,252.357 915.488,267.37L949.46,307.678L966.596,328.005L983.708,348.31" style="fill:none;stroke:rgb(38,38,38);stroke-width:4px;"/>
        </g>
        <g transform="matrix(1,0,0,1,-839.998,0)">
            <path d="M966.055,299.604C962.994,299.604 960.538,302.059 960.538,305.12C960.538,308.148 962.994,310.604 966.055,310.604C969.082,310.604 971.538,308.148 971.538,305.12C971.538,302.059 969.082,299.604 966.055,299.604Z" style="fill:rgb(38,38,38);fill-rule:nonzero;"/>
        </g>
        <g transform="matrix(1,0,0,1,-839.998,0)">
            <path d="M984.764,348.609C984.068,351.01 983.708,353.542 983.708,356.157C983.708,371.338 996.021,383.649 1011.2,383.649C1026.38,383.649 1038.69,371.338 1038.69,356.157C1038.69,340.978 1026.38,328.666 1011.2,328.666C1008.82,328.666 1006.52,328.965 1004.32,329.529C994.893,331.954 987.416,339.273 984.764,348.609Z" style="fill:none;stroke:rgb(38,38,38);stroke-width:4px;"/>
        </g>
        <g transform="matrix(1,0,0,1,-839.998,0)">
            <path d="M999.416,356.157C999.416,362.661 1004.7,367.941 1011.2,367.941C1017.7,367.941 1022.98,362.661 1022.98,356.157C1022.98,349.653 1017.7,344.373 1011.2,344.373C1004.7,344.373 999.416,349.653 999.416,356.157Z" style="fill:none;stroke:rgb(38,38,38);stroke-width:4px;"/>
        </g>
        <g transform="matrix(1,0,0,1,-839.998,0)">
            <path d="M950.096,345.369C951.512,348.682 952.292,352.329 952.292,356.157C952.292,371.338 939.98,383.649 924.8,383.649C909.62,383.649 897.308,371.338 897.308,356.157C897.308,340.978 909.62,328.666 924.8,328.666C927.428,328.666 929.96,329.038 932.36,329.722C940.364,332.001 946.868,337.821 950.096,345.369Z" style="fill:none;stroke:rgb(38,38,38);stroke-width:4px;"/>
        </g>
        <g transform="matrix(1,0,0,1,-839.998,0)">
            <path d="M936.584,356.157C936.584,362.661 931.304,367.941 924.8,367.941C918.296,367.941 913.016,362.661 913.016,356.157C913.016,349.653 918.296,344.373 924.8,344.373C931.304,344.373 936.584,349.653 936.584,356.157Z" style="fill:none;stroke:rgb(38,38,38);stroke-width:4px;"/>
        </g>
    </g>
</svg>
